<?xml version="1.0" standalone="no"?>
<!DOCTYPE svg PUBLIC "-//W3C//DTD SVG 1.1//EN" "http://www.w3.org/Graphics/SVG/1.1/DTD/svg11.dtd" >
<svg xmlns="http://www.w3.org/2000/svg" xmlns:xlink="http://www.w3.org/1999/xlink" version="1.1">
<metadata>
Created by FontForge 20170731 at Wed Sep 20 01:00:13 2017
 By Aleksey,,,
Copyright 2015 Google Inc. All Rights Reserved.
</metadata>
<defs>
<font id="NotoSansHebrew-Bold" horiz-adv-x="0" >
  <font-face 
    font-family="Noto Sans Hebrew"
    font-weight="700"
    font-stretch="normal"
    units-per-em="1000"
    panose-1="2 11 8 2 4 5 4 2 2 4"
    ascent="800"
    descent="-200"
    bbox="-210 -252 804 869"
    underline-thickness="50"
    underline-position="-175"
    unicode-range="U+000D-FB4F"
  />
<missing-glyph horiz-adv-x="364" 
d="M33 0v666h265v-666h-265zM66 33h199v600h-199v-600z" />
    <glyph glyph-name=".notdef" horiz-adv-x="364" 
d="M33 0v666h265v-666h-265zM66 33h199v600h-199v-600z" />
    <glyph glyph-name=".null" 
 />
    <glyph glyph-name="nonmarkingreturn" horiz-adv-x="333" 
 />
    <glyph glyph-name="NULL" 
 />
    <glyph glyph-name="NULL" 
 />
    <glyph glyph-name="CR" unicode="&#xd;" horiz-adv-x="260" 
 />
    <glyph glyph-name="space" unicode=" " horiz-adv-x="260" 
 />
    <glyph glyph-name="hyphen" unicode="-" horiz-adv-x="322" 
d="M30 207v122h262v-122h-262z" />
    <glyph glyph-name="uni00A0" unicode="&#xa0;" horiz-adv-x="260" 
 />
    <glyph glyph-name="uni0591" unicode="&#x591;" 
d="M50 -236v23q0 41 16 61.5t47 25.5v43h48v-43q33 -5 48.5 -25.5t15.5 -61.5v-23h-47v22q0 25 -9 35.5t-31 10.5q-23 0 -32.5 -10.5t-9.5 -35.5v-22h-46z" />
    <glyph glyph-name="uni0592" unicode="&#x592;" 
d="M146 767q-17 0 -29 9.5t-12 28.5q0 21 12 30.5t29 9.5t29.5 -9.5t12.5 -30.5q0 -19 -12.5 -28.5t-29.5 -9.5zM86 662q-17 0 -29 10t-12 30t12 29.5t29 9.5t29.5 -9.5t12.5 -29.5t-12.5 -30t-29.5 -10zM205 662q-17 0 -29 10t-12 30t12 29.5t29 9.5t29.5 -9.5t12.5 -29.5
t-12.5 -30t-29.5 -10z" />
    <glyph glyph-name="uni0593" unicode="&#x593;" 
d="M50 659l76 42l-76 42l76 42l-76 42l76 42h68l-76 -42l76 -42l-76 -42l76 -42l-86 -42h-58z" />
    <glyph glyph-name="uni0594" unicode="&#x594;" 
d="M91 766q-17 0 -29 9.5t-12 29.5t12 30t29 10t29.5 -10t12.5 -30t-12.5 -29.5t-29.5 -9.5zM91 662q-17 0 -29 9.5t-12 30.5q0 20 12 29t29 9t29.5 -9t12.5 -29q0 -21 -12.5 -30.5t-29.5 -9.5z" />
    <glyph glyph-name="uni0595" unicode="&#x595;" 
d="M50 662v183h52v-183h-52zM186 766q-17 0 -29 9.5t-12 29.5t12 30t29 10t29.5 -10t12.5 -30t-12.5 -29.5t-29.5 -9.5zM186 662q-17 0 -29 9.5t-12 30.5q0 20 12 29t29 9t29.5 -9t12.5 -29q0 -21 -12.5 -30.5t-29.5 -9.5z" />
    <glyph glyph-name="uni0596" unicode="&#x596;" 
d="M200 -223q-71 0 -110.5 37t-39.5 103h50q0 -43 27 -67t73 -24v-49z" />
    <glyph glyph-name="uni0597" unicode="&#x597;" 
d="M120 650l-70 77l70 78l70 -78z" />
    <glyph glyph-name="uni0598" unicode="&#x598;" 
d="M100 650q-50 17 -50 73q0 30 19 49t49 19q22 0 40 -12.5t43 -46.5q19 -26 31.5 -37t27.5 -11q13 0 21.5 9t8.5 26q0 29 -27 39l13 34q50 -20 50 -73q0 -31 -19 -49.5t-47 -18.5q-23 0 -42 12.5t-43 45.5q-21 29 -32 39t-27 10q-13 0 -21.5 -9t-8.5 -26q0 -28 27 -40z" />
    <glyph glyph-name="uni0599" unicode="&#x599;" 
d="M150 650q0 43 -26 67t-74 24v50q70 0 110 -36.5t40 -104.5h-50z" />
    <glyph glyph-name="uni059A" unicode="&#x59a;" 
d="M133 -249l-83 83l83 83h66l-83 -83l83 -83h-66z" />
    <glyph glyph-name="uni059B" unicode="&#x59b;" 
d="M86 -126q-15 0 -25.5 10.5t-10.5 26.5q0 15 10.5 26t25.5 11q16 0 26.5 -10.5t10.5 -26.5t-10.5 -26.5t-26.5 -10.5zM67 -223v49q47 0 74 24t27 67h50q0 -65 -39 -102.5t-112 -37.5z" />
    <glyph glyph-name="uni059C" unicode="&#x59c;" 
d="M50 650q0 67 40 104t110 37v-50q-46 0 -73 -23.5t-27 -67.5h-50z" />
    <glyph glyph-name="uni059D" unicode="&#x59d;" 
d="M50 650q0 67 40 104t110 37v-50q-46 0 -73 -23.5t-27 -67.5h-50z" />
    <glyph glyph-name="uni059E" unicode="&#x59e;" 
d="M201 650q0 67 40.5 104t110.5 37v-50q-46 0 -73 -23.5t-27 -67.5h-51zM50 650q0 66 39.5 103.5t111.5 37.5v-50q-47 0 -73.5 -23.5t-26.5 -67.5h-51z" />
    <glyph glyph-name="uni059F" unicode="&#x59f;" 
d="M326 650l-36 36l39 39q-13 21 -13 46q0 39 27.5 66t66.5 27t66.5 -26.5t27.5 -66.5q0 -39 -27 -66t-67 -27q-26 0 -46 10zM228 650l-38 38q-20 -10 -46 -10q-40 0 -67 27t-27 66t27.5 66t66.5 27t66.5 -27t27.5 -66q0 -25 -13 -46l39 -39zM145 724q19 0 32.5 14t13.5 33
t-14 33t-32 14q-19 0 -33.5 -14t-14.5 -33t14.5 -33t33.5 -14zM409 724q19 0 33.5 14t14.5 33t-14.5 33t-33.5 14q-18 0 -32 -14t-14 -33t13.5 -33t32.5 -14z" />
    <glyph glyph-name="uni05A0" unicode="&#x5a0;" 
d="M86 650l-36 36l39 39q-13 21 -13 46q0 39 27.5 66t66.5 27t66.5 -26.5t27.5 -66.5q0 -39 -27 -66t-67 -27q-26 0 -46 10zM169 724q19 0 33.5 14t14.5 33t-14.5 33t-33.5 14q-18 0 -32 -14t-14 -33t13.5 -33t32.5 -14z" />
    <glyph glyph-name="uni05A1" unicode="&#x5a1;" 
d="M50 650v153h46v-63q6 -6 20 -6q22 0 30.5 10t8.5 36v23h47v-23q0 -40 -20 -64t-60 -24q-8 0 -14.5 1t-11.5 4v-47h-46z" />
    <glyph glyph-name="uni05A2" unicode="&#x5a2;" 
d="M113 -236v42q-30 4 -46.5 25.5t-16.5 62.5v23h46v-23q0 -24 9.5 -35t32.5 -11q22 0 31 11t9 35v23h47v-23q0 -41 -16.5 -62t-47.5 -26v-42h-48z" />
    <glyph glyph-name="uni05A3" unicode="&#x5a3;" 
d="M50 -228v49h100v95h50v-144h-150z" />
    <glyph glyph-name="uni05A4" unicode="&#x5a4;" 
d="M133 -249l-83 83l83 83h67l-83 -83l83 -83h-67z" />
    <glyph glyph-name="uni05A5" unicode="&#x5a5;" 
d="M50 -223v49q46 0 73 24.5t27 66.5h50q0 -66 -39 -103t-111 -37z" />
    <glyph glyph-name="uni05A6" unicode="&#x5a6;" 
d="M201 -223v49q47 0 73.5 24.5t26.5 66.5h51q0 -65 -39 -102.5t-112 -37.5zM50 -223v49q47 0 73.5 24.5t26.5 66.5h51q0 -66 -39.5 -103t-111.5 -37z" />
    <glyph glyph-name="uni05A7" unicode="&#x5a7;" 
d="M64 -240v37l65 10l-79 103l132 24v-35l-66 -12l79 -103z" />
    <glyph glyph-name="uni05A8" unicode="&#x5a8;" 
d="M150 650q0 43 -26 67t-74 24v50q70 0 110 -36.5t40 -104.5h-50z" />
    <glyph glyph-name="uni05A9" unicode="&#x5a9;" 
d="M228 650l-38 38q-20 -10 -46 -10q-40 0 -67 27t-27 66t27.5 66t66.5 27t66.5 -27t27.5 -66q0 -25 -13 -46l39 -39zM145 724q19 0 32.5 14t13.5 33t-14 33t-32 14q-19 0 -33.5 -14t-14.5 -33t14.5 -33t33.5 -14z" />
    <glyph glyph-name="uni05AA" unicode="&#x5aa;" 
d="M113 -236v42q-30 4 -46.5 25.5t-16.5 62.5v23h46v-23q0 -24 9.5 -35t32.5 -11q22 0 31 11t9 35v23h47v-23q0 -41 -16.5 -62t-47.5 -26v-42h-48z" />
    <glyph glyph-name="uni05AB" unicode="&#x5ab;" 
d="M133 650l-83 83l83 83h67l-83 -83l83 -83h-67z" />
    <glyph glyph-name="uni05AC" unicode="&#x5ac;" 
d="M50 650v49h100v95h50v-144h-150z" />
    <glyph glyph-name="uni05AD" unicode="&#x5ad;" 
d="M200 -223q-71 0 -110.5 37t-39.5 103h50q0 -43 27 -67t73 -24v-49z" />
    <glyph glyph-name="uni05AE" unicode="&#x5ae;" 
d="M100 650q-50 17 -50 73q0 30 19 49t49 19q22 0 40 -12.5t43 -46.5q19 -26 31.5 -37t27.5 -11q13 0 21.5 9t8.5 26q0 29 -27 39l13 34q50 -20 50 -73q0 -31 -19 -49.5t-47 -18.5q-23 0 -42 12.5t-43 45.5q-21 29 -32 39t-27 10q-13 0 -21.5 -9t-8.5 -26q0 -28 27 -40z" />
    <glyph glyph-name="uni05AF" unicode="&#x5af;" 
d="M142 650q-39 0 -65.5 27t-26.5 65t27 65t65 27t65 -27t27 -65t-26.5 -65t-65.5 -27zM142 693q20 0 34.5 14.5t14.5 34.5t-14.5 34.5t-34.5 14.5t-34.5 -14.5t-14.5 -34.5t14.5 -34.5t34.5 -14.5z" />
    <glyph glyph-name="uni05B0" unicode="&#x5b0;" 
d="M91 -148q-17 0 -29 9.5t-12 29.5t12 30t29 10t29.5 -10t12.5 -30t-12.5 -29.5t-29.5 -9.5zM91 -252q-17 0 -29 9.5t-12 30.5q0 20 12 29t29 9t29.5 -9t12.5 -29q0 -21 -12.5 -30.5t-29.5 -9.5z" />
    <glyph glyph-name="uni05B1" unicode="&#x5b1;" 
d="M91 -148q-17 0 -29 9.5t-12 29.5t12 30t29 10t29.5 -10t12.5 -30t-12.5 -29.5t-29.5 -9.5zM210 -148q-17 0 -29 9.5t-12 29.5t12 30t29 10t29.5 -10t12.5 -30t-12.5 -29.5t-29.5 -9.5zM319 -148q-17 0 -29 9.5t-12 29.5t12 30t29 10t29.5 -10t12.5 -30t-12.5 -29.5
t-29.5 -9.5zM319 -252q-17 0 -29 9.5t-12 30.5q0 20 12 29t29 9t29.5 -9t12.5 -29q0 -21 -12.5 -30.5t-29.5 -9.5zM151 -252q-17 0 -29 9.5t-12 30.5q0 20 12 29t29 9t29.5 -9t12.5 -29q0 -21 -12.5 -30.5t-29.5 -9.5z" />
    <glyph glyph-name="uni05B2" unicode="&#x5b2;" 
d="M310 -148q-17 0 -29 9.5t-12 29.5t12 30t29 10t29.5 -10t12.5 -30t-12.5 -29.5t-29.5 -9.5zM50 -134v51h193v-51h-193zM310 -252q-17 0 -29 9.5t-12 30.5q0 20 12 29t29 9t29.5 -9t12.5 -29q0 -21 -12.5 -30.5t-29.5 -9.5z" />
    <glyph glyph-name="uni05B3" unicode="&#x5b3;" 
d="M310 -148q-17 0 -29 9.5t-12 29.5t12 30t29 10t29.5 -10t12.5 -30t-12.5 -29.5t-29.5 -9.5zM121 -240v106h-71v51h193v-51h-71v-106h-51zM310 -252q-17 0 -29 9.5t-12 30.5q0 20 12 29t29 9t29.5 -9t12.5 -29q0 -21 -12.5 -30.5t-29.5 -9.5z" />
    <glyph glyph-name="uni05B4" unicode="&#x5b4;" 
d="M91 -148q-17 0 -29 9.5t-12 29.5t12 30t29 10t29.5 -10t12.5 -30t-12.5 -29.5t-29.5 -9.5z" />
    <glyph glyph-name="uni05B5" unicode="&#x5b5;" 
d="M102 -150q-18 0 -30 10t-12 30q0 21 12 31t30 10q17 0 29.5 -10t12.5 -31q0 -20 -12.5 -30t-29.5 -10zM220 -150q-18 0 -30 10t-12 30t12 30t30 10q17 0 29.5 -10t12.5 -30t-12.5 -30t-29.5 -10z" />
    <glyph glyph-name="uni05B6" unicode="&#x5b6;" 
d="M210 -148q-17 0 -29 9.5t-12 29.5t12 30t29 10t29.5 -10t12.5 -30t-12.5 -29.5t-29.5 -9.5zM91 -148q-17 0 -29 9.5t-12 29.5t12 30t29 10t29.5 -10t12.5 -30t-12.5 -29.5t-29.5 -9.5zM151 -252q-17 0 -29 9.5t-12 30.5q0 20 12 29t29 9t29.5 -9t12.5 -29
q0 -21 -12.5 -30.5t-29.5 -9.5z" />
    <glyph glyph-name="uni05B7" unicode="&#x5b7;" 
d="M50 -134v51h193v-51h-193z" />
    <glyph glyph-name="uni05B8" unicode="&#x5b8;" 
d="M121 -240v106h-71v51h193v-51h-71v-106h-51z" />
    <glyph glyph-name="uni05B9" unicode="&#x5b9;" 
d="M91 662q-17 0 -29 9.5t-12 29.5t12 30t29 10t29.5 -10t12.5 -30t-12.5 -29.5t-29.5 -9.5z" />
    <glyph glyph-name="uni05BA" unicode="&#x5ba;" 
d="M91 662q-17 0 -29 9.5t-12 29.5t12 30t29 10t29.5 -10t12.5 -30t-12.5 -29.5t-29.5 -9.5z" />
    <glyph glyph-name="uni05BB" unicode="&#x5bb;" 
d="M91 -148q-17 0 -29 9.5t-12 29.5t12 30t29 10t29.5 -10t12.5 -30t-12.5 -29.5t-29.5 -9.5zM183 -200q-17 0 -29 9.5t-12 30.5q0 20 12 29t29 9t29.5 -9t12.5 -29q0 -21 -12.5 -30.5t-29.5 -9.5zM275 -252q-17 0 -29 9.5t-12 29.5t12 30t29 10t29.5 -10t12.5 -30
t-12.5 -29.5t-29.5 -9.5z" />
    <glyph glyph-name="uni05BC" unicode="&#x5bc;" 
d="M50 303q0 20 12 30t30 10q17 0 29.5 -10t12.5 -30t-12.5 -30t-29.5 -10q-18 0 -30 10t-12 30z" />
    <glyph glyph-name="uni05BD" unicode="&#x5bd;" 
d="M50 -252v183h51v-183h-51z" />
    <glyph glyph-name="uni05BE" unicode="&#x5be;" horiz-adv-x="312" 
d="M20 480v122h262v-122h-262z" />
    <glyph glyph-name="uni05BF" unicode="&#x5bf;" 
d="M50 676v51h200v-51h-200z" />
    <glyph glyph-name="uni05C0" unicode="&#x5c0;" horiz-adv-x="551" 
d="M222 757h107v-984h-107v984z" />
    <glyph glyph-name="uni05C1" unicode="&#x5c1;" 
d="M91 662q-17 0 -29 9.5t-12 29.5t12 30t29 10t29.5 -10t12.5 -30t-12.5 -29.5t-29.5 -9.5z" />
    <glyph glyph-name="uni05C2" unicode="&#x5c2;" 
d="M91 662q-17 0 -29 9.5t-12 29.5t12 30t29 10t29.5 -10t12.5 -30t-12.5 -29.5t-29.5 -9.5z" />
    <glyph glyph-name="uni05C3" unicode="&#x5c3;" horiz-adv-x="285" 
d="M57 473q0 46 25 64.5t61 18.5q35 0 60 -18.5t25 -64.5q0 -44 -25 -63.5t-60 -19.5q-36 0 -61 19.5t-25 63.5zM57 70q0 46 25 64.5t61 18.5q35 0 60 -18.5t25 -64.5q0 -44 -25 -63.5t-60 -19.5q-36 0 -61 19.5t-25 63.5z" />
    <glyph glyph-name="uni05C4" unicode="&#x5c4;" 
d="M91 662q-17 0 -29 9.5t-12 29.5t12 30t29 10t29.5 -10t12.5 -30t-12.5 -29.5t-29.5 -9.5z" />
    <glyph glyph-name="uni05C5" unicode="&#x5c5;" 
d="M91 -148q-17 0 -29 9.5t-12 29.5t12 30t29 10t29.5 -10t12.5 -30t-12.5 -29.5t-29.5 -9.5z" />
    <glyph glyph-name="uni05C6" unicode="&#x5c6;" horiz-adv-x="422" 
d="M65 0v444q0 76 39.5 117t112.5 41h152v-126h-108q-26 0 -36 -13t-10 -38v-298h187v-127h-337z" />
    <glyph glyph-name="uni05C7" unicode="&#x5c7;" 
d="M101 -200v66h-51v51h153v-51h-51v-66h-51z" />
    <glyph glyph-name="uni05D0" unicode="&#x5d0;" horiz-adv-x="682" 
d="M64 0v168q0 82 28 149t84 99l-136 186h172l211 -307q19 21 28 58t9 87v162h150v-156q0 -84 -29 -151.5t-87 -98.5l148 -196h-172l-221 314q-35 -45 -35 -140v-174h-150z" />
    <glyph glyph-name="uni05D1" unicode="&#x5d1;" horiz-adv-x="592" 
d="M25 0v126h319v248q0 56 -20 79t-67 23h-232v126h238q231 0 231 -211v-265h78v-126h-547z" />
    <glyph glyph-name="uni05D2" unicode="&#x5d2;" horiz-adv-x="400" 
d="M10 -10v133q40 8 73.5 27.5t58.5 45.5q28 29 44 64t16 72v93q0 25 -10 38t-36 13h-108v126h152q76 0 113.5 -42t37.5 -116v-242l24 -202h-133l-28 129h-4q-38 -49 -89.5 -85.5t-110.5 -53.5z" />
    <glyph glyph-name="uni05D3" unicode="&#x5d3;" horiz-adv-x="578" 
d="M317 0v476h-307v126h548v-126h-91v-476h-150z" />
    <glyph glyph-name="uni05D4" unicode="&#x5d4;" horiz-adv-x="702" 
d="M477 0v374q0 56 -20.5 79t-66.5 23h-310v126h316q231 0 231 -211v-391h-150zM80 0v350h150v-350h-150z" />
    <glyph glyph-name="uni05D5" unicode="&#x5d5;" horiz-adv-x="310" 
d="M80 0v602h150v-602h-150z" />
    <glyph glyph-name="uni05D6" unicode="&#x5d6;" horiz-adv-x="350" 
d="M94 0v307q0 108 76 166v3h-150v126h310v-98q-16 -13 -36 -30.5t-35 -47.5t-15 -78v-348h-150z" />
    <glyph glyph-name="uni05D7" unicode="&#x5d7;" horiz-adv-x="722" 
d="M416 602q231 0 231 -211v-391h-150v374q0 56 -20.5 79t-66.5 23h-180v-476h-150v602h336z" />
    <glyph glyph-name="uni05D8" unicode="&#x5d8;" horiz-adv-x="724" 
d="M375 -12q-305 0 -305 331v283h150v-283q0 -107 39 -158t117 -51q86 0 117 52.5t31 156.5q0 95 -23.5 130t-65.5 35q-33 0 -62.5 -6.5t-58.5 -18.5v126q26 8 65 17.5t85 9.5q70 0 112.5 -26t64.5 -68t30 -92t8 -98q0 -127 -36 -201.5t-104 -106.5t-164 -32z" />
    <glyph glyph-name="uni05D9" unicode="&#x5d9;" horiz-adv-x="285" 
d="M70 213v389h150v-270l-75 -119h-75z" />
    <glyph glyph-name="uni05DA" unicode="&#x5da;" horiz-adv-x="595" 
d="M376 -240v517q0 107 -46.5 152.5t-154.5 45.5h-165v127h177q169 0 256 -82t87 -243v-517h-154z" />
    <glyph glyph-name="uni05DB" unicode="&#x5db;" horiz-adv-x="590" 
d="M25 0v126h197q78 0 124 38t46 132q0 92 -46 136t-124 44h-197v126h207q96 0 166.5 -37t108.5 -105t38 -161q0 -146 -83 -222.5t-230 -76.5h-207z" />
    <glyph glyph-name="uni05DC" unicode="&#x5dc;" horiz-adv-x="565" 
d="M165 602h370v-92l-194 -510h-157l188 476h-357v284h150v-158z" />
    <glyph glyph-name="uni05DD" unicode="&#x5dd;" horiz-adv-x="702" 
d="M65 0v602h331q231 0 231 -211v-391h-562zM215 126h262v248q0 56 -20.5 79t-66.5 23h-175v-350z" />
    <glyph glyph-name="uni05DE" unicode="&#x5de;" horiz-adv-x="698" 
d="M408 612q66 0 114 -29t74.5 -82t26.5 -124v-377h-320v126h170v237q0 116 -101 116q-61 0 -95 -43.5t-45 -134.5l-37 -301h-150l47 385l-45 217h150l18 -98h4q15 21 38 46.5t59 43.5t92 18z" />
    <glyph glyph-name="uni05DF" unicode="&#x5df;" horiz-adv-x="344" 
d="M119 -240v665q0 25 -10 38t-36 13h-58v126h102q73 0 112.5 -41t39.5 -117v-684h-150z" />
    <glyph glyph-name="uni05E0" unicode="&#x5e0;" horiz-adv-x="437" 
d="M25 0v127h187v298q0 25 -10 38t-36 13h-108v126h152q73 0 112.5 -41t39.5 -117v-444h-337z" />
    <glyph glyph-name="uni05E1" unicode="&#x5e1;" horiz-adv-x="731" 
d="M380 -13q-94 0 -163 38.5t-106 109.5t-37 170q0 44 7 88.5t16 82.5h-67v126h346q146 0 228 -81t82 -223q0 -96 -37 -165.5t-106 -107.5t-163 -38zM376 108q157 0 157 191q0 95 -41 136t-132 41h-111q-7 -25 -14.5 -66.5t-7.5 -97.5q0 -106 36.5 -155t112.5 -49z" />
    <glyph glyph-name="uni05E2" unicode="&#x5e2;" horiz-adv-x="655" 
d="M15 0v126h156l-117 476h150l113 -464q64 21 97 79t42 162l24 223h150l-23 -227q-5 -45 -16 -96t-35 -100.5t-65.5 -90t-106 -64.5t-158.5 -24h-211z" />
    <glyph glyph-name="uni05E3" unicode="&#x5e3;" horiz-adv-x="633" 
d="M208 216q-98 0 -150.5 55.5t-52.5 157.5v173h250q97 0 167 -38.5t108 -109t38 -167.5v-527h-150v524q0 191 -173 191h-90v-38q0 -55 18 -74.5t52 -19.5q7 0 16 0.5t16 1.5v-126q-11 -1 -24.5 -2t-24.5 -1z" />
    <glyph glyph-name="uni05E4" unicode="&#x5e4;" horiz-adv-x="653" 
d="M45 0v126h265q70 0 107.5 38t37.5 129q0 94 -42 138.5t-128 44.5h-90v-39q0 -40 9 -60t25.5 -27t37.5 -7q8 0 15.5 0.5t14.5 1.5v-126q-11 -1 -24.5 -2t-24.5 -1q-98 0 -150.5 55.5t-52.5 157.5v173h250q97 0 167 -36.5t108 -105t38 -164.5q0 -95 -37 -161t-104 -100.5
t-157 -34.5h-265z" />
    <glyph glyph-name="uni05E5" unicode="&#x5e5;" horiz-adv-x="543" 
d="M143 -240v464l-140 378h157l115 -329l27 8q31 10 46.5 35.5t19.5 75.5l20 210h150l-18 -196q-4 -45 -12 -82.5t-26.5 -68t-54 -54.5t-94.5 -42l-40 -12v-387h-150z" />
    <glyph glyph-name="uni05E6" unicode="&#x5e6;" horiz-adv-x="621" 
d="M32 0v127h331l-343 475h173l192 -278q22 21 31.5 60t9.5 92v126h150v-120q0 -95 -34.5 -161.5t-84.5 -98.5l91 -126v-96h-516z" />
    <glyph glyph-name="uni05E7" unicode="&#x5e7;" horiz-adv-x="680" 
d="M299 0l188 476h-412v126h575v-93l-194 -509h-157zM75 -240v612h150v-612h-150z" />
    <glyph glyph-name="uni05E8" unicode="&#x5e8;" horiz-adv-x="592" 
d="M367 0v374q0 56 -20.5 79t-66.5 23h-270v126h276q231 0 231 -211v-391h-150z" />
    <glyph glyph-name="uni05E9" unicode="&#x5e9;" horiz-adv-x="757" 
d="M91 0l-56 602h150l26 -271l33 10q33 11 46 39t20 83l16 139h150l-13 -125q-5 -43 -12.5 -80.5t-26 -68.5t-54 -55.5t-95.5 -42.5l-53 -16l8 -88h98q98 0 158 63.5t73 189.5l23 223h150l-22 -227q-12 -118 -60.5 -202t-130 -128.5t-191.5 -44.5h-237z" />
    <glyph glyph-name="uni05EA" unicode="&#x5ea;" horiz-adv-x="717" 
d="M30 0v126h67q15 0 24.5 10t9.5 29v311h-97v126h377q231 0 231 -211v-391h-150v374q0 56 -20 79t-67 23h-124v-294q0 -92 -39 -137t-121 -45h-91z" />
    <glyph glyph-name="uni05F0" unicode="&#x5f0;" horiz-adv-x="580" 
d="M360 0v602h150v-602h-150zM70 0v602h150v-602h-150z" />
    <glyph glyph-name="uni05F1" unicode="&#x5f1;" horiz-adv-x="595" 
d="M365 0v602h150v-602h-150zM70 213v389h150v-270l-75 -119h-75z" />
    <glyph glyph-name="uni05F2" unicode="&#x5f2;" horiz-adv-x="570" 
d="M355 213v389h150v-270l-75 -119h-75zM70 213v389h150v-270l-75 -119h-75z" />
    <glyph glyph-name="uni05F3" unicode="&#x5f3;" horiz-adv-x="217" 
d="M12 357q14 59 28 126t21 119h137l7 -11q-13 -53 -37 -116t-49 -118h-107z" />
    <glyph glyph-name="uni05F4" unicode="&#x5f4;" horiz-adv-x="445" 
d="M240 357q14 59 28 126t21 119h137l7 -11q-13 -53 -37 -116t-49 -118h-107zM12 357q14 59 28 126t21 119h137l7 -11q-13 -53 -37 -116t-49 -118h-107z" />
    <glyph glyph-name="uni200C" unicode="&#x200c;" 
d="M18 679v-724h-36v724h36z" />
    <glyph glyph-name="uni200D" unicode="&#x200d;" 
d="M18 -45h-36v578l-65 -66l-24 24l84 82l-84 82l24 24l83 -83l83 83l24 -24l-84 -82l84 -82l-24 -24l-65 66v-578z" />
    <glyph glyph-name="uni200E" unicode="&#x200e;" 
d="M210 574l-106 -104l-24 24l67 63h-130v-602h-35v637h165l-67 63l24 24z" />
    <glyph glyph-name="uni200F" unicode="&#x200f;" 
d="M17 -45h-35v602h-129l66 -63l-23 -24l-106 104l106 105l23 -24l-66 -63h164v-637z" />
    <glyph glyph-name="uni2010" unicode="&#x2010;" horiz-adv-x="322" 
d="M30 207v122h262v-122h-262z" />
    <glyph glyph-name="uni20AA" unicode="&#x20aa;" horiz-adv-x="879" 
d="M288 0v398h120v-271h59q61 0 98 7.5t56.5 28t26 60.5t6.5 106v273h150v-273q0 -123 -32 -195t-105.5 -103t-199.5 -31h-179zM80 0v602h275q231 0 231 -211v-187h-120v169q0 40 -13 62t-33 31t-41 9h-149v-475h-150z" />
    <glyph glyph-name="uni25CC" unicode="&#x25cc;" horiz-adv-x="594" 
d="M323 514q0 -27 -26 -27t-26 27q0 26 26 26t26 -26zM408 496q0 -26 -25 -26q-28 0 -28 26q0 27 28 27q25 0 25 -27zM239 496q0 -26 -27 -26q-26 0 -26 26q0 27 26 27q27 0 27 -27zM480 448q0 -26 -25 -26q-27 0 -27 26q0 27 27 27q25 0 25 -27zM167 448q0 -26 -27 -26
q-26 0 -26 25q0 28 26 28q27 0 27 -27zM529 376q0 -27 -27 -27q-26 0 -26 27q0 26 27 26q26 0 26 -26zM118 376q0 -27 -25 -27q-28 0 -28 27q0 26 27 26q26 0 26 -26zM546 291q0 -26 -25 -26q-27 0 -27 26t27 26q25 0 25 -26zM101 291q0 -26 -26 -26q-27 0 -27 26t27 26
q26 0 26 -26zM529 206q0 -26 -27 -26q-26 0 -26 26q0 27 26 27q27 0 27 -27zM118 206q0 -26 -26 -26q-27 0 -27 26q0 27 27 27q26 0 26 -27zM480 133q0 -26 -25 -26q-27 0 -27 26q0 27 27 27q25 0 25 -27zM167 133q0 -26 -27 -26q-26 0 -26 26q0 27 26 27q27 0 27 -27z
M408 85q0 -25 -25 -25q-28 0 -28 25q0 27 28 27q25 0 25 -27zM239 87q0 -27 -27 -27q-26 0 -26 25q0 27 26 27q27 0 27 -25zM323 69q0 -27 -26 -27t-26 27q0 26 26 26t26 -26z" />
    <glyph glyph-name="uniFB1D" unicode="&#xfb1d;" horiz-adv-x="285" 
d="M70 213v389h150v-270l-75 -119h-75zM111 63q-17 0 -29 9.5t-12 29.5t12 30t29 10t29.5 -10t12.5 -30t-12.5 -29.5t-29.5 -9.5z" />
    <glyph glyph-name="uniFB1E" unicode="&#xfb1e;" 
d="M261 767q0 -49 -28 -79t-78 -30q-49 0 -77 30t-28 79h50q0 -24 14.5 -40t40.5 -16q55 0 55 56h51z" />
    <glyph glyph-name="uniFB1F" unicode="&#xfb1f;" horiz-adv-x="570" 
d="M355 213v389h150v-270l-75 -119h-75zM70 213v389h150v-270l-75 -119h-75zM181 93v51h193v-51h-193z" />
    <glyph glyph-name="uniFB20" unicode="&#xfb20;" horiz-adv-x="620" 
d="M10 -67v145l155 53l-116 471h150l103 -424q37 15 58.5 30t33 36t17.5 53.5t11 80.5l23 224h150l-23 -227q-7 -69 -19 -119t-34.5 -85.5t-60 -61.5t-94.5 -47z" />
    <glyph glyph-name="uniFB21" unicode="&#xfb21;" horiz-adv-x="827" 
d="M67 0v168q0 91 34 162t102 98l-168 174h189l299 -329q37 14 53 57.5t16 109.5v162h150v-156q0 -91 -34 -162.5t-103 -96.5l187 -187h-187l-319 340q-34 -15 -51.5 -58t-17.5 -108v-174h-150z" />
    <glyph glyph-name="uniFB22" unicode="&#xfb22;" horiz-adv-x="713" 
d="M447 0v476h-437v126h678v-126h-91v-476h-150z" />
    <glyph glyph-name="uniFB23" unicode="&#xfb23;" horiz-adv-x="832" 
d="M607 0v374q0 56 -20.5 79t-66.5 23h-440v126h446q231 0 231 -211v-391h-150zM80 350h150v-350h-150v350z" />
    <glyph glyph-name="uniFB24" unicode="&#xfb24;" horiz-adv-x="720" 
d="M25 0v126h352q71 0 108 38t37 132q0 180 -170 180h-327v126h337q96 0 166.5 -37t108.5 -105t38 -161q0 -97 -37 -164t-103.5 -101t-157.5 -34h-352z" />
    <glyph glyph-name="uniFB25" unicode="&#xfb25;" horiz-adv-x="680" 
d="M299 0l188 476h-477v284h150v-158h490v-93l-194 -509h-157z" />
    <glyph glyph-name="uniFB26" unicode="&#xfb26;" horiz-adv-x="832" 
d="M65 0v602h461q231 0 231 -211v-391h-692zM215 127h392v246q0 56 -20.5 79t-66.5 23h-305v-348z" />
    <glyph glyph-name="uniFB27" unicode="&#xfb27;" horiz-adv-x="722" 
d="M497 0v374q0 56 -20.5 79t-66.5 23h-400v126h406q231 0 231 -211v-391h-150z" />
    <glyph glyph-name="uniFB28" unicode="&#xfb28;" horiz-adv-x="847" 
d="M30 0v126h67q15 0 24.5 10t9.5 29v311h-97v126h507q231 0 231 -211v-391h-150v374q0 56 -20 79t-67 23h-254v-294q0 -92 -39 -137t-121 -45h-91z" />
    <glyph glyph-name="uniFB29" unicode="&#xfb29;" horiz-adv-x="572" 
d="M339 436h189v-107h-485v107h189v190h107v-190z" />
    <glyph glyph-name="uniFB2A" unicode="&#xfb2a;" horiz-adv-x="757" 
d="M91 0l-56 602h150l26 -271l33 10q33 11 46 39t20 83l16 139h150l-13 -125q-5 -43 -12.5 -80.5t-26 -68.5t-54 -55.5t-95.5 -42.5l-53 -16l8 -88h98q98 0 158 63.5t73 189.5l23 223h150l-22 -227q-12 -118 -60.5 -202t-130 -128.5t-191.5 -44.5h-237zM656 662
q-17 0 -29 9.5t-12 29.5t12 30t29 10t29.5 -10t12.5 -30t-12.5 -29.5t-29.5 -9.5z" />
    <glyph glyph-name="uniFB2B" unicode="&#xfb2b;" horiz-adv-x="757" 
d="M91 0l-56 602h150l26 -271l33 10q33 11 46 39t20 83l16 139h150l-13 -125q-5 -43 -12.5 -80.5t-26 -68.5t-54 -55.5t-95.5 -42.5l-53 -16l8 -88h98q98 0 158 63.5t73 189.5l23 223h150l-22 -227q-12 -118 -60.5 -202t-130 -128.5t-191.5 -44.5h-237zM109 662
q-17 0 -29 9.5t-12 29.5t12 30t29 10t29.5 -10t12.5 -30t-12.5 -29.5t-29.5 -9.5z" />
    <glyph glyph-name="uniFB2C" unicode="&#xfb2c;" horiz-adv-x="757" 
d="M91 0l-56 602h150l26 -271l33 10q33 11 46 39t20 83l16 139h150l-13 -125q-5 -43 -12.5 -80.5t-26 -68.5t-54 -55.5t-95.5 -42.5l-53 -16l8 -88h98q98 0 158 63.5t73 189.5l23 223h150l-22 -227q-12 -118 -60.5 -202t-130 -128.5t-191.5 -44.5h-237zM391 235q0 20 12 30
t30 10q17 0 29.5 -10t12.5 -30t-12.5 -30t-29.5 -10q-18 0 -30 10t-12 30zM656 662q-17 0 -29 9.5t-12 29.5t12 30t29 10t29.5 -10t12.5 -30t-12.5 -29.5t-29.5 -9.5z" />
    <glyph glyph-name="uniFB2D" unicode="&#xfb2d;" horiz-adv-x="757" 
d="M91 0l-56 602h150l26 -271l33 10q33 11 46 39t20 83l16 139h150l-13 -125q-5 -43 -12.5 -80.5t-26 -68.5t-54 -55.5t-95.5 -42.5l-53 -16l8 -88h98q98 0 158 63.5t73 189.5l23 223h150l-22 -227q-12 -118 -60.5 -202t-130 -128.5t-191.5 -44.5h-237zM391 235q0 20 12 30
t30 10q17 0 29.5 -10t12.5 -30t-12.5 -30t-29.5 -10q-18 0 -30 10t-12 30zM109 662q-17 0 -29 9.5t-12 29.5t12 30t29 10t29.5 -10t12.5 -30t-12.5 -29.5t-29.5 -9.5z" />
    <glyph glyph-name="uniFB2E" unicode="&#xfb2e;" horiz-adv-x="682" 
d="M64 0v168q0 82 28 149t84 99l-136 186h172l211 -307q19 21 28 58t9 87v162h150v-156q0 -84 -29 -151.5t-87 -98.5l148 -196h-172l-221 314q-35 -45 -35 -140v-174h-150zM245 -134v51h193v-51h-193z" />
    <glyph glyph-name="uniFB2F" unicode="&#xfb2f;" horiz-adv-x="682" 
d="M64 0v168q0 82 28 149t84 99l-136 186h172l211 -307q19 21 28 58t9 87v162h150v-156q0 -84 -29 -151.5t-87 -98.5l148 -196h-172l-221 314q-35 -45 -35 -140v-174h-150zM316 -240v106h-71v51h193v-51h-71v-106h-51z" />
    <glyph glyph-name="uniFB30" unicode="&#xfb30;" horiz-adv-x="682" 
d="M64 0v168q0 82 28 149t84 99l-136 186h172l211 -307q19 21 28 58t9 87v162h150v-156q0 -84 -29 -151.5t-87 -98.5l148 -196h-172l-221 314q-35 -45 -35 -140v-174h-150zM246 131q0 20 12 30t30 10q17 0 29.5 -10t12.5 -30t-12.5 -30t-29.5 -10q-18 0 -30 10t-12 30z" />
    <glyph glyph-name="uniFB31" unicode="&#xfb31;" horiz-adv-x="592" 
d="M25 0v126h319v248q0 56 -20 79t-67 23h-232v126h238q231 0 231 -211v-265h78v-126h-547zM143 303q0 20 12 30t30 10q17 0 29.5 -10t12.5 -30t-12.5 -30t-29.5 -10q-18 0 -30 10t-12 30z" />
    <glyph glyph-name="uniFB32" unicode="&#xfb32;" horiz-adv-x="400" 
d="M10 -10v133q40 8 73.5 27.5t58.5 45.5q28 29 44 64t16 72v93q0 25 -10 38t-36 13h-108v126h152q76 0 113.5 -42t37.5 -116v-242l24 -202h-133l-28 129h-4q-38 -49 -89.5 -85.5t-110.5 -53.5zM64 332q0 20 12 30t30 10q17 0 29.5 -10t12.5 -30t-12.5 -30t-29.5 -10
q-18 0 -30 10t-12 30z" />
    <glyph glyph-name="uniFB33" unicode="&#xfb33;" horiz-adv-x="578" 
d="M317 0v476h-307v126h548v-126h-91v-476h-150zM122 303q0 20 12 30t30 10q17 0 29.5 -10t12.5 -30t-12.5 -30t-29.5 -10q-18 0 -30 10t-12 30z" />
    <glyph glyph-name="uniFB34" unicode="&#xfb34;" horiz-adv-x="702" 
d="M477 0v374q0 56 -20.5 79t-66.5 23h-310v126h316q231 0 231 -211v-391h-150zM80 0v350h150v-350h-150zM312 303q0 20 12 30t30 10q17 0 29.5 -10t12.5 -30t-12.5 -30t-29.5 -10q-18 0 -30 10t-12 30z" />
    <glyph glyph-name="uniFB35" unicode="&#xfb35;" horiz-adv-x="310" 
d="M80 0v602h150v-602h-150zM-32 303q0 20 12 30t30 10q17 0 29.5 -10t12.5 -30t-12.5 -30t-29.5 -10q-18 0 -30 10t-12 30z" />
    <glyph glyph-name="uniFB36" unicode="&#xfb36;" horiz-adv-x="350" 
d="M94 0v307q0 108 76 166v3h-150v126h310v-98q-16 -13 -36 -30.5t-35 -47.5t-15 -78v-348h-150zM-32 303q0 20 12 30t30 10q17 0 29.5 -10t12.5 -30t-12.5 -30t-29.5 -10q-18 0 -30 10t-12 30z" />
    <glyph glyph-name="uniFB38" unicode="&#xfb38;" horiz-adv-x="724" 
d="M375 -12q-305 0 -305 331v283h150v-283q0 -107 39 -158t117 -51q86 0 117 52.5t31 156.5q0 95 -23.5 130t-65.5 35q-33 0 -62.5 -6.5t-58.5 -18.5v126q26 8 65 17.5t85 9.5q70 0 112.5 -26t64.5 -68t30 -92t8 -98q0 -127 -36 -201.5t-104 -106.5t-164 -32zM330 303
q0 20 12 30t30 10q17 0 29.5 -10t12.5 -30t-12.5 -30t-29.5 -10q-18 0 -30 10t-12 30z" />
    <glyph glyph-name="uniFB39" unicode="&#xfb39;" horiz-adv-x="285" 
d="M70 213v389h150v-270l-75 -119h-75zM-42 421q0 20 12 30t30 10q17 0 29.5 -10t12.5 -30t-12.5 -30t-29.5 -10q-18 0 -30 10t-12 30z" />
    <glyph glyph-name="uniFB3A" unicode="&#xfb3a;" horiz-adv-x="595" 
d="M376 -240v517q0 107 -46.5 152.5t-154.5 45.5h-165v127h177q169 0 256 -82t87 -243v-517h-154zM151 303q0 20 12 30t30 10q17 0 29.5 -10t12.5 -30t-12.5 -30t-29.5 -10q-18 0 -30 10t-12 30z" />
    <glyph glyph-name="uniFB3B" unicode="&#xfb3b;" horiz-adv-x="590" 
d="M25 0v126h197q78 0 124 38t46 132q0 92 -46 136t-124 44h-197v126h207q96 0 166.5 -37t108.5 -105t38 -161q0 -146 -83 -222.5t-230 -76.5h-207zM167 303q0 20 12 30t30 10q17 0 29.5 -10t12.5 -30t-12.5 -30t-29.5 -10q-18 0 -30 10t-12 30z" />
    <glyph glyph-name="uniFB3C" unicode="&#xfb3c;" horiz-adv-x="565" 
d="M165 602h370v-92l-194 -510h-157l188 476h-357v284h150v-158zM114 303q0 20 12 30t30 10q17 0 29.5 -10t12.5 -30t-12.5 -30t-29.5 -10q-18 0 -30 10t-12 30z" />
    <glyph glyph-name="uniFB3E" unicode="&#xfb3e;" horiz-adv-x="698" 
d="M408 612q66 0 114 -29t74.5 -82t26.5 -124v-377h-320v126h170v237q0 116 -101 116q-61 0 -95 -43.5t-45 -134.5l-37 -301h-150l47 385l-45 217h150l18 -98h4q15 21 38 46.5t59 43.5t92 18zM311 303q0 20 12 30t30 10q17 0 29.5 -10t12.5 -30t-12.5 -30t-29.5 -10
q-18 0 -30 10t-12 30z" />
    <glyph glyph-name="uniFB40" unicode="&#xfb40;" horiz-adv-x="437" 
d="M25 0v127h187v298q0 25 -10 38t-36 13h-108v126h152q73 0 112.5 -41t39.5 -117v-444h-337zM77 303q0 20 12 30t30 10q17 0 29.5 -10t12.5 -30t-12.5 -30t-29.5 -10q-18 0 -30 10t-12 30z" />
    <glyph glyph-name="uniFB41" unicode="&#xfb41;" horiz-adv-x="731" 
d="M380 -13q-94 0 -163 38.5t-106 109.5t-37 170q0 44 7 88.5t16 82.5h-67v126h346q146 0 228 -81t82 -223q0 -96 -37 -165.5t-106 -107.5t-163 -38zM376 108q157 0 157 191q0 95 -41 136t-132 41h-111q-7 -25 -14.5 -66.5t-7.5 -97.5q0 -106 36.5 -155t112.5 -49zM338 303
q0 20 12 30t30 10q17 0 29.5 -10t12.5 -30t-12.5 -30t-29.5 -10q-18 0 -30 10t-12 30z" />
    <glyph glyph-name="uniFB43" unicode="&#xfb43;" horiz-adv-x="633" 
d="M208 216q-98 0 -150.5 55.5t-52.5 157.5v173h250q97 0 167 -38.5t108 -109t38 -167.5v-527h-150v524q0 191 -173 191h-90v-38q0 -55 18 -74.5t52 -19.5q7 0 16 0.5t16 1.5v-126q-11 -1 -24.5 -2t-24.5 -1zM294 282q0 20 12 30t30 10q17 0 29.5 -10t12.5 -30t-12.5 -30
t-29.5 -10q-18 0 -30 10t-12 30z" />
    <glyph glyph-name="uniFB44" unicode="&#xfb44;" horiz-adv-x="653" 
d="M45 0v126h265q70 0 107.5 38t37.5 129q0 94 -42 138.5t-128 44.5h-90v-39q0 -40 9 -60t25.5 -27t37.5 -7q8 0 15.5 0.5t14.5 1.5v-126q-11 -1 -24.5 -2t-24.5 -1q-98 0 -150.5 55.5t-52.5 157.5v173h250q97 0 167 -36.5t108 -105t38 -164.5q0 -95 -37 -161t-104 -100.5
t-157 -34.5h-265zM334 282q0 20 12 30t30 10q17 0 29.5 -10t12.5 -30t-12.5 -30t-29.5 -10q-18 0 -30 10t-12 30z" />
    <glyph glyph-name="uniFB46" unicode="&#xfb46;" horiz-adv-x="621" 
d="M32 0v127h331l-343 475h173l192 -278q22 21 31.5 60t9.5 92v126h150v-120q0 -95 -34.5 -161.5t-84.5 -98.5l91 -126v-96h-516zM53 273q0 20 12 30t30 10q17 0 29.5 -10t12.5 -30t-12.5 -30t-29.5 -10q-18 0 -30 10t-12 30z" />
    <glyph glyph-name="uniFB47" unicode="&#xfb47;" horiz-adv-x="680" 
d="M299 0l188 476h-412v126h575v-93l-194 -509h-157zM75 -240v612h150v-612h-150zM269 303q0 20 12 30t30 10q17 0 29.5 -10t12.5 -30t-12.5 -30t-29.5 -10q-18 0 -30 10t-12 30z" />
    <glyph glyph-name="uniFB48" unicode="&#xfb48;" horiz-adv-x="592" 
d="M367 0v374q0 56 -20.5 79t-66.5 23h-270v126h276q231 0 231 -211v-391h-150zM147 303q0 20 12 30t30 10q17 0 29.5 -10t12.5 -30t-12.5 -30t-29.5 -10q-18 0 -30 10t-12 30z" />
    <glyph glyph-name="uniFB49" unicode="&#xfb49;" horiz-adv-x="757" 
d="M91 0l-56 602h150l26 -271l33 10q33 11 46 39t20 83l16 139h150l-13 -125q-5 -43 -12.5 -80.5t-26 -68.5t-54 -55.5t-95.5 -42.5l-53 -16l8 -88h98q98 0 158 63.5t73 189.5l23 223h150l-22 -227q-12 -118 -60.5 -202t-130 -128.5t-191.5 -44.5h-237zM391 235q0 20 12 30
t30 10q17 0 29.5 -10t12.5 -30t-12.5 -30t-29.5 -10q-18 0 -30 10t-12 30z" />
    <glyph glyph-name="uniFB4A" unicode="&#xfb4a;" horiz-adv-x="717" 
d="M30 0v126h67q15 0 24.5 10t9.5 29v311h-97v126h377q231 0 231 -211v-391h-150v374q0 56 -20 79t-67 23h-124v-294q0 -92 -39 -137t-121 -45h-91zM345 303q0 20 12 30t30 10q17 0 29.5 -10t12.5 -30t-12.5 -30t-29.5 -10q-18 0 -30 10t-12 30z" />
    <glyph glyph-name="uniFB4B" unicode="&#xfb4b;" horiz-adv-x="310" 
d="M80 0v602h150v-602h-150zM154 662q-17 0 -29 9.5t-12 29.5t12 30t29 10t29.5 -10t12.5 -30t-12.5 -29.5t-29.5 -9.5z" />
    <glyph glyph-name="uniFB4C" unicode="&#xfb4c;" horiz-adv-x="592" 
d="M25 0v126h319v248q0 56 -20 79t-67 23h-232v126h238q231 0 231 -211v-265h78v-126h-547zM113 676v51h200v-51h-200z" />
    <glyph glyph-name="uniFB4D" unicode="&#xfb4d;" horiz-adv-x="590" 
d="M25 0v126h197q78 0 124 38t46 132q0 92 -46 136t-124 44h-197v126h207q96 0 166.5 -37t108.5 -105t38 -161q0 -146 -83 -222.5t-230 -76.5h-207zM109 676v51h200v-51h-200z" />
    <glyph glyph-name="uniFB4E" unicode="&#xfb4e;" horiz-adv-x="653" 
d="M45 0v126h265q70 0 107.5 38t37.5 129q0 94 -42 138.5t-128 44.5h-90v-39q0 -40 9 -60t25.5 -27t37.5 -7q8 0 15.5 0.5t14.5 1.5v-126q-11 -1 -24.5 -2t-24.5 -1q-98 0 -150.5 55.5t-52.5 157.5v173h250q97 0 167 -36.5t108 -105t38 -164.5q0 -95 -37 -161t-104 -100.5
t-157 -34.5h-265zM186 676v51h200v-51h-200z" />
    <glyph glyph-name="uniFB4F" unicode="&#xfb4f;" horiz-adv-x="692" 
d="M5 476v284h150v-158h72l216 -302q17 22 24.5 56.5t7.5 79.5v166h150v-166q0 -79 -27.5 -142.5t-82.5 -94.5l142 -199h-172l-340 476h-140z" />
    <glyph glyph-name="judeospanishvarika-hb" horiz-adv-x="600" 
d="M94 0v714h411v-714h-411zM145 51h309v612h-309v-612z" />
    <glyph glyph-name="hatafsegol_zerowidthjoiner_siluqleft-hb" horiz-adv-x="488" 
d="M278 -252v183h51v-183h-51zM91 -148q-17 0 -29 9.5t-12 29.5t12 30t29 10t29.5 -10t12.5 -30t-12.5 -29.5t-29.5 -9.5zM210 -148q-17 0 -29 9.5t-12 29.5t12 30t29 10t29.5 -10t12.5 -30t-12.5 -29.5t-29.5 -9.5zM396 -148q-17 0 -29 9.5t-12 29.5t12 30t29 10t29.5 -10
t12.5 -30t-12.5 -29.5t-29.5 -9.5zM151 -252q-17 0 -29 9.5t-12 30.5q0 20 12 29t29 9t29.5 -9t12.5 -29q0 -21 -12.5 -30.5t-29.5 -9.5zM396 -252q-17 0 -29 9.5t-12 30.5q0 20 12 29t29 9t29.5 -9t12.5 -29q0 -21 -12.5 -30.5t-29.5 -9.5z" />
    <glyph glyph-name="hatafpatah_zerowidthjoiner_siluqleft-hb" horiz-adv-x="480" 
d="M270 -252v183h51v-183h-51zM388 -148q-17 0 -29 9.5t-12 29.5t12 30t29 10t29.5 -10t12.5 -30t-12.5 -29.5t-29.5 -9.5zM50 -134v51h193v-51h-193zM388 -252q-17 0 -29 9.5t-12 30.5q0 20 12 29t29 9t29.5 -9t12.5 -29q0 -21 -12.5 -30.5t-29.5 -9.5z" />
    <glyph glyph-name="hatafqamats_zerowidthjoiner_siluqleft-hb" horiz-adv-x="480" 
d="M270 -252v183h51v-183h-51zM388 -148q-17 0 -29 9.5t-12 29.5t12 30t29 10t29.5 -10t12.5 -30t-12.5 -29.5t-29.5 -9.5zM121 -240v106h-71v51h193v-51h-71v-106h-51zM388 -252q-17 0 -29 9.5t-12 30.5q0 20 12 29t29 9t29.5 -9t12.5 -29q0 -21 -12.5 -30.5t-29.5 -9.5z
" />
  </font>
</defs>
</svg>
