<?xml version="1.0" standalone="no"?>
<!DOCTYPE svg PUBLIC "-//W3C//DTD SVG 1.1//EN" "http://www.w3.org/Graphics/SVG/1.1/DTD/svg11.dtd" >
<svg xmlns="http://www.w3.org/2000/svg" xmlns:xlink="http://www.w3.org/1999/xlink" version="1.1">
<metadata>
Created by FontForge 20170731 at Wed Sep 20 01:00:14 2017
 By Aleksey,,,
Copyright 2015 Google Inc. All Rights Reserved.
</metadata>
<defs>
<font id="NotoSansHebrew-SemiBold" horiz-adv-x="0" >
  <font-face 
    font-family="Noto Sans Hebrew SemBd"
    font-weight="600"
    font-stretch="normal"
    units-per-em="1000"
    panose-1="2 11 7 2 4 5 4 2 2 4"
    ascent="800"
    descent="-200"
    bbox="-210 -252 769 869"
    underline-thickness="50"
    underline-position="-175"
    unicode-range="U+000D-FB4F"
  />
<missing-glyph horiz-adv-x="364" 
d="M33 0v666h265v-666h-265zM66 33h199v600h-199v-600z" />
    <glyph glyph-name=".notdef" horiz-adv-x="364" 
d="M33 0v666h265v-666h-265zM66 33h199v600h-199v-600z" />
    <glyph glyph-name=".null" 
 />
    <glyph glyph-name="nonmarkingreturn" horiz-adv-x="333" 
 />
    <glyph glyph-name="NULL" 
 />
    <glyph glyph-name="NULL" 
 />
    <glyph glyph-name="CR" unicode="&#xd;" horiz-adv-x="260" 
 />
    <glyph glyph-name="space" unicode=" " horiz-adv-x="260" 
 />
    <glyph glyph-name="hyphen" unicode="-" horiz-adv-x="322" 
d="M34 215v106h254v-106h-254z" />
    <glyph glyph-name="uni00A0" unicode="&#xa0;" horiz-adv-x="260" 
 />
    <glyph glyph-name="uni0591" unicode="&#x591;" 
d="M50 -236v23q0 41 16 61.5t47 25.5v43h48v-43q33 -5 48.5 -25.5t15.5 -61.5v-23h-47v22q0 25 -9 35.5t-31 10.5q-23 0 -32.5 -10.5t-9.5 -35.5v-22h-46z" />
    <glyph glyph-name="uni0592" unicode="&#x592;" 
d="M145 767q-17 0 -27.5 9.5t-10.5 28.5q0 20 10.5 29.5t27.5 9.5t28 -9.5t11 -29.5q0 -19 -11 -28.5t-28 -9.5zM85 661q-17 0 -27.5 9.5t-10.5 29.5t10.5 29.5t27.5 9.5t28 -9.5t11 -29.5t-11 -29.5t-28 -9.5zM205 661q-17 0 -27.5 9.5t-10.5 29.5t10.5 29.5t27.5 9.5
t28 -9.5t11 -29.5t-11 -29.5t-28 -9.5z" />
    <glyph glyph-name="uni0593" unicode="&#x593;" 
d="M50 659l76 42l-76 42l76 42l-76 42l76 42h68l-76 -42l76 -42l-76 -42l76 -42l-86 -42h-58z" />
    <glyph glyph-name="uni0594" unicode="&#x594;" 
d="M89 766q-17 0 -27.5 9.5t-10.5 29.5q0 19 10.5 29t27.5 10t28 -10t11 -29q0 -20 -11 -29.5t-28 -9.5zM88 661q-16 0 -27 9.5t-11 29.5t11 29t27 9t27.5 -9t11.5 -29t-11.5 -29.5t-27.5 -9.5z" />
    <glyph glyph-name="uni0595" unicode="&#x595;" 
d="M50 661v183h50v-183h-50zM182 766q-16 0 -27 9.5t-11 29.5q0 19 11 29t27 10t27.5 -10t11.5 -29q0 -20 -11.5 -29.5t-27.5 -9.5zM181 661q-16 0 -27 9.5t-11 29.5t11 29t27 9q17 0 28 -9t11 -29t-11 -29.5t-28 -9.5z" />
    <glyph glyph-name="uni0596" unicode="&#x596;" 
d="M200 -223q-71 0 -110.5 37t-39.5 103h50q0 -43 27 -67t73 -24v-49z" />
    <glyph glyph-name="uni0597" unicode="&#x597;" 
d="M120 650l-70 77l70 78l70 -78z" />
    <glyph glyph-name="uni0598" unicode="&#x598;" 
d="M100 650q-50 17 -50 73q0 30 19 49t49 19q22 0 40 -12.5t43 -46.5q19 -26 31.5 -37t27.5 -11q13 0 21.5 9t8.5 26q0 29 -27 39l13 34q50 -20 50 -73q0 -31 -19 -49.5t-47 -18.5q-23 0 -42 12.5t-43 45.5q-21 29 -32 39t-27 10q-13 0 -21.5 -9t-8.5 -26q0 -28 27 -40z" />
    <glyph glyph-name="uni0599" unicode="&#x599;" 
d="M150 650q0 43 -26 67t-74 24v50q70 0 110 -36.5t40 -104.5h-50z" />
    <glyph glyph-name="uni059A" unicode="&#x59a;" 
d="M133 -249l-83 83l83 83h66l-83 -83l83 -83h-66z" />
    <glyph glyph-name="uni059B" unicode="&#x59b;" 
d="M86 -126q-15 0 -25.5 10.5t-10.5 26.5q0 15 10.5 26t25.5 11q16 0 26.5 -10.5t10.5 -26.5t-10.5 -26.5t-26.5 -10.5zM67 -223v49q47 0 74 24t27 67h50q0 -65 -39 -102.5t-112 -37.5z" />
    <glyph glyph-name="uni059C" unicode="&#x59c;" 
d="M50 650q0 67 40 104t110 37v-50q-46 0 -73 -23.5t-27 -67.5h-50z" />
    <glyph glyph-name="uni059D" unicode="&#x59d;" 
d="M50 650q0 67 40 104t110 37v-50q-46 0 -73 -23.5t-27 -67.5h-50z" />
    <glyph glyph-name="uni059E" unicode="&#x59e;" 
d="M201 650q0 67 40.5 104t110.5 37v-50q-46 0 -73 -23.5t-27 -67.5h-51zM50 650q0 66 39.5 103.5t111.5 37.5v-50q-47 0 -73.5 -23.5t-26.5 -67.5h-51z" />
    <glyph glyph-name="uni059F" unicode="&#x59f;" 
d="M326 650l-36 36l39 39q-13 21 -13 46q0 39 27.5 66t66.5 27t66.5 -26.5t27.5 -66.5q0 -39 -27 -66t-67 -27q-26 0 -46 10zM228 650l-38 38q-20 -10 -46 -10q-40 0 -67 27t-27 66t27.5 66t66.5 27t66.5 -27t27.5 -66q0 -25 -13 -46l39 -39zM145 724q19 0 32.5 14t13.5 33
t-14 33t-32 14q-19 0 -33.5 -14t-14.5 -33t14.5 -33t33.5 -14zM409 724q19 0 33.5 14t14.5 33t-14.5 33t-33.5 14q-18 0 -32 -14t-14 -33t13.5 -33t32.5 -14z" />
    <glyph glyph-name="uni05A0" unicode="&#x5a0;" 
d="M86 650l-36 36l39 39q-13 21 -13 46q0 39 27.5 66t66.5 27t66.5 -26.5t27.5 -66.5q0 -39 -27 -66t-67 -27q-26 0 -46 10zM169 724q19 0 33.5 14t14.5 33t-14.5 33t-33.5 14q-18 0 -32 -14t-14 -33t13.5 -33t32.5 -14z" />
    <glyph glyph-name="uni05A1" unicode="&#x5a1;" 
d="M50 650v153h46v-63q6 -6 20 -6q22 0 30.5 10t8.5 36v23h47v-23q0 -40 -20 -64t-60 -24q-8 0 -14.5 1t-11.5 4v-47h-46z" />
    <glyph glyph-name="uni05A2" unicode="&#x5a2;" 
d="M113 -236v42q-30 4 -46.5 25.5t-16.5 62.5v23h46v-23q0 -24 9.5 -35t32.5 -11q22 0 31 11t9 35v23h47v-23q0 -41 -16.5 -62t-47.5 -26v-42h-48z" />
    <glyph glyph-name="uni05A3" unicode="&#x5a3;" 
d="M50 -228v49h100v95h50v-144h-150z" />
    <glyph glyph-name="uni05A4" unicode="&#x5a4;" 
d="M133 -249l-83 83l83 83h67l-83 -83l83 -83h-67z" />
    <glyph glyph-name="uni05A5" unicode="&#x5a5;" 
d="M50 -223v49q46 0 73 24.5t27 66.5h50q0 -66 -39 -103t-111 -37z" />
    <glyph glyph-name="uni05A6" unicode="&#x5a6;" 
d="M201 -223v49q47 0 73.5 24.5t26.5 66.5h51q0 -65 -39 -102.5t-112 -37.5zM50 -223v49q47 0 73.5 24.5t26.5 66.5h51q0 -66 -39.5 -103t-111.5 -37z" />
    <glyph glyph-name="uni05A7" unicode="&#x5a7;" 
d="M64 -240v37l65 10l-79 103l132 24v-35l-66 -12l79 -103z" />
    <glyph glyph-name="uni05A8" unicode="&#x5a8;" 
d="M150 650q0 43 -26 67t-74 24v50q70 0 110 -36.5t40 -104.5h-50z" />
    <glyph glyph-name="uni05A9" unicode="&#x5a9;" 
d="M228 650l-38 38q-20 -10 -46 -10q-40 0 -67 27t-27 66t27.5 66t66.5 27t66.5 -27t27.5 -66q0 -25 -13 -46l39 -39zM145 724q19 0 32.5 14t13.5 33t-14 33t-32 14q-19 0 -33.5 -14t-14.5 -33t14.5 -33t33.5 -14z" />
    <glyph glyph-name="uni05AA" unicode="&#x5aa;" 
d="M113 -236v42q-30 4 -46.5 25.5t-16.5 62.5v23h46v-23q0 -24 9.5 -35t32.5 -11q22 0 31 11t9 35v23h47v-23q0 -41 -16.5 -62t-47.5 -26v-42h-48z" />
    <glyph glyph-name="uni05AB" unicode="&#x5ab;" 
d="M133 650l-83 83l83 83h67l-83 -83l83 -83h-67z" />
    <glyph glyph-name="uni05AC" unicode="&#x5ac;" 
d="M50 650v49h100v95h50v-144h-150z" />
    <glyph glyph-name="uni05AD" unicode="&#x5ad;" 
d="M200 -229q-71 0 -110.5 37t-39.5 103h50q0 -43 27 -67t73 -24v-49z" />
    <glyph glyph-name="uni05AE" unicode="&#x5ae;" 
d="M100 650q-50 17 -50 73q0 30 19 49t49 19q22 0 40 -12.5t43 -46.5q19 -26 31.5 -37t27.5 -11q13 0 21.5 9t8.5 26q0 29 -27 39l13 34q50 -20 50 -73q0 -31 -19 -49.5t-47 -18.5q-23 0 -42 12.5t-43 45.5q-21 29 -32 39t-27 10q-13 0 -21.5 -9t-8.5 -26q0 -28 27 -40z" />
    <glyph glyph-name="uni05AF" unicode="&#x5af;" 
d="M142 650q-39 0 -65.5 27t-26.5 65t27 65t65 27t65 -27t27 -65t-26.5 -65t-65.5 -27zM142 693q20 0 34.5 14.5t14.5 34.5t-14.5 34.5t-34.5 14.5t-34.5 -14.5t-14.5 -34.5t14.5 -34.5t34.5 -14.5z" />
    <glyph glyph-name="uni05B0" unicode="&#x5b0;" 
d="M89 -147q-17 0 -27.5 9.5t-10.5 29.5t10.5 29.5t27.5 9.5t28 -9.5t11 -29.5t-11 -29.5t-28 -9.5zM88 -252q-16 0 -27 9.5t-11 29.5q0 19 11 28.5t27 9.5t27.5 -9.5t11.5 -28.5q0 -20 -11.5 -29.5t-27.5 -9.5z" />
    <glyph glyph-name="uni05B1" unicode="&#x5b1;" 
d="M88 -147q-16 0 -27 9.5t-11 29.5t11 29.5t27 9.5t27.5 -9.5t11.5 -29.5t-11.5 -29.5t-27.5 -9.5zM208 -147q-16 0 -27 9.5t-11 29.5t11 29.5t27 9.5t27.5 -9.5t11.5 -29.5t-11.5 -29.5t-27.5 -9.5zM313 -147q-17 0 -27.5 9.5t-10.5 29.5t10.5 29.5t27.5 9.5
q16 0 27.5 -9.5t11.5 -29.5t-11.5 -29.5t-27.5 -9.5zM313 -252q-17 0 -27.5 9.5t-10.5 29.5q0 19 10.5 28.5t27.5 9.5t28 -9.5t11 -28.5q0 -20 -11 -29.5t-28 -9.5zM148 -252q-16 0 -27 9.5t-11 29.5q0 19 11 28.5t27 9.5t27.5 -9.5t11.5 -28.5q0 -20 -11.5 -29.5
t-27.5 -9.5z" />
    <glyph glyph-name="uni05B2" unicode="&#x5b2;" 
d="M304 -147q-16 0 -27 9.5t-11 29.5t11 29.5t27 9.5t27.5 -9.5t11.5 -29.5t-11.5 -29.5t-27.5 -9.5zM50 -133v50h187v-50h-187zM304 -252q-16 0 -27.5 9.5t-11.5 29.5q0 19 11.5 28.5t27.5 9.5t27.5 -9.5t11.5 -28.5q0 -20 -11.5 -29.5t-27.5 -9.5z" />
    <glyph glyph-name="uni05B3" unicode="&#x5b3;" 
d="M304 -147q-16 0 -27 9.5t-11 29.5t11 29.5t27 9.5t27.5 -9.5t11.5 -29.5t-11.5 -29.5t-27.5 -9.5zM119 -239v106h-69v50h187v-50h-68v-106h-50zM304 -252q-16 0 -27.5 9.5t-11.5 29.5q0 19 11.5 28.5t27.5 9.5t27.5 -9.5t11.5 -28.5q0 -20 -11.5 -29.5t-27.5 -9.5z" />
    <glyph glyph-name="uni05B4" unicode="&#x5b4;" 
d="M88 -147q-16 0 -27 9.5t-11 29.5t11 29.5t27 9.5t27.5 -9.5t11.5 -29.5t-11.5 -29.5t-27.5 -9.5z" />
    <glyph glyph-name="uni05B5" unicode="&#x5b5;" 
d="M95 -148q-17 0 -28 10t-11 29q0 20 11 30t28 10t28 -10t11 -30q0 -19 -11 -29t-28 -10zM214 -148q-16 0 -27 9.5t-11 29.5q0 19 11 29t27 10t27.5 -10t11.5 -29t-11.5 -29t-27.5 -10z" />
    <glyph glyph-name="uni05B6" unicode="&#x5b6;" 
d="M208 -147q-16 0 -27 9.5t-11 29.5t11 29.5t27 9.5t27.5 -9.5t11.5 -29.5t-11.5 -29.5t-27.5 -9.5zM88 -147q-16 0 -27 9.5t-11 29.5t11 29.5t27 9.5t27.5 -9.5t11.5 -29.5t-11.5 -29.5t-27.5 -9.5zM148 -252q-16 0 -27 9.5t-11 29.5q0 19 11 28.5t27 9.5t27.5 -9.5
t11.5 -28.5q0 -20 -11.5 -29.5t-27.5 -9.5z" />
    <glyph glyph-name="uni05B7" unicode="&#x5b7;" 
d="M50 -133v50h187v-50h-187z" />
    <glyph glyph-name="uni05B8" unicode="&#x5b8;" 
d="M119 -230v97h-69v50h187v-50h-68v-97h-50z" />
    <glyph glyph-name="uni05B9" unicode="&#x5b9;" 
d="M88 661q-16 0 -27 9.5t-11 29.5t11 29.5t27 9.5t27.5 -9.5t11.5 -29.5t-11.5 -29.5t-27.5 -9.5z" />
    <glyph glyph-name="uni05BA" unicode="&#x5ba;" 
d="M88 661q-16 0 -27 9.5t-11 29.5t11 29.5t27 9.5t27.5 -9.5t11.5 -29.5t-11.5 -29.5t-27.5 -9.5z" />
    <glyph glyph-name="uni05BB" unicode="&#x5bb;" 
d="M88 -147q-16 0 -27 9.5t-11 29.5t11 29.5t27 9.5t27.5 -9.5t11.5 -29.5t-11.5 -29.5t-27.5 -9.5zM176 -200q-16 0 -27.5 9.5t-11.5 30.5q0 19 11.5 28t27.5 9t27.5 -9t11.5 -28q0 -21 -11.5 -30.5t-27.5 -9.5zM264 -252q-16 0 -27 9.5t-11 29.5q0 19 11 28.5t27 9.5
t27.5 -9.5t11.5 -28.5q0 -20 -11.5 -29.5t-27.5 -9.5z" />
    <glyph glyph-name="uni05BC" unicode="&#x5bc;" 
d="M50 302q0 20 11 29.5t28 9.5q16 0 27.5 -9.5t11.5 -29.5t-11.5 -29.5t-27.5 -9.5q-17 0 -28 9.5t-11 29.5z" />
    <glyph glyph-name="uni05BD" unicode="&#x5bd;" 
d="M50 -252v183h49v-183h-49z" />
    <glyph glyph-name="uni05BE" unicode="&#x5be;" horiz-adv-x="312" 
d="M24 493v105h254v-105h-254z" />
    <glyph glyph-name="uni05BF" unicode="&#x5bf;" 
d="M50 675v50h199v-50h-199z" />
    <glyph glyph-name="uni05C0" unicode="&#x5c0;" horiz-adv-x="551" 
d="M228 758h95v-990h-95v990z" />
    <glyph glyph-name="uni05C1" unicode="&#x5c1;" 
d="M88 661q-16 0 -27 9.5t-11 29.5t11 29.5t27 9.5t27.5 -9.5t11.5 -29.5t-11.5 -29.5t-27.5 -9.5z" />
    <glyph glyph-name="uni05C2" unicode="&#x5c2;" 
d="M88 661q-16 0 -27 9.5t-11 29.5t11 29.5t27 9.5t27.5 -9.5t11.5 -29.5t-11.5 -29.5t-27.5 -9.5z" />
    <glyph glyph-name="uni05C3" unicode="&#x5c3;" horiz-adv-x="279" 
d="M63 476q0 43 22.5 60.5t53.5 17.5t54 -17.5t23 -60.5q0 -40 -23 -58.5t-54 -18.5t-53.5 18.5t-22.5 58.5zM63 64q0 42 22.5 59.5t53.5 17.5t54 -17.5t23 -59.5q0 -41 -23 -59t-54 -18t-53.5 18t-22.5 59z" />
    <glyph glyph-name="uni05C4" unicode="&#x5c4;" 
d="M88 661q-16 0 -27 9.5t-11 29.5t11 29.5t27 9.5t27.5 -9.5t11.5 -29.5t-11.5 -29.5t-27.5 -9.5z" />
    <glyph glyph-name="uni05C5" unicode="&#x5c5;" 
d="M88 -147q-16 0 -27 9.5t-11 29.5t11 29.5t27 9.5t27.5 -9.5t11.5 -29.5t-11.5 -29.5t-27.5 -9.5z" />
    <glyph glyph-name="uni05C6" unicode="&#x5c6;" horiz-adv-x="416" 
d="M74 0v449q0 75 38 112t103 37h141v-110h-104q-27 0 -38.5 -13t-11.5 -42v-323h187v-110h-315z" />
    <glyph glyph-name="uni05C7" unicode="&#x5c7;" 
d="M99 -198v65h-49v50h147v-50h-48v-65h-50z" />
    <glyph glyph-name="uni05D0" unicode="&#x5d0;" horiz-adv-x="653" 
d="M61 0v164q0 87 29.5 152t87.5 96l-134 186h147l215 -316q27 21 39 61t12 97v158h127v-152q0 -87 -30 -153t-88 -95l144 -198h-148l-224 326q-50 -44 -50 -156v-170h-127z" />
    <glyph glyph-name="uni05D1" unicode="&#x5d1;" horiz-adv-x="573" 
d="M27 0v110h319v268q0 62 -24 86t-74 24h-221v110h227q110 0 164.5 -49t54.5 -153v-286h78v-110h-524z" />
    <glyph glyph-name="uni05D2" unicode="&#x5d2;" horiz-adv-x="380" 
d="M12 -10v119q40 11 72.5 31t57.5 47q29 31 45.5 70t16.5 79v97q0 55 -51 55h-103v110h141q67 0 103 -38t36 -111v-256l23 -193h-111l-28 142h-4q-39 -58 -92 -96.5t-106 -55.5z" />
    <glyph glyph-name="uni05D3" unicode="&#x5d3;" horiz-adv-x="557" 
d="M317 0v488h-307v110h525v-110h-91v-488h-127z" />
    <glyph glyph-name="uni05D4" unicode="&#x5d4;" horiz-adv-x="683" 
d="M479 0v378q0 62 -24.5 86t-73.5 24h-299v110h305q110 0 164.5 -49t54.5 -153v-396h-127zM82 0v352h127v-352h-127z" />
    <glyph glyph-name="uni05D5" unicode="&#x5d5;" horiz-adv-x="291" 
d="M82 0v598h127v-598h-127z" />
    <glyph glyph-name="uni05D6" unicode="&#x5d6;" horiz-adv-x="331" 
d="M96 0v323q0 61 22 100t54 62v3h-150v110h287v-89q-13 -11 -33.5 -28t-36.5 -47.5t-16 -80.5v-353h-127z" />
    <glyph glyph-name="uni05D7" unicode="&#x5d7;" horiz-adv-x="703" 
d="M407 598q110 0 164.5 -49t54.5 -153v-396h-127v378q0 62 -24.5 86t-73.5 24h-192v-488h-127v598h325z" />
    <glyph glyph-name="uni05D8" unicode="&#x5d8;" horiz-adv-x="705" 
d="M364 -12q-142 0 -217 78t-75 244v288h127v-288q0 -106 41 -161.5t125 -55.5q89 0 125 56t36 161q0 88 -19 137.5t-72 49.5q-31 0 -61 -7.5t-58 -20.5v111q23 8 59.5 18t80.5 10q67 0 107.5 -25t61 -67t27 -94t6.5 -106q0 -116 -35 -188.5t-101 -106t-158 -33.5z" />
    <glyph glyph-name="uni05D9" unicode="&#x5d9;" horiz-adv-x="266" 
d="M72 213v385h127v-277l-63 -108h-64z" />
    <glyph glyph-name="uni05DA" unicode="&#x5da;" horiz-adv-x="576" 
d="M378 -240v522q0 79 -24.5 124t-72 63.5t-115.5 18.5h-154v110h166q155 0 243 -75.5t88 -240.5v-522h-131z" />
    <glyph glyph-name="uni05DB" unicode="&#x5db;" horiz-adv-x="571" 
d="M27 0v110h195q82 0 127 46t45 140q0 96 -47.5 144t-133.5 48h-186v110h196q95 0 162.5 -37t103 -104t35.5 -158q0 -139 -77.5 -219t-218.5 -80h-201z" />
    <glyph glyph-name="uni05DC" unicode="&#x5dc;" horiz-adv-x="544" 
d="M142 598h370v-83l-191 -515h-134l188 488h-360v272h127v-162z" />
    <glyph glyph-name="uni05DD" unicode="&#x5dd;" horiz-adv-x="683" 
d="M67 0v598h320q110 0 164.5 -49t54.5 -153v-396h-539zM194 110h285v268q0 61 -24.5 85.5t-73.5 24.5h-187v-378z" />
    <glyph glyph-name="uni05DE" unicode="&#x5de;" horiz-adv-x="678" 
d="M386 609q100 0 157.5 -61.5t57.5 -161.5v-386h-297v110h170v262q0 59 -28 91.5t-85 32.5q-67 0 -103 -47t-47 -138l-37 -311h-127l46 394l-43 204h127l18 -92h4q16 22 39 46t58.5 40.5t89.5 16.5z" />
    <glyph glyph-name="uni05DF" unicode="&#x5df;" horiz-adv-x="325" 
d="M121 -240v673q0 55 -51 55h-53v110h91q64 0 102 -37t38 -112v-689h-127z" />
    <glyph glyph-name="uni05E0" unicode="&#x5e0;" horiz-adv-x="422" 
d="M27 0v110h191v323q0 55 -51 55h-107v110h144q65 0 103 -37t38 -112v-449h-318z" />
    <glyph glyph-name="uni05E1" unicode="&#x5e1;" horiz-adv-x="712" 
d="M371 -13q-89 0 -155.5 37t-103 107.5t-36.5 171.5q0 49 8 97t18 88h-70v110h335q143 0 220.5 -81t77.5 -221q0 -96 -36 -165t-101.5 -106.5t-156.5 -37.5zM367 92q85 0 126.5 53t41.5 152q0 106 -46.5 148.5t-137.5 42.5h-121q-6 -25 -15 -70.5t-9 -107.5
q0 -110 38.5 -164t122.5 -54z" />
    <glyph glyph-name="uni05E2" unicode="&#x5e2;" horiz-adv-x="637" 
d="M19 0v110h159l-118 488h127l114 -479q73 19 111 79t48 172l23 228h127l-22 -231q-4 -45 -15 -95.5t-34 -98.5t-63.5 -87t-103.5 -62.5t-154 -23.5h-199z" />
    <glyph glyph-name="uni05E3" unicode="&#x5e3;" horiz-adv-x="614" 
d="M198 215q-94 0 -142.5 54t-48.5 151v178h239q95 0 162.5 -38t103 -106.5t35.5 -161.5v-532h-127v529q0 199 -184 199h-102v-60q0 -57 21 -79.5t58 -22.5q7 0 16 0.5t16 1.5v-110q-11 -2 -24 -2.5t-23 -0.5z" />
    <glyph glyph-name="uni05E4" unicode="&#x5e4;" horiz-adv-x="634" 
d="M47 0v110h254q156 0 156 184q0 194 -181 194h-102v-53q0 -60 21.5 -81t58.5 -21q8 0 16 0.5t15 1.5v-110q-11 -1 -24 -2t-23 -1q-94 0 -142.5 54.5t-48.5 150.5v171h239q95 0 162.5 -36.5t103 -104t35.5 -160.5q0 -91 -34.5 -157.5t-98.5 -103t-153 -36.5h-254z" />
    <glyph glyph-name="uni05E5" unicode="&#x5e5;" horiz-adv-x="519" 
d="M140 -240v470l-136 368h133l116 -332l38 12q35 10 52 38t22 80l20 202h127l-17 -187q-4 -44 -11.5 -80.5t-25 -66t-51.5 -53t-91 -40.5l-48 -14v-397h-128z" />
    <glyph glyph-name="uni05E6" unicode="&#x5e6;" horiz-adv-x="598" 
d="M29 0v110h341l-346 488h148l196 -290q29 21 42 62.5t13 101.5v126h128v-120q0 -96 -35.5 -161.5t-88.5 -94.5l96 -137v-85h-494z" />
    <glyph glyph-name="uni05E7" unicode="&#x5e7;" horiz-adv-x="661" 
d="M304 0l188 488h-415v110h552v-83l-191 -515h-134zM77 -240v608h127v-608h-127z" />
    <glyph glyph-name="uni05E8" unicode="&#x5e8;" horiz-adv-x="573" 
d="M369 0v378q0 62 -24.5 86t-73.5 24h-259v110h265q110 0 164.5 -49t54.5 -153v-396h-127z" />
    <glyph glyph-name="uni05E9" unicode="&#x5e9;" horiz-adv-x="737" 
d="M91 0l-54 598h127l26 -283l47 14q36 11 52 40t22 85l15 144h128l-13 -129q-4 -43 -11.5 -79t-25 -66t-52 -53.5t-91.5 -40.5l-61 -19l9 -101h109q99 0 164 63.5t78 196.5l22 228h128l-22 -231q-7 -73 -32 -139t-70 -117.5t-111.5 -81t-156.5 -29.5h-227z" />
    <glyph glyph-name="uni05EA" unicode="&#x5ea;" horiz-adv-x="698" 
d="M32 0v110h59q42 0 42 59v319h-97v110h366q110 0 164.5 -49t54.5 -153v-396h-127v378q0 62 -24 86t-74 24h-136v-307q0 -91 -37.5 -136t-118.5 -45h-72z" />
    <glyph glyph-name="uni05F0" unicode="&#x5f0;" horiz-adv-x="572" 
d="M366 0v598h127v-598h-127zM79 0v598h128v-598h-128z" />
    <glyph glyph-name="uni05F1" unicode="&#x5f1;" horiz-adv-x="557" 
d="M348 0v598h127v-598h-127zM72 213v385h127v-277l-63 -108h-64z" />
    <glyph glyph-name="uni05F2" unicode="&#x5f2;" horiz-adv-x="532" 
d="M338 213v385h127v-277l-63 -108h-64zM72 213v385h127v-277l-63 -108h-64z" />
    <glyph glyph-name="uni05F3" unicode="&#x5f3;" horiz-adv-x="204" 
d="M12 353q14 59 28 126t21 119h121l7 -11q-13 -53 -37.5 -116.5t-48.5 -117.5h-91z" />
    <glyph glyph-name="uni05F4" unicode="&#x5f4;" horiz-adv-x="416" 
d="M223 353q14 59 28.5 126t21.5 119h121l7 -11q-13 -53 -37.5 -116.5t-48.5 -117.5h-92zM12 353q14 59 28 126t21 119h121l7 -11q-13 -53 -37.5 -116.5t-48.5 -117.5h-91z" />
    <glyph glyph-name="uni200C" unicode="&#x200c;" 
d="M18 679v-724h-36v724h36z" />
    <glyph glyph-name="uni200D" unicode="&#x200d;" 
d="M18 -45h-36v578l-65 -66l-24 24l84 82l-84 82l24 24l83 -83l83 83l24 -24l-84 -82l84 -82l-24 -24l-65 66v-578z" />
    <glyph glyph-name="uni200E" unicode="&#x200e;" 
d="M210 574l-106 -104l-24 24l67 63h-130v-602h-35v637h165l-67 63l24 24z" />
    <glyph glyph-name="uni200F" unicode="&#x200f;" 
d="M17 -45h-35v602h-129l66 -63l-23 -24l-106 104l106 105l23 -24l-66 -63h164v-637z" />
    <glyph glyph-name="uni2010" unicode="&#x2010;" horiz-adv-x="322" 
d="M34 215v106h254v-106h-254z" />
    <glyph glyph-name="uni20AA" unicode="&#x20aa;" horiz-adv-x="845" 
d="M279 0v406h108v-296h56q62 0 101 7.5t60 29.5t29 64t8 110v277h128v-277q0 -120 -30.5 -190t-101.5 -100.5t-194 -30.5h-164zM82 0v598h264q111 0 165.5 -49t54.5 -153v-200h-109v182q0 63 -29 86.5t-69 23.5h-150v-488h-127z" />
    <glyph glyph-name="uni25CC" unicode="&#x25cc;" horiz-adv-x="594" 
d="M323 514q0 -27 -26 -27t-26 27q0 26 26 26t26 -26zM408 496q0 -26 -25 -26q-28 0 -28 26q0 27 28 27q25 0 25 -27zM239 496q0 -26 -27 -26q-26 0 -26 26q0 27 26 27q27 0 27 -27zM480 448q0 -26 -25 -26q-27 0 -27 26q0 27 27 27q25 0 25 -27zM167 448q0 -26 -27 -26
q-26 0 -26 25q0 28 26 28q27 0 27 -27zM529 376q0 -27 -27 -27q-26 0 -26 27q0 26 27 26q26 0 26 -26zM118 376q0 -27 -25 -27q-28 0 -28 27q0 26 27 26q26 0 26 -26zM546 291q0 -26 -25 -26q-27 0 -27 26t27 26q25 0 25 -26zM101 291q0 -26 -26 -26q-27 0 -27 26t27 26
q26 0 26 -26zM529 206q0 -26 -27 -26q-26 0 -26 26q0 27 26 27q27 0 27 -27zM118 206q0 -26 -26 -26q-27 0 -27 26q0 27 27 27q26 0 26 -27zM480 133q0 -26 -25 -26q-27 0 -27 26q0 27 27 27q25 0 25 -27zM167 133q0 -26 -27 -26q-26 0 -26 26q0 27 26 27q27 0 27 -27z
M408 85q0 -25 -25 -25q-28 0 -28 25q0 27 28 27q25 0 25 -27zM239 87q0 -27 -27 -27q-26 0 -26 25q0 27 26 27q27 0 27 -25zM323 69q0 -27 -26 -27t-26 27q0 26 26 26t26 -26z" />
    <glyph glyph-name="uniFB1D" unicode="&#xfb1d;" horiz-adv-x="266" 
d="M72 213v385h127v-277l-63 -108h-64zM114 64q-16 0 -27 9.5t-11 29.5t11 29.5t27 9.5t27.5 -9.5t11.5 -29.5t-11.5 -29.5t-27.5 -9.5z" />
    <glyph glyph-name="uniFB1E" unicode="&#xfb1e;" 
d="M261 767q0 -49 -28 -79t-78 -30q-49 0 -77 30t-28 79h50q0 -24 14.5 -40t40.5 -16q55 0 55 56h51z" />
    <glyph glyph-name="uniFB1F" unicode="&#xfb1f;" horiz-adv-x="532" 
d="M338 213v385h127v-277l-63 -108h-64zM72 213v385h127v-277l-63 -108h-64zM168 94v50h187v-50h-187z" />
    <glyph glyph-name="uniFB20" unicode="&#xfb20;" horiz-adv-x="600" 
d="M12 -61v126l157 53l-116 480h127l104 -440q44 16 69.5 31.5t39 37.5t20 56t11.5 86l22 229h128l-23 -231q-7 -66 -18 -114.5t-32 -83.5t-57.5 -61t-93.5 -47z" />
    <glyph glyph-name="uniFB21" unicode="&#xfb21;" horiz-adv-x="789" 
d="M59 0v172q0 95 35 163t103 94l-160 169h162l305 -340q42 14 61 58.5t19 115.5v166h128v-160q0 -94 -34.5 -162t-102.5 -94l177 -182h-160l-324 353q-82 -29 -82 -175v-178h-127z" />
    <glyph glyph-name="uniFB22" unicode="&#xfb22;" horiz-adv-x="691" 
d="M445 0v488h-437v110h656v-110h-91v-488h-128z" />
    <glyph glyph-name="uniFB23" unicode="&#xfb23;" horiz-adv-x="813" 
d="M609 0v378q0 62 -24.5 86t-73.5 24h-429v110h435q110 0 164.5 -49t54.5 -153v-396h-127zM82 352h127v-352h-127v352z" />
    <glyph glyph-name="uniFB24" unicode="&#xfb24;" horiz-adv-x="701" 
d="M27 0v110h341q156 0 156 186q0 192 -181 192h-316v110h326q95 0 162.5 -37t103 -104t35.5 -158q0 -93 -34.5 -160t-98.5 -103t-153 -36h-341z" />
    <glyph glyph-name="uniFB25" unicode="&#xfb25;" horiz-adv-x="657" 
d="M301 0l188 488h-481v272h127v-162h490v-83l-191 -515h-133z" />
    <glyph glyph-name="uniFB26" unicode="&#xfb26;" horiz-adv-x="813" 
d="M67 0v598h450q110 0 164.5 -49t54.5 -153v-396h-669zM194 110h415v268q0 61 -24.5 85.5t-73.5 24.5h-317v-378z" />
    <glyph glyph-name="uniFB27" unicode="&#xfb27;" horiz-adv-x="703" 
d="M499 0v378q0 62 -24.5 86t-73.5 24h-389v110h395q110 0 164.5 -49t54.5 -153v-396h-127z" />
    <glyph glyph-name="uniFB28" unicode="&#xfb28;" horiz-adv-x="828" 
d="M32 0v110h59q42 0 42 59v319h-97v110h496q110 0 164.5 -49t54.5 -153v-396h-127v378q0 62 -24 86t-74 24h-266v-307q0 -91 -37.5 -136t-118.5 -45h-72z" />
    <glyph glyph-name="uniFB29" unicode="&#xfb29;" horiz-adv-x="572" 
d="M332 418h193v-94h-479v94h192v196h94v-196z" />
    <glyph glyph-name="uniFB2A" unicode="&#xfb2a;" horiz-adv-x="737" 
d="M91 0l-54 598h127l26 -283l47 14q36 11 52 40t22 85l15 144h128l-13 -129q-4 -43 -11.5 -79t-25 -66t-52 -53.5t-91.5 -40.5l-61 -19l9 -101h109q99 0 164 63.5t78 196.5l22 228h128l-22 -231q-7 -73 -32 -139t-70 -117.5t-111.5 -81t-156.5 -29.5h-227zM645 661
q-16 0 -27 9.5t-11 29.5t11 29.5t27 9.5t27.5 -9.5t11.5 -29.5t-11.5 -29.5t-27.5 -9.5z" />
    <glyph glyph-name="uniFB2B" unicode="&#xfb2b;" horiz-adv-x="737" 
d="M91 0l-54 598h127l26 -283l47 14q36 11 52 40t22 85l15 144h128l-13 -129q-4 -43 -11.5 -79t-25 -66t-52 -53.5t-91.5 -40.5l-61 -19l9 -101h109q99 0 164 63.5t78 196.5l22 228h128l-22 -231q-7 -73 -32 -139t-70 -117.5t-111.5 -81t-156.5 -29.5h-227zM100 661
q-16 0 -27 9.5t-11 29.5t11 29.5t27 9.5t27.5 -9.5t11.5 -29.5t-11.5 -29.5t-27.5 -9.5z" />
    <glyph glyph-name="uniFB2C" unicode="&#xfb2c;" horiz-adv-x="737" 
d="M91 0l-54 598h127l26 -283l47 14q36 11 52 40t22 85l15 144h128l-13 -129q-4 -43 -11.5 -79t-25 -66t-52 -53.5t-91.5 -40.5l-61 -19l9 -101h109q99 0 164 63.5t78 196.5l22 228h128l-22 -231q-7 -73 -32 -139t-70 -117.5t-111.5 -81t-156.5 -29.5h-227zM386 228
q0 20 11 29.5t28 9.5q16 0 27.5 -9.5t11.5 -29.5t-11.5 -29.5t-27.5 -9.5q-17 0 -28 9.5t-11 29.5zM645 661q-16 0 -27 9.5t-11 29.5t11 29.5t27 9.5t27.5 -9.5t11.5 -29.5t-11.5 -29.5t-27.5 -9.5z" />
    <glyph glyph-name="uniFB2D" unicode="&#xfb2d;" horiz-adv-x="737" 
d="M91 0l-54 598h127l26 -283l47 14q36 11 52 40t22 85l15 144h128l-13 -129q-4 -43 -11.5 -79t-25 -66t-52 -53.5t-91.5 -40.5l-61 -19l9 -101h109q99 0 164 63.5t78 196.5l22 228h128l-22 -231q-7 -73 -32 -139t-70 -117.5t-111.5 -81t-156.5 -29.5h-227zM386 228
q0 20 11 29.5t28 9.5q16 0 27.5 -9.5t11.5 -29.5t-11.5 -29.5t-27.5 -9.5q-17 0 -28 9.5t-11 29.5zM100 661q-16 0 -27 9.5t-11 29.5t11 29.5t27 9.5t27.5 -9.5t11.5 -29.5t-11.5 -29.5t-27.5 -9.5z" />
    <glyph glyph-name="uniFB2E" unicode="&#xfb2e;" horiz-adv-x="653" 
d="M61 0v164q0 87 29.5 152t87.5 96l-134 186h147l215 -316q27 21 39 61t12 97v158h127v-152q0 -87 -30 -153t-88 -95l144 -198h-148l-224 326q-50 -44 -50 -156v-170h-127zM231 -133v50h187v-50h-187z" />
    <glyph glyph-name="uniFB2F" unicode="&#xfb2f;" horiz-adv-x="653" 
d="M61 0v164q0 87 29.5 152t87.5 96l-134 186h147l215 -316q27 21 39 61t12 97v158h127v-152q0 -87 -30 -153t-88 -95l144 -198h-148l-224 326q-50 -44 -50 -156v-170h-127zM300 -230v97h-69v50h187v-50h-68v-97h-50z" />
    <glyph glyph-name="uniFB30" unicode="&#xfb30;" horiz-adv-x="653" 
d="M61 0v164q0 87 29.5 152t87.5 96l-134 186h147l215 -316q27 21 39 61t12 97v158h127v-152q0 -87 -30 -153t-88 -95l144 -198h-148l-224 326q-50 -44 -50 -156v-170h-127zM235 141q0 20 11 29.5t28 9.5q16 0 27.5 -9.5t11.5 -29.5t-11.5 -29.5t-27.5 -9.5q-17 0 -28 9.5
t-11 29.5z" />
    <glyph glyph-name="uniFB31" unicode="&#xfb31;" horiz-adv-x="573" 
d="M27 0v110h319v268q0 62 -24 86t-74 24h-221v110h227q110 0 164.5 -49t54.5 -153v-286h78v-110h-524zM148 302q0 20 11 29.5t28 9.5q16 0 27.5 -9.5t11.5 -29.5t-11.5 -29.5t-27.5 -9.5q-17 0 -28 9.5t-11 29.5z" />
    <glyph glyph-name="uniFB32" unicode="&#xfb32;" horiz-adv-x="380" 
d="M12 -10v119q40 11 72.5 31t57.5 47q29 31 45.5 70t16.5 79v97q0 55 -51 55h-103v110h141q67 0 103 -38t36 -111v-256l23 -193h-111l-28 142h-4q-39 -58 -92 -96.5t-106 -55.5zM71 336q0 20 11 29.5t28 9.5q16 0 27.5 -9.5t11.5 -29.5t-11.5 -29.5t-27.5 -9.5
q-17 0 -28 9.5t-11 29.5z" />
    <glyph glyph-name="uniFB33" unicode="&#xfb33;" horiz-adv-x="557" 
d="M317 0v488h-307v110h525v-110h-91v-488h-127zM125 302q0 20 11 29.5t28 9.5q16 0 27.5 -9.5t11.5 -29.5t-11.5 -29.5t-27.5 -9.5q-17 0 -28 9.5t-11 29.5z" />
    <glyph glyph-name="uniFB34" unicode="&#xfb34;" horiz-adv-x="683" 
d="M479 0v378q0 62 -24.5 86t-73.5 24h-299v110h305q110 0 164.5 -49t54.5 -153v-396h-127zM82 0v352h127v-352h-127zM306 302q0 20 11 29.5t28 9.5q16 0 27.5 -9.5t11.5 -29.5t-11.5 -29.5t-27.5 -9.5q-17 0 -28 9.5t-11 29.5z" />
    <glyph glyph-name="uniFB35" unicode="&#xfb35;" horiz-adv-x="291" 
d="M82 0v598h127v-598h-127zM-27 302q0 20 11 29.5t28 9.5q16 0 27.5 -9.5t11.5 -29.5t-11.5 -29.5t-27.5 -9.5q-17 0 -28 9.5t-11 29.5z" />
    <glyph glyph-name="uniFB36" unicode="&#xfb36;" horiz-adv-x="331" 
d="M96 0v323q0 61 22 100t54 62v3h-150v110h287v-89q-13 -11 -33.5 -28t-36.5 -47.5t-16 -80.5v-353h-127zM-37 302q0 20 11 29.5t28 9.5q16 0 27.5 -9.5t11.5 -29.5t-11.5 -29.5t-27.5 -9.5q-17 0 -28 9.5t-11 29.5z" />
    <glyph glyph-name="uniFB38" unicode="&#xfb38;" horiz-adv-x="705" 
d="M364 -12q-142 0 -217 78t-75 244v288h127v-288q0 -106 41 -161.5t125 -55.5q89 0 125 56t36 161q0 88 -19 137.5t-72 49.5q-31 0 -61 -7.5t-58 -20.5v111q23 8 59.5 18t80.5 10q67 0 107.5 -25t61 -67t27 -94t6.5 -106q0 -116 -35 -188.5t-101 -106t-158 -33.5zM324 302
q0 20 11 29.5t28 9.5q16 0 27.5 -9.5t11.5 -29.5t-11.5 -29.5t-27.5 -9.5q-17 0 -28 9.5t-11 29.5z" />
    <glyph glyph-name="uniFB39" unicode="&#xfb39;" horiz-adv-x="266" 
d="M72 213v385h127v-277l-63 -108h-64zM-36 416q0 20 11 29.5t28 9.5q16 0 27.5 -9.5t11.5 -29.5t-11.5 -29.5t-27.5 -9.5q-17 0 -28 9.5t-11 29.5z" />
    <glyph glyph-name="uniFB3A" unicode="&#xfb3a;" horiz-adv-x="576" 
d="M378 -240v522q0 79 -24.5 124t-72 63.5t-115.5 18.5h-154v110h166q155 0 243 -75.5t88 -240.5v-522h-131zM156 302q0 20 11 29.5t28 9.5q16 0 27.5 -9.5t11.5 -29.5t-11.5 -29.5t-27.5 -9.5q-17 0 -28 9.5t-11 29.5z" />
    <glyph glyph-name="uniFB3B" unicode="&#xfb3b;" horiz-adv-x="571" 
d="M27 0v110h195q82 0 127 46t45 140q0 96 -47.5 144t-133.5 48h-186v110h196q95 0 162.5 -37t103 -104t35.5 -158q0 -139 -77.5 -219t-218.5 -80h-201zM172 302q0 20 11 29.5t28 9.5q16 0 27.5 -9.5t11.5 -29.5t-11.5 -29.5t-27.5 -9.5q-17 0 -28 9.5t-11 29.5z" />
    <glyph glyph-name="uniFB3C" unicode="&#xfb3c;" horiz-adv-x="544" 
d="M142 598h370v-83l-191 -515h-134l188 488h-360v272h127v-162zM120 302q0 20 11 29.5t28 9.5q16 0 27.5 -9.5t11.5 -29.5t-11.5 -29.5t-27.5 -9.5q-17 0 -28 9.5t-11 29.5z" />
    <glyph glyph-name="uniFB3E" unicode="&#xfb3e;" horiz-adv-x="678" 
d="M386 609q100 0 157.5 -61.5t57.5 -161.5v-386h-297v110h170v262q0 59 -28 91.5t-85 32.5q-67 0 -103 -47t-47 -138l-37 -311h-127l46 394l-43 204h127l18 -92h4q16 22 39 46t58.5 40.5t89.5 16.5zM303 302q0 20 11 29.5t28 9.5q16 0 27.5 -9.5t11.5 -29.5t-11.5 -29.5
t-27.5 -9.5q-17 0 -28 9.5t-11 29.5z" />
    <glyph glyph-name="uniFB40" unicode="&#xfb40;" horiz-adv-x="422" 
d="M27 0v110h191v323q0 55 -51 55h-107v110h144q65 0 103 -37t38 -112v-449h-318zM82 302q0 20 11 29.5t28 9.5q16 0 27.5 -9.5t11.5 -29.5t-11.5 -29.5t-27.5 -9.5q-17 0 -28 9.5t-11 29.5z" />
    <glyph glyph-name="uniFB41" unicode="&#xfb41;" horiz-adv-x="712" 
d="M371 -13q-89 0 -155.5 37t-103 107.5t-36.5 171.5q0 49 8 97t18 88h-70v110h335q143 0 220.5 -81t77.5 -221q0 -96 -36 -165t-101.5 -106.5t-156.5 -37.5zM367 92q85 0 126.5 53t41.5 152q0 106 -46.5 148.5t-137.5 42.5h-121q-6 -25 -15 -70.5t-9 -107.5
q0 -110 38.5 -164t122.5 -54zM332 302q0 20 11 29.5t28 9.5q16 0 27.5 -9.5t11.5 -29.5t-11.5 -29.5t-27.5 -9.5q-17 0 -28 9.5t-11 29.5z" />
    <glyph glyph-name="uniFB43" unicode="&#xfb43;" horiz-adv-x="614" 
d="M198 215q-94 0 -142.5 54t-48.5 151v178h239q95 0 162.5 -38t103 -106.5t35.5 -161.5v-532h-127v529q0 199 -184 199h-102v-60q0 -57 21 -79.5t58 -22.5q7 0 16 0.5t16 1.5v-110q-11 -2 -24 -2.5t-23 -0.5zM293 272q0 20 11 29.5t28 9.5q16 0 27.5 -9.5t11.5 -29.5
t-11.5 -29.5t-27.5 -9.5q-17 0 -28 9.5t-11 29.5z" />
    <glyph glyph-name="uniFB44" unicode="&#xfb44;" horiz-adv-x="634" 
d="M47 0v110h254q156 0 156 184q0 194 -181 194h-102v-53q0 -60 21.5 -81t58.5 -21q8 0 16 0.5t15 1.5v-110q-11 -1 -24 -2t-23 -1q-94 0 -142.5 54.5t-48.5 150.5v171h239q95 0 162.5 -36.5t103 -104t35.5 -160.5q0 -91 -34.5 -157.5t-98.5 -103t-153 -36.5h-254zM332 281
q0 20 11 29.5t28 9.5q16 0 27.5 -9.5t11.5 -29.5t-11.5 -29.5t-27.5 -9.5q-17 0 -28 9.5t-11 29.5z" />
    <glyph glyph-name="uniFB46" unicode="&#xfb46;" horiz-adv-x="598" 
d="M29 0v110h341l-346 488h148l196 -290q29 21 42 62.5t13 101.5v126h128v-120q0 -96 -35.5 -161.5t-88.5 -94.5l96 -137v-85h-494zM64 262q0 20 11 29.5t28 9.5q16 0 27.5 -9.5t11.5 -29.5t-11.5 -29.5t-27.5 -9.5q-17 0 -28 9.5t-11 29.5z" />
    <glyph glyph-name="uniFB47" unicode="&#xfb47;" horiz-adv-x="661" 
d="M304 0l188 488h-415v110h552v-83l-191 -515h-134zM77 -240v608h127v-608h-127zM265 302q0 20 11 29.5t28 9.5q16 0 27.5 -9.5t11.5 -29.5t-11.5 -29.5t-27.5 -9.5q-17 0 -28 9.5t-11 29.5z" />
    <glyph glyph-name="uniFB48" unicode="&#xfb48;" horiz-adv-x="573" 
d="M369 0v378q0 62 -24.5 86t-73.5 24h-259v110h265q110 0 164.5 -49t54.5 -153v-396h-127zM152 302q0 20 11 29.5t28 9.5q16 0 27.5 -9.5t11.5 -29.5t-11.5 -29.5t-27.5 -9.5q-17 0 -28 9.5t-11 29.5z" />
    <glyph glyph-name="uniFB49" unicode="&#xfb49;" horiz-adv-x="737" 
d="M91 0l-54 598h127l26 -283l47 14q36 11 52 40t22 85l15 144h128l-13 -129q-4 -43 -11.5 -79t-25 -66t-52 -53.5t-91.5 -40.5l-61 -19l9 -101h109q99 0 164 63.5t78 196.5l22 228h128l-22 -231q-7 -73 -32 -139t-70 -117.5t-111.5 -81t-156.5 -29.5h-227zM386 228
q0 20 11 29.5t28 9.5q16 0 27.5 -9.5t11.5 -29.5t-11.5 -29.5t-27.5 -9.5q-17 0 -28 9.5t-11 29.5z" />
    <glyph glyph-name="uniFB4A" unicode="&#xfb4a;" horiz-adv-x="698" 
d="M32 0v110h59q42 0 42 59v319h-97v110h366q110 0 164.5 -49t54.5 -153v-396h-127v378q0 62 -24 86t-74 24h-136v-307q0 -91 -37.5 -136t-118.5 -45h-72zM339 302q0 20 11 29.5t28 9.5q16 0 27.5 -9.5t11.5 -29.5t-11.5 -29.5t-27.5 -9.5q-17 0 -28 9.5t-11 29.5z" />
    <glyph glyph-name="uniFB4B" unicode="&#xfb4b;" horiz-adv-x="291" 
d="M82 0v598h127v-598h-127zM145 661q-16 0 -27 9.5t-11 29.5t11 29.5t27 9.5t27.5 -9.5t11.5 -29.5t-11.5 -29.5t-27.5 -9.5z" />
    <glyph glyph-name="uniFB4C" unicode="&#xfb4c;" horiz-adv-x="573" 
d="M27 0v110h319v268q0 62 -24 86t-74 24h-221v110h227q110 0 164.5 -49t54.5 -153v-286h78v-110h-524zM115 675v50h199v-50h-199z" />
    <glyph glyph-name="uniFB4D" unicode="&#xfb4d;" horiz-adv-x="571" 
d="M27 0v110h195q82 0 127 46t45 140q0 96 -47.5 144t-133.5 48h-186v110h196q95 0 162.5 -37t103 -104t35.5 -158q0 -139 -77.5 -219t-218.5 -80h-201zM109 675v50h199v-50h-199z" />
    <glyph glyph-name="uniFB4E" unicode="&#xfb4e;" horiz-adv-x="634" 
d="M47 0v110h254q156 0 156 184q0 194 -181 194h-102v-53q0 -60 21.5 -81t58.5 -21q8 0 16 0.5t15 1.5v-110q-11 -1 -24 -2t-23 -1q-94 0 -142.5 54.5t-48.5 150.5v171h239q95 0 162.5 -36.5t103 -104t35.5 -160.5q0 -91 -34.5 -157.5t-98.5 -103t-153 -36.5h-254zM181 675
v50h199v-50h-199z" />
    <glyph glyph-name="uniFB4F" unicode="&#xfb4f;" horiz-adv-x="655" 
d="M471 0l-342 488h-122v272h127v-162h65l219 -313q25 21 36 60t11 93v160h128v-158q0 -84 -29 -147.5t-86 -93.5l140 -199h-147z" />
    <glyph glyph-name="judeospanishvarika-hb" horiz-adv-x="600" 
d="M94 0v714h411v-714h-411zM145 51h309v612h-309v-612z" />
    <glyph glyph-name="hatafsegol_zerowidthjoiner_siluqleft-hb" horiz-adv-x="479" 
d="M275 -252v183h49v-183h-49zM88 -147q-16 0 -27 9.5t-11 29.5t11 29.5t27 9.5t27.5 -9.5t11.5 -29.5t-11.5 -29.5t-27.5 -9.5zM208 -147q-16 0 -27 9.5t-11 29.5t11 29.5t27 9.5t27.5 -9.5t11.5 -29.5t-11.5 -29.5t-27.5 -9.5zM390 -147q-16 0 -27 9.5t-11 29.5t11 29.5
t27 9.5t27.5 -9.5t11.5 -29.5t-11.5 -29.5t-27.5 -9.5zM148 -252q-16 0 -27 9.5t-11 29.5q0 19 11 28.5t27 9.5t27.5 -9.5t11.5 -28.5q0 -20 -11.5 -29.5t-27.5 -9.5zM390 -252q-16 0 -27 9.5t-11 29.5q0 19 11 28.5t27 9.5t27.5 -9.5t11.5 -28.5q0 -20 -11.5 -29.5
t-27.5 -9.5z" />
    <glyph glyph-name="hatafpatah_zerowidthjoiner_siluqleft-hb" horiz-adv-x="470" 
d="M265 -252v183h50v-183h-50zM380 -147q-16 0 -27 9.5t-11 29.5t11 29.5t27 9.5t27.5 -9.5t11.5 -29.5t-11.5 -29.5t-27.5 -9.5zM50 -133v50h187v-50h-187zM381 -252q-17 0 -28 9.5t-11 29.5q0 19 11 28.5t28 9.5t28 -9.5t11 -28.5q0 -20 -11 -29.5t-28 -9.5z" />
    <glyph glyph-name="hatafqamats_zerowidthjoiner_siluqleft-hb" horiz-adv-x="470" 
d="M265 -252v183h50v-183h-50zM380 -147q-16 0 -27 9.5t-11 29.5t11 29.5t27 9.5t27.5 -9.5t11.5 -29.5t-11.5 -29.5t-27.5 -9.5zM119 -239v106h-69v50h187v-50h-68v-106h-50zM381 -252q-17 0 -28 9.5t-11 29.5q0 19 11 28.5t28 9.5t28 -9.5t11 -28.5q0 -20 -11 -29.5
t-28 -9.5z" />
  </font>
</defs>
</svg>
