<?xml version="1.0" standalone="no"?>
<!DOCTYPE svg PUBLIC "-//W3C//DTD SVG 1.1//EN" "http://www.w3.org/Graphics/SVG/1.1/DTD/svg11.dtd" >
<svg xmlns="http://www.w3.org/2000/svg" xmlns:xlink="http://www.w3.org/1999/xlink" version="1.1">
<metadata>
Created by FontForge 20170731 at Wed Sep 20 01:00:14 2017
 By Aleksey,,,
Copyright 2015 Google Inc. All Rights Reserved.
</metadata>
<defs>
<font id="NotoSansHebrew-CondensedSemiBold" horiz-adv-x="0" >
  <font-face 
    font-family="Noto Sans Hebrew Cond SemBd"
    font-weight="600"
    font-stretch="condensed"
    units-per-em="1000"
    panose-1="2 11 7 6 4 5 4 2 2 4"
    ascent="800"
    descent="-200"
    bbox="-210 -241 667 856"
    underline-thickness="50"
    underline-position="-175"
    unicode-range="U+000D-FB4F"
  />
<missing-glyph horiz-adv-x="364" 
d="M33 0v666h265v-666h-265zM66 33h199v600h-199v-600z" />
    <glyph glyph-name=".notdef" horiz-adv-x="364" 
d="M33 0v666h265v-666h-265zM66 33h199v600h-199v-600z" />
    <glyph glyph-name=".null" 
 />
    <glyph glyph-name="nonmarkingreturn" horiz-adv-x="333" 
 />
    <glyph glyph-name="NULL" 
 />
    <glyph glyph-name="NULL" 
 />
    <glyph glyph-name="CR" unicode="&#xd;" horiz-adv-x="205" 
 />
    <glyph glyph-name="space" unicode=" " horiz-adv-x="205" 
 />
    <glyph glyph-name="hyphen" unicode="-" horiz-adv-x="302" 
d="M29 215v107h243v-107h-243z" />
    <glyph glyph-name="uni00A0" unicode="&#xa0;" horiz-adv-x="205" 
 />
    <glyph glyph-name="uni0591" unicode="&#x591;" 
d="M50 -230v22q0 39 15 58.5t45 24.5v42h46v-42q32 -5 46.5 -24.5t14.5 -58.5v-22h-45v21q0 24 -8.5 34t-29.5 10q-22 0 -31 -10t-9 -34v-21h-44z" />
    <glyph glyph-name="uni0592" unicode="&#x592;" 
d="M141 761q-15 0 -25.5 8t-10.5 27t10.5 28t25.5 9q16 0 26.5 -9t10.5 -28t-10.5 -27t-26.5 -8zM85 661q-16 0 -26 9t-10 28t10 27.5t26 8.5q15 0 25.5 -9t10.5 -27q0 -19 -10.5 -28t-25.5 -9zM197 661q-15 0 -25 9t-10 28t10 27.5t25 8.5q16 0 26.5 -9t10.5 -27
q0 -19 -10.5 -28t-26.5 -9z" />
    <glyph glyph-name="uni0593" unicode="&#x593;" 
d="M50 659l72 39l-72 40l72 39l-72 39l72 40h63l-71 -40l71 -39l-71 -39l71 -40l-81 -39h-54z" />
    <glyph glyph-name="uni0594" unicode="&#x594;" 
d="M86 760q-16 0 -26 8.5t-10 27.5q0 18 10 27.5t26 9.5t26.5 -9.5t10.5 -27.5q0 -19 -10.5 -27.5t-26.5 -8.5zM86 661q-16 0 -26 8.5t-10 28.5q0 18 10 26.5t26 8.5t26.5 -8.5t10.5 -26.5q0 -19 -10.5 -28t-26.5 -9z" />
    <glyph glyph-name="uni0595" unicode="&#x595;" 
d="M50 661v172h47v-172h-47zM173 760q-15 0 -25 8.5t-10 27.5q0 18 10 27.5t25 9.5q16 0 26.5 -9.5t10.5 -27.5q0 -19 -10.5 -27.5t-26.5 -8.5zM173 661q-15 0 -25.5 8.5t-10.5 28.5q0 18 10.5 26.5t25.5 8.5t25.5 -8.5t10.5 -26.5q0 -19 -10.5 -28t-25.5 -9z" />
    <glyph glyph-name="uni0596" unicode="&#x596;" 
d="M191 -215q-67 0 -104 35t-37 97h47q0 -41 25.5 -63.5t68.5 -22.5v-46z" />
    <glyph glyph-name="uni0597" unicode="&#x597;" 
d="M116 650l-66 72l66 74l65 -74z" />
    <glyph glyph-name="uni0598" unicode="&#x598;" 
d="M97 650q-47 15 -47 69q0 28 18 45.5t46 17.5q20 0 37 -12t41 -43q17 -25 29 -35t26 -10q11 0 19.5 8t8.5 25q0 27 -25 36l11 32q48 -18 48 -68q0 -29 -18 -46.5t-44 -17.5q-22 0 -39.5 11.5t-40.5 42.5q-19 28 -30 37t-25 9q-12 0 -20 -8.5t-8 -23.5q0 -28 25 -38z" />
    <glyph glyph-name="uni0599" unicode="&#x599;" 
d="M144 650q0 40 -24.5 62.5t-69.5 22.5v47q66 0 103.5 -34.5t37.5 -97.5h-47z" />
    <glyph glyph-name="uni059A" unicode="&#x59a;" 
d="M128 -239l-78 78l78 78h62l-78 -78l78 -78h-62z" />
    <glyph glyph-name="uni059B" unicode="&#x59b;" 
d="M84 -122q-14 0 -24 10t-10 25q0 14 10 24.5t24 10.5q15 0 25 -10t10 -25t-10 -25t-25 -10zM66 -213v46q44 0 69.5 22.5t25.5 62.5h47q0 -61 -37 -96t-105 -35z" />
    <glyph glyph-name="uni059C" unicode="&#x59c;" 
d="M50 650q0 62 37 97t104 35v-47q-43 0 -68.5 -22.5t-25.5 -62.5h-47z" />
    <glyph glyph-name="uni059D" unicode="&#x59d;" 
d="M50 650q0 62 37 97t104 35v-47q-43 0 -68.5 -22.5t-25.5 -62.5h-47z" />
    <glyph glyph-name="uni059E" unicode="&#x59e;" 
d="M192 650q0 62 37.5 97t103.5 35v-47q-43 0 -68.5 -22.5t-25.5 -62.5h-47zM50 650q0 62 37 97t105 35v-47q-44 0 -69 -22.5t-25 -62.5h-48z" />
    <glyph glyph-name="uni059F" unicode="&#x59f;" 
d="M309 650l-34 33l37 37q-13 20 -13 43q0 37 26 62.5t63 25.5q36 0 62 -25.5t26 -62.5q0 -36 -25.5 -61.5t-62.5 -25.5q-23 0 -44 9zM217 650l-36 35q-19 -9 -43 -9q-38 0 -63 25.5t-25 61.5q0 37 25.5 62.5t62.5 25.5t62.5 -25.5t25.5 -62.5q0 -22 -12 -43l37 -37z
M139 720q18 0 30.5 12.5t12.5 30.5q0 19 -13 31.5t-30 12.5t-31 -13t-14 -31q0 -17 13.5 -30t31.5 -13zM387 720q18 0 31.5 13t13.5 30q0 18 -14 31t-31 13t-30.5 -12.5t-13.5 -31.5q0 -18 13 -30.5t31 -12.5z" />
    <glyph glyph-name="uni05A0" unicode="&#x5a0;" 
d="M83 650l-33 33l36 37q-12 21 -12 43q0 37 26 62.5t62 25.5q37 0 62.5 -25.5t25.5 -62.5q0 -36 -25 -61.5t-63 -25.5q-24 0 -43 9zM161 720q19 0 32 13t13 30q0 18 -13.5 31t-31.5 13q-17 0 -30 -12.5t-13 -31.5q0 -18 13 -30.5t30 -12.5z" />
    <glyph glyph-name="uni05A1" unicode="&#x5a1;" 
d="M50 650v144h43v-60q5 -5 19 -5q20 0 28 9.5t8 33.5v22h44v-22q0 -38 -18.5 -60.5t-56.5 -22.5q-7 0 -13 1t-11 4v-44h-43z" />
    <glyph glyph-name="uni05A2" unicode="&#x5a2;" 
d="M109 -227v40q-59 8 -59 82v22h43v-22q0 -23 8.5 -33t30.5 -10q21 0 29.5 10t8.5 33v22h44v-22q0 -38 -15 -57.5t-45 -24.5v-40h-45z" />
    <glyph glyph-name="uni05A3" unicode="&#x5a3;" 
d="M50 -219v46h94v89h47v-135h-141z" />
    <glyph glyph-name="uni05A4" unicode="&#x5a4;" 
d="M128 -239l-78 78l78 78h63l-78 -78l78 -78h-63z" />
    <glyph glyph-name="uni05A5" unicode="&#x5a5;" 
d="M50 -215v46q44 0 69 23t25 63h47q0 -62 -36.5 -97t-104.5 -35z" />
    <glyph glyph-name="uni05A6" unicode="&#x5a6;" 
d="M192 -215v46q44 0 68.5 23t24.5 63h48q0 -61 -36.5 -96.5t-104.5 -35.5zM50 -215v46q44 0 69 23t25 63h48q0 -62 -37 -97t-105 -35z" />
    <glyph glyph-name="uni05A7" unicode="&#x5a7;" 
d="M63 -229v35l61 9l-74 96l124 23v-33l-62 -11l74 -97z" />
    <glyph glyph-name="uni05A8" unicode="&#x5a8;" 
d="M144 650q0 40 -24.5 62.5t-69.5 22.5v47q66 0 103.5 -34.5t37.5 -97.5h-47z" />
    <glyph glyph-name="uni05A9" unicode="&#x5a9;" 
d="M217 650l-36 35q-19 -9 -43 -9q-38 0 -63 25.5t-25 61.5q0 37 25.5 62.5t62.5 25.5t62.5 -25.5t25.5 -62.5q0 -22 -12 -43l36 -37zM139 720q17 0 30 12.5t13 30.5q0 19 -13 31.5t-30 12.5t-31 -13t-14 -31q0 -17 13.5 -30t31.5 -13z" />
    <glyph glyph-name="uni05AA" unicode="&#x5aa;" 
d="M109 -227v40q-59 8 -59 82v22h43v-22q0 -23 8.5 -33t30.5 -10q21 0 29.5 10t8.5 33v22h44v-22q0 -38 -15 -57.5t-45 -24.5v-40h-45z" />
    <glyph glyph-name="uni05AB" unicode="&#x5ab;" 
d="M128 650l-78 78l78 78h63l-78 -78l78 -78h-63z" />
    <glyph glyph-name="uni05AC" unicode="&#x5ac;" 
d="M50 650v46h94v89h47v-135h-141z" />
    <glyph glyph-name="uni05AD" unicode="&#x5ad;" 
d="M191 -221q-67 0 -104 35t-37 97h47q0 -41 25.5 -63.5t68.5 -22.5v-46z" />
    <glyph glyph-name="uni05AE" unicode="&#x5ae;" 
d="M97 650q-47 15 -47 69q0 28 18 45.5t46 17.5q20 0 37 -12t41 -43q17 -25 29 -35t26 -10q11 0 19.5 8t8.5 25q0 27 -25 36l11 32q48 -18 48 -68q0 -29 -18 -46.5t-44 -17.5q-22 0 -39.5 11.5t-40.5 42.5q-19 28 -30 37t-25 9q-12 0 -20 -8.5t-8 -23.5q0 -28 25 -38z" />
    <glyph glyph-name="uni05AF" unicode="&#x5af;" 
d="M136 650q-37 0 -61.5 25t-24.5 61t25 61t61 25t61 -25t25 -61t-24.5 -61t-61.5 -25zM136 690q19 0 32.5 13.5t13.5 32.5t-14 32.5t-32 13.5t-32 -13.5t-14 -32.5t13.5 -32.5t32.5 -13.5z" />
    <glyph glyph-name="uni05B0" unicode="&#x5b0;" 
d="M86 -142q-16 0 -26 8.5t-10 27.5t10 28t26 9t26.5 -9t10.5 -28q0 -18 -10.5 -27t-26.5 -9zM86 -241q-16 0 -26 8.5t-10 28.5q0 18 10 26.5t26 8.5t26.5 -8.5t10.5 -26.5q0 -19 -10.5 -28t-26.5 -9z" />
    <glyph glyph-name="uni05B1" unicode="&#x5b1;" 
d="M85 -142q-15 0 -25 8.5t-10 27.5t10 28t25 9q16 0 26.5 -9t10.5 -28q0 -18 -10.5 -27t-26.5 -9zM198 -142q-15 0 -25 8.5t-10 27.5t10 28t25 9q16 0 26.5 -9t10.5 -28q0 -18 -10.5 -27t-26.5 -9zM296 -142q-15 0 -25 8.5t-10 27.5t10 28t25 9t26 -9t11 -28q0 -18 -11 -27
t-26 -9zM297 -241q-16 0 -26 8.5t-10 28.5q0 18 10 26.5t26 8.5q15 0 25.5 -8.5t10.5 -26.5q0 -19 -10.5 -28t-25.5 -9zM142 -241q-15 0 -25.5 8.5t-10.5 28.5q0 18 10.5 26.5t25.5 8.5q16 0 26.5 -8.5t10.5 -26.5q0 -19 -10.5 -28t-26.5 -9z" />
    <glyph glyph-name="uni05B2" unicode="&#x5b2;" 
d="M288 -142q-16 0 -26 8.5t-10 27.5t10 28t26 9t26.5 -9t10.5 -28q0 -18 -10.5 -27t-26.5 -9zM50 -129v46h176v-46h-176zM288 -241q-16 0 -26 8.5t-10 28.5q0 18 10 26.5t26 8.5q15 0 25.5 -8.5t10.5 -26.5q0 -19 -10.5 -28t-25.5 -9z" />
    <glyph glyph-name="uni05B3" unicode="&#x5b3;" 
d="M288 -142q-16 0 -26 8.5t-10 27.5t10 28t26 9t26.5 -9t10.5 -28q0 -18 -10.5 -27t-26.5 -9zM115 -229v100h-65v46h176v-46h-65v-100h-46zM288 -241q-16 0 -26 8.5t-10 28.5q0 18 10 26.5t26 8.5q15 0 25.5 -8.5t10.5 -26.5q0 -19 -10.5 -28t-25.5 -9z" />
    <glyph glyph-name="uni05B4" unicode="&#x5b4;" 
d="M86 -142q-16 0 -26 8.5t-10 27.5t10 28t26 9q15 0 25.5 -9t10.5 -28q0 -18 -10.5 -27t-25.5 -9z" />
    <glyph glyph-name="uni05B5" unicode="&#x5b5;" 
d="M88 -143q-16 0 -26 9t-10 28t10 28t26 9t26.5 -9t10.5 -28q0 -18 -10.5 -27.5t-26.5 -9.5zM200 -143q-16 0 -26 9t-10 28q0 18 10 27t26 9t26.5 -9t10.5 -27q0 -19 -10.5 -28t-26.5 -9z" />
    <glyph glyph-name="uni05B6" unicode="&#x5b6;" 
d="M198 -142q-15 0 -25 8.5t-10 27.5t10 28t25 9q16 0 26.5 -9t10.5 -28q0 -18 -10.5 -27t-26.5 -9zM86 -142q-16 0 -26 8.5t-10 27.5t10 28t26 9q15 0 25.5 -9t10.5 -28q0 -18 -10.5 -27t-25.5 -9zM142 -241q-15 0 -25.5 8.5t-10.5 28.5q0 18 10.5 26.5t25.5 8.5
q16 0 26.5 -8.5t10.5 -26.5q0 -19 -10.5 -28t-26.5 -9z" />
    <glyph glyph-name="uni05B7" unicode="&#x5b7;" 
d="M50 -130v47h175v-47h-175z" />
    <glyph glyph-name="uni05B8" unicode="&#x5b8;" 
d="M115 -221v91h-65v47h175v-47h-64v-91h-46z" />
    <glyph glyph-name="uni05B9" unicode="&#x5b9;" 
d="M86 661q-16 0 -26 8.5t-10 27.5t10 28t26 9q15 0 25.5 -9t10.5 -28q0 -18 -10.5 -27t-25.5 -9z" />
    <glyph glyph-name="uni05BA" unicode="&#x5ba;" 
d="M86 661q-16 0 -26 8.5t-10 27.5t10 28t26 9q15 0 25.5 -9t10.5 -28q0 -18 -10.5 -27t-25.5 -9z" />
    <glyph glyph-name="uni05BB" unicode="&#x5bb;" 
d="M86 -142q-16 0 -26 8.5t-10 27.5t10 28t26 9q15 0 25.5 -9t10.5 -28q0 -18 -10.5 -27t-25.5 -9zM167 -191q-16 0 -26 8.5t-10 27.5q0 18 10 26.5t26 8.5q15 0 25.5 -8.5t10.5 -26.5q0 -19 -10.5 -27.5t-25.5 -8.5zM248 -241q-16 0 -26 8.5t-10 28.5q0 18 10 27t26 9
t26 -9t10 -27q0 -19 -10 -28t-26 -9z" />
    <glyph glyph-name="uni05BC" unicode="&#x5bc;" 
d="M50 302q0 18 10 27t26 9t26.5 -9t10.5 -27q0 -19 -10.5 -28t-26.5 -9t-26 9t-10 28z" />
    <glyph glyph-name="uni05BD" unicode="&#x5bd;" 
d="M50 -241v172h46v-172h-46z" />
    <glyph glyph-name="uni05BE" unicode="&#x5be;" horiz-adv-x="299" 
d="M26 491v107h243v-107h-243z" />
    <glyph glyph-name="uni05BF" unicode="&#x5bf;" 
d="M50 675v47h187v-47h-187z" />
    <glyph glyph-name="uni05C0" unicode="&#x5c0;" horiz-adv-x="452" 
d="M177 763h98v-997h-98v997z" />
    <glyph glyph-name="uni05C1" unicode="&#x5c1;" 
d="M86 661q-16 0 -26 8.5t-10 27.5t10 28t26 9q15 0 25.5 -9t10.5 -28q0 -18 -10.5 -27t-25.5 -9z" />
    <glyph glyph-name="uni05C2" unicode="&#x5c2;" 
d="M86 661q-16 0 -26 8.5t-10 27.5t10 28t26 9q15 0 25.5 -9t10.5 -28q0 -18 -10.5 -27t-25.5 -9z" />
    <glyph glyph-name="uni05C3" unicode="&#x5c3;" horiz-adv-x="257" 
d="M58 474q0 38 18.5 57t52.5 19q32 0 51 -19t19 -57q0 -39 -19.5 -58t-50.5 -19q-32 0 -51.5 19.5t-19.5 57.5zM58 65q0 38 18.5 56.5t52.5 18.5q31 0 50.5 -18t19.5 -57t-19.5 -57.5t-50.5 -18.5q-32 0 -51.5 19t-19.5 57z" />
    <glyph glyph-name="uni05C4" unicode="&#x5c4;" 
d="M86 661q-16 0 -26 8.5t-10 27.5t10 28t26 9q15 0 25.5 -9t10.5 -28q0 -18 -10.5 -27t-25.5 -9z" />
    <glyph glyph-name="uni05C5" unicode="&#x5c5;" 
d="M86 -142q-16 0 -26 8.5t-10 27.5t10 28t26 9q15 0 25.5 -9t10.5 -28q0 -18 -10.5 -27t-25.5 -9z" />
    <glyph glyph-name="uni05C6" unicode="&#x5c6;" horiz-adv-x="341" 
d="M43 0v440q0 158 128 158h90v-106h-50q-26 0 -37 -16.5t-11 -49.5v-319h139v-107h-259z" />
    <glyph glyph-name="uni05C7" unicode="&#x5c7;" 
d="M96 -190v60h-46v47h138v-47h-46v-60h-46z" />
    <glyph glyph-name="uni05D0" unicode="&#x5d0;" horiz-adv-x="515" 
d="M45 0v158q0 85 24.5 145.5t73.5 90.5l-111 204h132l148 -284q19 22 26 56.5t7 85.5v142h119v-142q0 -86 -25.5 -146.5t-75.5 -90.5l120 -219h-132l-156 297q-17 -22 -24 -55.5t-7 -83.5v-158h-119z" />
    <glyph glyph-name="uni05D1" unicode="&#x5d1;" horiz-adv-x="455" 
d="M20 0v107h235v280q0 57 -20 81t-59 24h-156v106h179q86 0 131 -48t45 -147v-296h70v-107h-425z" />
    <glyph glyph-name="uni05D2" unicode="&#x5d2;" horiz-adv-x="330" 
d="M11 -9v117q61 29 99 79q44 59 44 140v99q0 33 -10.5 49.5t-36.5 16.5h-51v106h91q65 0 95.5 -39t30.5 -119v-247l23 -193h-104l-23 137h-3q-23 -46 -65.5 -87.5t-89.5 -58.5z" />
    <glyph glyph-name="uni05D3" unicode="&#x5d3;" horiz-adv-x="443" 
d="M230 0v492h-220v106h420v-106h-80v-492h-120z" />
    <glyph glyph-name="uni05D4" unicode="&#x5d4;" horiz-adv-x="551" 
d="M368 0v388q0 54 -19.5 79t-57.5 25h-223v106h244q176 0 176 -194v-404h-120zM68 0v352h120v-352h-120z" />
    <glyph glyph-name="uni05D5" unicode="&#x5d5;" horiz-adv-x="256" 
d="M68 0v598h120v-598h-120z" />
    <glyph glyph-name="uni05D6" unicode="&#x5d6;" horiz-adv-x="281" 
d="M80 0v323q0 61 22 102t54 64v3h-124v106h236v-84q-14 -11 -30 -29.5t-27 -50.5t-11 -81v-353h-120z" />
    <glyph glyph-name="uni05D7" unicode="&#x5d7;" horiz-adv-x="564" 
d="M325 598q176 0 176 -194v-404h-120v388q0 54 -19.5 79t-57.5 25h-116v-492h-120v598h257z" />
    <glyph glyph-name="uni05D8" unicode="&#x5d8;" horiz-adv-x="562" 
d="M286 -12q-84 0 -137 42t-77.5 113t-24.5 158v297h121v-298q0 -108 29 -158.5t89 -50.5q68 0 91.5 58.5t23.5 165.5q0 91 -14.5 141t-60.5 50q-15 0 -34.5 -4t-35.5 -12v103q16 5 40.5 11t53.5 6q64 0 102 -34t54 -97.5t16 -151.5q0 -166 -59 -252.5t-177 -86.5z" />
    <glyph glyph-name="uni05D9" unicode="&#x5d9;" horiz-adv-x="232" 
d="M58 213v385h122v-277l-61 -108h-61z" />
    <glyph glyph-name="uni05DA" unicode="&#x5da;" horiz-adv-x="449" 
d="M281 -240v535q0 105 -32.5 150.5t-97.5 45.5h-136v107h143q115 0 180 -76t65 -227v-535h-122z" />
    <glyph glyph-name="uni05DB" unicode="&#x5db;" horiz-adv-x="450" 
d="M20 0v107h148q58 0 88 46.5t30 145.5q0 98 -31 145.5t-90 47.5h-145v106h151q111 0 175 -77.5t64 -220.5q0 -88 -25.5 -155.5t-78 -106t-133.5 -38.5h-153z" />
    <glyph glyph-name="uni05DC" unicode="&#x5dc;" horiz-adv-x="433" 
d="M134 598h278v-81l-161 -517h-122l155 492h-270v268h120v-162z" />
    <glyph glyph-name="uni05DD" unicode="&#x5dd;" horiz-adv-x="548" 
d="M53 0v598h255q177 0 177 -194v-404h-432zM173 107h192v281q0 54 -19.5 79t-58.5 25h-114v-385z" />
    <glyph glyph-name="uni05DE" unicode="&#x5de;" horiz-adv-x="556" 
d="M336 609q58 0 92.5 -28t49.5 -77.5t15 -116.5v-387h-228v107h108v266q0 65 -16.5 95.5t-56.5 30.5q-43 0 -66.5 -41t-34.5 -146l-34 -312h-120l43 400l-43 198h120l17 -88h5q21 41 54 70t95 29z" />
    <glyph glyph-name="uni05DF" unicode="&#x5df;" horiz-adv-x="275" 
d="M92 -240v666q0 33 -10.5 49.5t-36.5 16.5h-33v106h73q128 0 128 -158v-680h-121z" />
    <glyph glyph-name="uni05E0" unicode="&#x5e0;" horiz-adv-x="349" 
d="M27 0v107h139v319q0 33 -10.5 49.5t-36.5 16.5h-52v106h92q127 0 127 -158v-440h-259z" />
    <glyph glyph-name="uni05E1" unicode="&#x5e1;" horiz-adv-x="571" 
d="M294 -12q-78 0 -131 39.5t-80.5 108.5t-27.5 158q0 52 8.5 103.5t19.5 94.5h-58v106h268q112 0 175 -78.5t63 -223.5q0 -89 -26 -158.5t-78.5 -109.5t-132.5 -40zM293 91q59 0 87 52t28 152q0 102 -29.5 149.5t-90.5 47.5h-86q-8 -35 -16 -85.5t-8 -109.5
q0 -206 115 -206z" />
    <glyph glyph-name="uni05E2" unicode="&#x5e2;" horiz-adv-x="514" 
d="M17 0v107h115l-76 491h120l72 -478q57 20 77.5 79.5t29.5 168.5l19 230h120l-19 -244q-5 -69 -18.5 -132.5t-45 -113.5t-89.5 -79t-151 -29h-154z" />
    <glyph glyph-name="uni05E3" unicode="&#x5e3;" horiz-adv-x="520" 
d="M179 222q-86 0 -118.5 51t-32.5 152v173h207q111 0 175 -78t64 -222v-539h-120v537q0 100 -30.5 147.5t-91.5 47.5h-85v-58q0 -59 11 -81t40 -22q6 0 12.5 0.5t11.5 0.5v-106q-20 -3 -43 -3z" />
    <glyph glyph-name="uni05E4" unicode="&#x5e4;" horiz-adv-x="526" 
d="M45 0v107h203q56 0 85 46.5t29 144.5q0 99 -30 146.5t-91 47.5h-82v-57q0 -59 11.5 -81t39.5 -22q6 0 12.5 0.5t11.5 0.5v-106q-20 -3 -43 -3q-86 0 -118.5 51t-32.5 152v171h207q111 0 175 -77.5t64 -220.5q0 -87 -25.5 -154.5t-78 -106.5t-131.5 -39h-206z" />
    <glyph glyph-name="uni05E5" unicode="&#x5e5;" horiz-adv-x="426" 
d="M86 -240v463l-78 375h123l67 -334q42 12 60.5 43t22.5 99l14 192h120l-14 -195q-5 -69 -23.5 -116t-59 -77t-110.5 -50l-2 -1v-399h-120z" />
    <glyph glyph-name="uni05E6" unicode="&#x5e6;" horiz-adv-x="479" 
d="M32 0v107h252l-255 491h131l134 -267q19 21 26 55t7 89v123h119v-123q0 -89 -27 -149.5t-77 -89.5l78 -152v-84h-388z" />
    <glyph glyph-name="uni05E7" unicode="&#x5e7;" horiz-adv-x="530" 
d="M248 0l135 492h-317v106h442v-81l-138 -517h-122zM66 -240v608h121v-608h-121z" />
    <glyph glyph-name="uni05E8" unicode="&#x5e8;" horiz-adv-x="471" 
d="M288 0v388q0 54 -19 79t-58 25h-200v106h221q176 0 176 -194v-404h-120z" />
    <glyph glyph-name="uni05E9" unicode="&#x5e9;" horiz-adv-x="597" 
d="M77 0l-54 598h119l25 -275l2 1q27 9 41.5 24t21.5 43t11 77l11 130h120l-12 -140q-6 -68 -22.5 -112.5t-52 -73t-98.5 -48.5l-12 -4l10 -113h44q77 0 120 26t63.5 83.5t28.5 151.5l18 230h120l-19 -244q-6 -74 -24 -138.5t-54 -113t-94.5 -75.5t-145.5 -27h-167z" />
    <glyph glyph-name="uni05EA" unicode="&#x5ea;" horiz-adv-x="583" 
d="M35 0v107h34q45 0 45 67v318h-77v106h307q176 0 176 -194v-404h-120v388q0 54 -19 79t-58 25h-89v-324q0 -85 -31.5 -126.5t-100.5 -41.5h-67z" />
    <glyph glyph-name="uni05F0" unicode="&#x5f0;" horiz-adv-x="594" 
d="M377 0v598h127v-598h-127zM90 0v598h128v-598h-128z" />
    <glyph glyph-name="uni05F1" unicode="&#x5f1;" horiz-adv-x="488" 
d="M300 0v598h120v-598h-120zM58 213v385h122v-277l-61 -108h-61z" />
    <glyph glyph-name="uni05F2" unicode="&#x5f2;" horiz-adv-x="465" 
d="M290 213v385h122v-277l-61 -108h-61zM58 213v385h122v-277l-61 -108h-61z" />
    <glyph glyph-name="uni05F3" unicode="&#x5f3;" horiz-adv-x="215" 
d="M24 342q9 38 18 85t15.5 92t10.5 79h115l7 -11q-13 -65 -33 -127t-43 -118h-90z" />
    <glyph glyph-name="uni05F4" unicode="&#x5f4;" horiz-adv-x="412" 
d="M220 342q15 65 27 131.5t18 124.5h115l7 -11q-13 -65 -33 -127t-44 -118h-90zM24 342q9 38 18 85t15.5 92t10.5 79h115l7 -11q-13 -65 -33 -127t-43 -118h-90z" />
    <glyph glyph-name="uni200C" unicode="&#x200c;" 
d="M18 679v-724h-36v724h36z" />
    <glyph glyph-name="uni200D" unicode="&#x200d;" 
d="M18 -45h-36v578l-65 -66l-24 24l84 82l-84 82l24 24l83 -83l83 83l24 -24l-84 -82l84 -82l-24 -24l-65 66v-578z" />
    <glyph glyph-name="uni200E" unicode="&#x200e;" 
d="M210 574l-106 -104l-24 24l67 63h-130v-602h-35v637h165l-67 63l24 24z" />
    <glyph glyph-name="uni200F" unicode="&#x200f;" 
d="M17 -45h-35v602h-129l66 -63l-23 -24l-106 104l106 105l23 -24l-66 -63h164v-637z" />
    <glyph glyph-name="uni2010" unicode="&#x2010;" horiz-adv-x="302" 
d="M29 215v107h243v-107h-243z" />
    <glyph glyph-name="uni20AA" unicode="&#x20aa;" horiz-adv-x="732" 
d="M241 0v406h101v-299h83q41 0 68 11.5t40.5 41.5t13.5 85v353h120v-364q0 -119 -57 -176.5t-167 -57.5h-202zM70 0v598h247q177 0 177 -194v-208h-101v192q0 55 -20.5 79t-56.5 24h-127v-491h-119z" />
    <glyph glyph-name="uni25CC" unicode="&#x25cc;" horiz-adv-x="594" 
d="M323 514q0 -27 -26 -27t-26 27q0 26 26 26t26 -26zM408 496q0 -26 -25 -26q-28 0 -28 26q0 27 28 27q25 0 25 -27zM239 496q0 -26 -27 -26q-26 0 -26 26q0 27 26 27q27 0 27 -27zM480 448q0 -26 -25 -26q-27 0 -27 26q0 27 27 27q25 0 25 -27zM167 448q0 -26 -27 -26
q-26 0 -26 25q0 28 26 28q27 0 27 -27zM529 376q0 -27 -27 -27q-26 0 -26 27q0 26 27 26q26 0 26 -26zM118 376q0 -27 -25 -27q-28 0 -28 27q0 26 27 26q26 0 26 -26zM546 291q0 -26 -25 -26q-27 0 -27 26t27 26q25 0 25 -26zM101 291q0 -26 -26 -26q-27 0 -27 26t27 26
q26 0 26 -26zM529 206q0 -26 -27 -26q-26 0 -26 26q0 27 26 27q27 0 27 -27zM118 206q0 -26 -26 -26q-27 0 -27 26q0 27 27 27q26 0 26 -27zM480 133q0 -26 -25 -26q-27 0 -27 26q0 27 27 27q25 0 25 -27zM167 133q0 -26 -27 -26q-26 0 -26 26q0 27 26 27q27 0 27 -27z
M408 85q0 -25 -25 -25q-28 0 -28 25q0 27 28 27q25 0 25 -27zM239 87q0 -27 -27 -27q-26 0 -26 25q0 27 26 27q27 0 27 -25zM323 69q0 -27 -26 -27t-26 27q0 26 26 26t26 -26z" />
    <glyph glyph-name="uniFB1D" unicode="&#xfb1d;" horiz-adv-x="232" 
d="M58 213v385h122v-277l-61 -108h-61zM106 69q-16 0 -26 8.5t-10 27.5t10 28t26 9q15 0 25.5 -9t10.5 -28q0 -18 -10.5 -27t-25.5 -9z" />
    <glyph glyph-name="uniFB1E" unicode="&#xfb1e;" 
d="M248 760q0 -46 -26 -74t-73 -28t-73 28t-26 74h47q0 -22 13.5 -37t38.5 -15q51 0 51 52h48z" />
    <glyph glyph-name="uniFB1F" unicode="&#xfb1f;" horiz-adv-x="465" 
d="M290 213v385h122v-277l-61 -108h-61zM58 213v385h122v-277l-61 -108h-61zM144 97v47h175v-47h-175z" />
    <glyph glyph-name="uniFB20" unicode="&#xfb20;" horiz-adv-x="501" 
d="M15 -56v115l125 41l-88 498h120l79 -455q35 18 53 43t26 66.5t13 109.5l18 236h120l-19 -251q-8 -96 -32.5 -159t-71.5 -103t-121 -65z" />
    <glyph glyph-name="uniFB21" unicode="&#xfb21;" horiz-adv-x="660" 
d="M47 0v166q0 92 32 157t91 94l-140 181h144l245 -328q63 37 63 168v160h120v-154q0 -93 -32 -158t-92 -92l152 -194h-143l-258 339q-61 -41 -61 -167v-172h-121z" />
    <glyph glyph-name="uniFB22" unicode="&#xfb22;" horiz-adv-x="582" 
d="M356 0v492h-346v106h557v-106h-91v-492h-120z" />
    <glyph glyph-name="uniFB23" unicode="&#xfb23;" horiz-adv-x="687" 
d="M504 0v380q0 60 -24.5 86t-77.5 26h-334v106h340q110 0 163 -49t53 -152v-397h-120zM68 350h120v-350h-120v350z" />
    <glyph glyph-name="uniFB24" unicode="&#xfb24;" horiz-adv-x="589" 
d="M20 0v107h235q171 0 171 189q0 95 -47 145.5t-138 50.5h-221v106h231q93 0 160 -37t102.5 -104t35.5 -158t-34 -158.5t-98.5 -104t-157.5 -36.5h-239z" />
    <glyph glyph-name="uniFB25" unicode="&#xfb25;" horiz-adv-x="557" 
d="M218 0l188 492h-397v268h121v-162h406v-81l-191 -517h-127z" />
    <glyph glyph-name="uniFB26" unicode="&#xfb26;" horiz-adv-x="687" 
d="M53 0v598h355q110 0 163 -49t53 -152v-397h-571zM173 107h331v273q0 59 -25 85t-77 26h-229v-384z" />
    <glyph glyph-name="uniFB27" unicode="&#xfb27;" horiz-adv-x="590" 
d="M407 0v380q0 60 -25 86t-78 26h-293v106h299q110 0 163.5 -49t53.5 -152v-397h-120z" />
    <glyph glyph-name="uniFB28" unicode="&#xfb28;" horiz-adv-x="719" 
d="M35 0v107h56q45 0 45 60v325h-97v106h401q110 0 163.5 -49t53.5 -152v-397h-121v380q0 60 -24.5 86t-77.5 26h-177v-312q0 -92 -37.5 -136t-115.5 -44h-69z" />
    <glyph glyph-name="uniFB29" unicode="&#xfb29;" horiz-adv-x="515" 
d="M304 418h165v-94h-423v94h164v196h94v-196z" />
    <glyph glyph-name="uniFB2A" unicode="&#xfb2a;" horiz-adv-x="597" 
d="M77 0l-54 598h119l25 -275l2 1q27 9 41.5 24t21.5 43t11 77l11 130h120l-12 -140q-6 -68 -22.5 -112.5t-52 -73t-98.5 -48.5l-12 -4l10 -113h44q77 0 120 26t63.5 83.5t28.5 151.5l18 230h120l-19 -244q-6 -74 -24 -138.5t-54 -113t-94.5 -75.5t-145.5 -27h-167zM521 661
q-16 0 -26 8.5t-10 27.5t10 28t26 9q15 0 25.5 -9t10.5 -28q0 -18 -10.5 -27t-25.5 -9z" />
    <glyph glyph-name="uniFB2B" unicode="&#xfb2b;" horiz-adv-x="597" 
d="M77 0l-54 598h119l25 -275l2 1q27 9 41.5 24t21.5 43t11 77l11 130h120l-12 -140q-6 -68 -22.5 -112.5t-52 -73t-98.5 -48.5l-12 -4l10 -113h44q77 0 120 26t63.5 83.5t28.5 151.5l18 230h120l-19 -244q-6 -74 -24 -138.5t-54 -113t-94.5 -75.5t-145.5 -27h-167zM82 661
q-16 0 -26 8.5t-10 27.5t10 28t26 9q15 0 25.5 -9t10.5 -28q0 -18 -10.5 -27t-25.5 -9z" />
    <glyph glyph-name="uniFB2C" unicode="&#xfb2c;" horiz-adv-x="597" 
d="M77 0l-54 598h119l25 -275l2 1q27 9 41.5 24t21.5 43t11 77l11 130h120l-12 -140q-6 -68 -22.5 -112.5t-52 -73t-98.5 -48.5l-12 -4l10 -113h44q77 0 120 26t63.5 83.5t28.5 151.5l18 230h120l-19 -244q-6 -74 -24 -138.5t-54 -113t-94.5 -75.5t-145.5 -27h-167zM293 213
q0 18 10 27t26 9t26.5 -9t10.5 -27q0 -19 -10.5 -28t-26.5 -9t-26 9t-10 28zM521 661q-16 0 -26 8.5t-10 27.5t10 28t26 9q15 0 25.5 -9t10.5 -28q0 -18 -10.5 -27t-25.5 -9z" />
    <glyph glyph-name="uniFB2D" unicode="&#xfb2d;" horiz-adv-x="597" 
d="M77 0l-54 598h119l25 -275l2 1q27 9 41.5 24t21.5 43t11 77l11 130h120l-12 -140q-6 -68 -22.5 -112.5t-52 -73t-98.5 -48.5l-12 -4l10 -113h44q77 0 120 26t63.5 83.5t28.5 151.5l18 230h120l-19 -244q-6 -74 -24 -138.5t-54 -113t-94.5 -75.5t-145.5 -27h-167zM293 213
q0 18 10 27t26 9t26.5 -9t10.5 -27q0 -19 -10.5 -28t-26.5 -9t-26 9t-10 28zM82 661q-16 0 -26 8.5t-10 27.5t10 28t26 9q15 0 25.5 -9t10.5 -28q0 -18 -10.5 -27t-25.5 -9z" />
    <glyph glyph-name="uniFB2E" unicode="&#xfb2e;" horiz-adv-x="515" 
d="M45 0v158q0 85 24.5 145.5t73.5 90.5l-111 204h132l148 -284q19 22 26 56.5t7 85.5v142h119v-142q0 -86 -25.5 -146.5t-75.5 -90.5l120 -219h-132l-156 297q-17 -22 -24 -55.5t-7 -83.5v-158h-119zM165 -130v47h175v-47h-175z" />
    <glyph glyph-name="uniFB2F" unicode="&#xfb2f;" horiz-adv-x="515" 
d="M45 0v158q0 85 24.5 145.5t73.5 90.5l-111 204h132l148 -284q19 22 26 56.5t7 85.5v142h119v-142q0 -86 -25.5 -146.5t-75.5 -90.5l120 -219h-132l-156 297q-17 -22 -24 -55.5t-7 -83.5v-158h-119zM230 -221v91h-65v47h175v-47h-64v-91h-46z" />
    <glyph glyph-name="uniFB30" unicode="&#xfb30;" horiz-adv-x="515" 
d="M45 0v158q0 85 24.5 145.5t73.5 90.5l-111 204h132l148 -284q19 22 26 56.5t7 85.5v142h119v-142q0 -86 -25.5 -146.5t-75.5 -90.5l120 -219h-132l-156 297q-17 -22 -24 -55.5t-7 -83.5v-158h-119zM194 89q0 18 10 27t26 9t26.5 -9t10.5 -27q0 -19 -10.5 -28t-26.5 -9
t-26 9t-10 28z" />
    <glyph glyph-name="uniFB31" unicode="&#xfb31;" horiz-adv-x="455" 
d="M20 0v107h235v280q0 57 -20 81t-59 24h-156v106h179q86 0 131 -48t45 -147v-296h70v-107h-425zM101 302q0 18 10 27t26 9t26.5 -9t10.5 -27q0 -19 -10.5 -28t-26.5 -9t-26 9t-10 28z" />
    <glyph glyph-name="uniFB32" unicode="&#xfb32;" horiz-adv-x="330" 
d="M11 -9v117q61 29 99 79q44 59 44 140v99q0 33 -10.5 49.5t-36.5 16.5h-51v106h91q65 0 95.5 -39t30.5 -119v-247l23 -193h-104l-23 137h-3q-23 -46 -65.5 -87.5t-89.5 -58.5zM30 336q0 18 10 27t26 9t26.5 -9t10.5 -27q0 -19 -10.5 -28t-26.5 -9t-26 9t-10 28z" />
    <glyph glyph-name="uniFB33" unicode="&#xfb33;" horiz-adv-x="443" 
d="M230 0v492h-220v106h420v-106h-80v-492h-120zM84 302q0 18 10 27t26 9t26.5 -9t10.5 -27q0 -19 -10.5 -28t-26.5 -9t-26 9t-10 28z" />
    <glyph glyph-name="uniFB34" unicode="&#xfb34;" horiz-adv-x="551" 
d="M368 0v388q0 54 -19.5 79t-57.5 25h-223v106h244q176 0 176 -194v-404h-120zM68 0v352h120v-352h-120zM241 302q0 18 10 27t26 9t26.5 -9t10.5 -27q0 -19 -10.5 -28t-26.5 -9t-26 9t-10 28z" />
    <glyph glyph-name="uniFB35" unicode="&#xfb35;" horiz-adv-x="256" 
d="M68 0v598h120v-598h-120zM-34 302q0 18 10 27t26 9t26.5 -9t10.5 -27q0 -19 -10.5 -28t-26.5 -9t-26 9t-10 28z" />
    <glyph glyph-name="uniFB36" unicode="&#xfb36;" horiz-adv-x="281" 
d="M80 0v323q0 61 22 102t54 64v3h-124v106h236v-84q-14 -11 -30 -29.5t-27 -50.5t-11 -81v-353h-120zM-26 302q0 18 10 27t26 9t26.5 -9t10.5 -27q0 -19 -10.5 -28t-26.5 -9t-26 9t-10 28z" />
    <glyph glyph-name="uniFB38" unicode="&#xfb38;" horiz-adv-x="562" 
d="M286 -12q-84 0 -137 42t-77.5 113t-24.5 158v297h121v-298q0 -108 29 -158.5t89 -50.5q68 0 91.5 58.5t23.5 165.5q0 91 -14.5 141t-60.5 50q-15 0 -34.5 -4t-35.5 -12v103q16 5 40.5 11t53.5 6q64 0 102 -34t54 -97.5t16 -151.5q0 -166 -59 -252.5t-177 -86.5zM248 302
q0 18 10 27t26 9t26.5 -9t10.5 -27q0 -19 -10.5 -28t-26.5 -9t-26 9t-10 28z" />
    <glyph glyph-name="uniFB39" unicode="&#xfb39;" horiz-adv-x="232" 
d="M58 213v385h122v-277l-61 -108h-61zM-47 416q0 18 10 27t26 9t26.5 -9t10.5 -27q0 -19 -10.5 -28t-26.5 -9t-26 9t-10 28z" />
    <glyph glyph-name="uniFB3A" unicode="&#xfb3a;" horiz-adv-x="449" 
d="M281 -240v535q0 105 -32.5 150.5t-97.5 45.5h-136v107h143q115 0 180 -76t65 -227v-535h-122zM111 302q0 18 10 27t26 9t26.5 -9t10.5 -27q0 -19 -10.5 -28t-26.5 -9t-26 9t-10 28z" />
    <glyph glyph-name="uniFB3B" unicode="&#xfb3b;" horiz-adv-x="450" 
d="M20 0v107h148q58 0 88 46.5t30 145.5q0 98 -31 145.5t-90 47.5h-145v106h151q111 0 175 -77.5t64 -220.5q0 -88 -25.5 -155.5t-78 -106t-133.5 -38.5h-153zM116 302q0 18 10 27t26 9t26.5 -9t10.5 -27q0 -19 -10.5 -28t-26.5 -9t-26 9t-10 28z" />
    <glyph glyph-name="uniFB3C" unicode="&#xfb3c;" horiz-adv-x="433" 
d="M134 598h278v-81l-161 -517h-122l155 492h-270v268h120v-162zM72 302q0 18 10 27t26 9t26.5 -9t10.5 -27q0 -19 -10.5 -28t-26.5 -9t-26 9t-10 28z" />
    <glyph glyph-name="uniFB3E" unicode="&#xfb3e;" horiz-adv-x="556" 
d="M336 609q58 0 92.5 -28t49.5 -77.5t15 -116.5v-387h-228v107h108v266q0 65 -16.5 95.5t-56.5 30.5q-43 0 -66.5 -41t-34.5 -146l-34 -312h-120l43 400l-43 198h120l17 -88h5q21 41 54 70t95 29zM248 302q0 18 10 27t26 9t26.5 -9t10.5 -27q0 -19 -10.5 -28t-26.5 -9
t-26 9t-10 28z" />
    <glyph glyph-name="uniFB40" unicode="&#xfb40;" horiz-adv-x="349" 
d="M27 0v107h139v319q0 33 -10.5 49.5t-36.5 16.5h-52v106h92q127 0 127 -158v-440h-259zM60 302q0 18 10 27t26 9t26.5 -9t10.5 -27q0 -19 -10.5 -28t-26.5 -9t-26 9t-10 28z" />
    <glyph glyph-name="uniFB41" unicode="&#xfb41;" horiz-adv-x="571" 
d="M294 -12q-78 0 -131 39.5t-80.5 108.5t-27.5 158q0 52 8.5 103.5t19.5 94.5h-58v106h268q112 0 175 -78.5t63 -223.5q0 -89 -26 -158.5t-78.5 -109.5t-132.5 -40zM293 91q59 0 87 52t28 152q0 102 -29.5 149.5t-90.5 47.5h-86q-8 -35 -16 -85.5t-8 -109.5
q0 -206 115 -206zM257 302q0 18 10 27t26 9t26.5 -9t10.5 -27q0 -19 -10.5 -28t-26.5 -9t-26 9t-10 28z" />
    <glyph glyph-name="uniFB43" unicode="&#xfb43;" horiz-adv-x="520" 
d="M179 222q-86 0 -118.5 51t-32.5 152v173h207q111 0 175 -78t64 -222v-539h-120v537q0 100 -30.5 147.5t-91.5 47.5h-85v-58q0 -59 11 -81t40 -22q6 0 12.5 0.5t11.5 0.5v-106q-20 -3 -43 -3zM251 278q0 18 10 27t26 9t26.5 -9t10.5 -27q0 -19 -10.5 -28t-26.5 -9t-26 9
t-10 28z" />
    <glyph glyph-name="uniFB44" unicode="&#xfb44;" horiz-adv-x="526" 
d="M45 0v107h203q56 0 85 46.5t29 144.5q0 99 -30 146.5t-91 47.5h-82v-57q0 -59 11.5 -81t39.5 -22q6 0 12.5 0.5t11.5 0.5v-106q-20 -3 -43 -3q-86 0 -118.5 51t-32.5 152v171h207q111 0 175 -77.5t64 -220.5q0 -87 -25.5 -154.5t-78 -106.5t-131.5 -39h-206zM262 281
q0 18 10 27t26 9t26.5 -9t10.5 -27q0 -19 -10.5 -28t-26.5 -9t-26 9t-10 28z" />
    <glyph glyph-name="uniFB46" unicode="&#xfb46;" horiz-adv-x="479" 
d="M32 0v107h252l-255 491h131l134 -267q19 21 26 55t7 89v123h119v-123q0 -89 -27 -149.5t-77 -89.5l78 -152v-84h-388zM58 262q0 18 10 27t26 9t26.5 -9t10.5 -27q0 -19 -10.5 -28t-26.5 -9t-26 9t-10 28z" />
    <glyph glyph-name="uniFB47" unicode="&#xfb47;" horiz-adv-x="530" 
d="M248 0l135 492h-317v106h442v-81l-138 -517h-122zM66 -240v608h121v-608h-121zM217 302q0 18 10 27t26 9t26.5 -9t10.5 -27q0 -19 -10.5 -28t-26.5 -9t-26 9t-10 28z" />
    <glyph glyph-name="uniFB48" unicode="&#xfb48;" horiz-adv-x="471" 
d="M288 0v388q0 54 -19 79t-58 25h-200v106h221q176 0 176 -194v-404h-120zM113 302q0 18 10 27t26 9t26.5 -9t10.5 -27q0 -19 -10.5 -28t-26.5 -9t-26 9t-10 28z" />
    <glyph glyph-name="uniFB49" unicode="&#xfb49;" horiz-adv-x="597" 
d="M77 0l-54 598h119l25 -275l2 1q27 9 41.5 24t21.5 43t11 77l11 130h120l-12 -140q-6 -68 -22.5 -112.5t-52 -73t-98.5 -48.5l-12 -4l10 -113h44q77 0 120 26t63.5 83.5t28.5 151.5l18 230h120l-19 -244q-6 -74 -24 -138.5t-54 -113t-94.5 -75.5t-145.5 -27h-167zM293 213
q0 18 10 27t26 9t26.5 -9t10.5 -27q0 -19 -10.5 -28t-26.5 -9t-26 9t-10 28z" />
    <glyph glyph-name="uniFB4A" unicode="&#xfb4a;" horiz-adv-x="583" 
d="M35 0v107h34q45 0 45 67v318h-77v106h307q176 0 176 -194v-404h-120v388q0 54 -19 79t-58 25h-89v-324q0 -85 -31.5 -126.5t-100.5 -41.5h-67zM281 302q0 18 10 27t26 9t26.5 -9t10.5 -27q0 -19 -10.5 -28t-26.5 -9t-26 9t-10 28z" />
    <glyph glyph-name="uniFB4B" unicode="&#xfb4b;" horiz-adv-x="256" 
d="M68 0v598h120v-598h-120zM127 661q-16 0 -26 8.5t-10 27.5t10 28t26 9q15 0 25.5 -9t10.5 -28q0 -18 -10.5 -27t-25.5 -9z" />
    <glyph glyph-name="uniFB4C" unicode="&#xfb4c;" horiz-adv-x="455" 
d="M20 0v107h235v280q0 57 -20 81t-59 24h-156v106h179q86 0 131 -48t45 -147v-296h70v-107h-425zM83 675v47h187v-47h-187z" />
    <glyph glyph-name="uniFB4D" unicode="&#xfb4d;" horiz-adv-x="450" 
d="M20 0v107h148q58 0 88 46.5t30 145.5q0 98 -31 145.5t-90 47.5h-145v106h151q111 0 175 -77.5t64 -220.5q0 -88 -25.5 -155.5t-78 -106t-133.5 -38.5h-153zM61 675v47h187v-47h-187z" />
    <glyph glyph-name="uniFB4E" unicode="&#xfb4e;" horiz-adv-x="526" 
d="M45 0v107h203q56 0 85 46.5t29 144.5q0 99 -30 146.5t-91 47.5h-82v-57q0 -59 11.5 -81t39.5 -22q6 0 12.5 0.5t11.5 0.5v-106q-20 -3 -43 -3q-86 0 -118.5 51t-32.5 152v171h207q111 0 175 -77.5t64 -220.5q0 -87 -25.5 -154.5t-78 -106.5t-131.5 -39h-206zM136 675v47
h187v-47h-187z" />
    <glyph glyph-name="uniFB4F" unicode="&#xfb4f;" horiz-adv-x="537" 
d="M373 0l-264 492h-99v268h121v-162h56l150 -279q17 22 23.5 54.5t6.5 81.5v143h119v-144q0 -84 -24 -144t-72 -90l118 -220h-135z" />
    <glyph glyph-name="judeospanishvarika-hb" horiz-adv-x="600" 
d="M94 0v714h411v-714h-411zM145 51h309v612h-309v-612z" />
    <glyph glyph-name="hatafsegol_zerowidthjoiner_siluqleft-hb" horiz-adv-x="456" 
d="M261 -241v172h46v-172h-46zM86 -142q-16 0 -26 8.5t-10 27.5t10 28t26 9q15 0 25.5 -9t10.5 -28q0 -18 -10.5 -27t-25.5 -9zM198 -142q-15 0 -25 8.5t-10 27.5t10 28t25 9q16 0 26.5 -9t10.5 -28q0 -18 -10.5 -27t-26.5 -9zM368 -142q-15 0 -25 8.5t-10 27.5t10 28t25 9
q16 0 26.5 -9t10.5 -28q0 -18 -10.5 -27t-26.5 -9zM142 -241q-15 0 -25.5 8.5t-10.5 28.5q0 18 10.5 26.5t25.5 8.5q16 0 26.5 -8.5t10.5 -26.5q0 -19 -10.5 -28t-26.5 -9zM369 -241q-16 0 -26 8.5t-10 28.5q0 18 10 26.5t26 8.5t26.5 -8.5t10.5 -26.5q0 -19 -10.5 -28
t-26.5 -9z" />
    <glyph glyph-name="hatafpatah_zerowidthjoiner_siluqleft-hb" horiz-adv-x="446" 
d="M252 -241v172h46v-172h-46zM360 -142q-16 0 -26 8.5t-10 27.5t10 28t26 9q15 0 25.5 -9t10.5 -28q0 -18 -10.5 -27t-25.5 -9zM50 -129v46h176v-46h-176zM360 -241q-15 0 -25.5 8.5t-10.5 28.5q0 18 10.5 26.5t25.5 8.5t25.5 -8.5t10.5 -26.5q0 -19 -10.5 -28t-25.5 -9z
" />
    <glyph glyph-name="hatafqamats_zerowidthjoiner_siluqleft-hb" horiz-adv-x="446" 
d="M252 -241v172h46v-172h-46zM360 -142q-16 0 -26 8.5t-10 27.5t10 28t26 9q15 0 25.5 -9t10.5 -28q0 -18 -10.5 -27t-25.5 -9zM115 -229v100h-65v46h176v-46h-65v-100h-46zM360 -241q-15 0 -25.5 8.5t-10.5 28.5q0 18 10.5 26.5t25.5 8.5t25.5 -8.5t10.5 -26.5
q0 -19 -10.5 -28t-25.5 -9z" />
  </font>
</defs>
</svg>
