<?xml version="1.0" standalone="no"?>
<!DOCTYPE svg PUBLIC "-//W3C//DTD SVG 1.1//EN" "http://www.w3.org/Graphics/SVG/1.1/DTD/svg11.dtd" >
<svg xmlns="http://www.w3.org/2000/svg" xmlns:xlink="http://www.w3.org/1999/xlink" version="1.1">
<metadata>
Created by FontForge 20170731 at Wed Sep 20 01:00:14 2017
 By Aleksey,,,
Copyright 2015 Google Inc. All Rights Reserved.
</metadata>
<defs>
<font id="NotoSansHebrew-Medium" horiz-adv-x="0" >
  <font-face 
    font-family="Noto Sans Hebrew Med"
    font-weight="500"
    font-stretch="normal"
    units-per-em="1000"
    panose-1="2 11 6 2 4 5 4 2 2 4"
    ascent="800"
    descent="-200"
    bbox="-210 -252 738 869"
    underline-thickness="50"
    underline-position="-175"
    unicode-range="U+000D-FB4F"
  />
<missing-glyph horiz-adv-x="364" 
d="M33 0v666h265v-666h-265zM66 33h199v600h-199v-600z" />
    <glyph glyph-name=".notdef" horiz-adv-x="364" 
d="M33 0v666h265v-666h-265zM66 33h199v600h-199v-600z" />
    <glyph glyph-name=".null" 
 />
    <glyph glyph-name="nonmarkingreturn" horiz-adv-x="333" 
 />
    <glyph glyph-name="NULL" 
 />
    <glyph glyph-name="NULL" 
 />
    <glyph glyph-name="CR" unicode="&#xd;" horiz-adv-x="260" 
 />
    <glyph glyph-name="space" unicode=" " horiz-adv-x="260" 
 />
    <glyph glyph-name="hyphen" unicode="-" horiz-adv-x="322" 
d="M37 223v90h248v-90h-248z" />
    <glyph glyph-name="uni00A0" unicode="&#xa0;" horiz-adv-x="260" 
 />
    <glyph glyph-name="uni0591" unicode="&#x591;" 
d="M50 -237v23q0 40 16 61t47 26v43h48v-43q33 -5 48.5 -26t15.5 -61v-23h-47v22q0 25 -9 35.5t-31 10.5q-23 0 -32.5 -10.5t-9.5 -35.5v-22h-46z" />
    <glyph glyph-name="uni0592" unicode="&#x592;" 
d="M145 767q-16 0 -26 9t-10 28q0 21 10 30t26 9q15 0 25.5 -9.5t10.5 -29.5q0 -19 -10.5 -28t-25.5 -9zM84 661q-16 0 -25.5 9t-9.5 28q0 20 9.5 29.5t25.5 9.5t26 -9.5t10 -29.5q0 -19 -10 -28t-26 -9zM205 661q-16 0 -25.5 9t-9.5 28q0 20 9.5 29.5t25.5 9.5t26 -9.5
t10 -29.5q0 -19 -10 -28t-26 -9z" />
    <glyph glyph-name="uni0593" unicode="&#x593;" 
d="M50 659l76 42l-76 42l76 42l-76 42l76 42h68l-76 -42l76 -42l-76 -42l76 -42l-86 -42h-58z" />
    <glyph glyph-name="uni0594" unicode="&#x594;" 
d="M87 767q-16 0 -26 9t-10 29q0 19 10 28.5t26 9.5t26 -9.5t10 -28.5t-10 -28.5t-26 -9.5zM86 661q-16 0 -26 9t-10 29q0 19 10 28t26 9t26 -9t10 -28t-10 -28.5t-26 -9.5z" />
    <glyph glyph-name="uni0595" unicode="&#x595;" 
d="M50 661v182h48v-182h-48zM178 767q-16 0 -25.5 9t-9.5 29q0 19 9.5 28.5t25.5 9.5t26.5 -9.5t10.5 -28.5t-10.5 -28.5t-26.5 -9.5zM178 661q-16 0 -26.5 9t-10.5 29q0 19 10.5 28t26.5 9q15 0 25.5 -9t10.5 -28t-10.5 -28.5t-25.5 -9.5z" />
    <glyph glyph-name="uni0596" unicode="&#x596;" 
d="M200 -224q-71 0 -110.5 37t-39.5 103h50q0 -43 27 -67t73 -24v-49z" />
    <glyph glyph-name="uni0597" unicode="&#x597;" 
d="M120 650l-70 77l70 78l70 -78z" />
    <glyph glyph-name="uni0598" unicode="&#x598;" 
d="M100 650q-50 17 -50 73q0 30 19 49t49 19q22 0 40 -12.5t43 -46.5q19 -26 31.5 -37t27.5 -11q13 0 21.5 9t8.5 26q0 29 -27 39l13 34q50 -20 50 -73q0 -31 -19 -49.5t-47 -18.5q-23 0 -42 12.5t-43 45.5q-21 29 -32 39t-27 10q-13 0 -21.5 -9t-8.5 -26q0 -28 27 -40z" />
    <glyph glyph-name="uni0599" unicode="&#x599;" 
d="M150 650q0 43 -26 67t-74 24v50q70 0 110 -36.5t40 -104.5h-50z" />
    <glyph glyph-name="uni059A" unicode="&#x59a;" 
d="M133 -250l-83 83l83 83h66l-83 -83l83 -83h-66z" />
    <glyph glyph-name="uni059B" unicode="&#x59b;" 
d="M86 -127q-15 0 -25.5 10.5t-10.5 26.5q0 15 10.5 26t25.5 11q16 0 26.5 -10.5t10.5 -26.5t-10.5 -26.5t-26.5 -10.5zM67 -224v49q47 0 74 24t27 67h50q0 -65 -39 -102.5t-112 -37.5z" />
    <glyph glyph-name="uni059C" unicode="&#x59c;" 
d="M50 650q0 67 40 104t110 37v-50q-46 0 -73 -23.5t-27 -67.5h-50z" />
    <glyph glyph-name="uni059D" unicode="&#x59d;" 
d="M50 650q0 67 40 104t110 37v-50q-46 0 -73 -23.5t-27 -67.5h-50z" />
    <glyph glyph-name="uni059E" unicode="&#x59e;" 
d="M201 650q0 67 40.5 104t110.5 37v-50q-46 0 -73 -23.5t-27 -67.5h-51zM50 650q0 66 39.5 103.5t111.5 37.5v-50q-47 0 -73.5 -23.5t-26.5 -67.5h-51z" />
    <glyph glyph-name="uni059F" unicode="&#x59f;" 
d="M326 650l-36 36l39 39q-13 21 -13 46q0 39 27.5 66t66.5 27t66.5 -26.5t27.5 -66.5q0 -39 -27 -66t-67 -27q-26 0 -46 10zM228 650l-38 38q-20 -10 -46 -10q-40 0 -67 27t-27 66t27.5 66t66.5 27t66.5 -27t27.5 -66q0 -25 -13 -46l39 -39zM145 724q19 0 32.5 14t13.5 33
t-14 33t-32 14q-19 0 -33.5 -14t-14.5 -33t14.5 -33t33.5 -14zM409 724q19 0 33.5 14t14.5 33t-14.5 33t-33.5 14q-18 0 -32 -14t-14 -33t13.5 -33t32.5 -14z" />
    <glyph glyph-name="uni05A0" unicode="&#x5a0;" 
d="M86 650l-36 36l39 39q-13 21 -13 46q0 39 27.5 66t66.5 27t66.5 -26.5t27.5 -66.5q0 -39 -27 -66t-67 -27q-26 0 -46 10zM169 724q19 0 33.5 14t14.5 33t-14.5 33t-33.5 14q-18 0 -32 -14t-14 -33t13.5 -33t32.5 -14z" />
    <glyph glyph-name="uni05A1" unicode="&#x5a1;" 
d="M50 650v153h46v-63q6 -6 20 -6q22 0 30.5 10t8.5 36v23h47v-23q0 -40 -20 -64t-60 -24q-8 0 -14.5 1t-11.5 4v-47h-46z" />
    <glyph glyph-name="uni05A2" unicode="&#x5a2;" 
d="M113 -237v42q-30 5 -46.5 26t-16.5 62v23h46v-23q0 -24 9.5 -35t32.5 -11q22 0 31 11t9 35v23h47v-23q0 -41 -16.5 -62t-47.5 -26v-42h-48z" />
    <glyph glyph-name="uni05A3" unicode="&#x5a3;" 
d="M50 -228v49h100v95h50v-144h-150z" />
    <glyph glyph-name="uni05A4" unicode="&#x5a4;" 
d="M133 -250l-83 83l83 83h67l-83 -83l83 -83h-67z" />
    <glyph glyph-name="uni05A5" unicode="&#x5a5;" 
d="M50 -224v49q46 0 73 24.5t27 66.5h50q0 -66 -39 -103t-111 -37z" />
    <glyph glyph-name="uni05A6" unicode="&#x5a6;" 
d="M201 -224v49q47 0 73.5 24.5t26.5 66.5h51q0 -65 -39 -102.5t-112 -37.5zM50 -224v49q47 0 73.5 24.5t26.5 66.5h51q0 -66 -39.5 -103t-111.5 -37z" />
    <glyph glyph-name="uni05A7" unicode="&#x5a7;" 
d="M64 -240v37l65 10l-79 103l132 24v-35l-66 -12l79 -103z" />
    <glyph glyph-name="uni05A8" unicode="&#x5a8;" 
d="M150 650q0 43 -26 67t-74 24v50q70 0 110 -36.5t40 -104.5h-50z" />
    <glyph glyph-name="uni05A9" unicode="&#x5a9;" 
d="M228 650l-38 38q-20 -10 -46 -10q-40 0 -67 27t-27 66t27.5 66t66.5 27t66.5 -27t27.5 -66q0 -25 -13 -46l39 -39zM145 724q19 0 32.5 14t13.5 33t-14 33t-32 14q-19 0 -33.5 -14t-14.5 -33t14.5 -33t33.5 -14z" />
    <glyph glyph-name="uni05AA" unicode="&#x5aa;" 
d="M113 -237v42q-30 5 -46.5 26t-16.5 62v23h46v-23q0 -24 9.5 -35t32.5 -11q22 0 31 11t9 35v23h47v-23q0 -41 -16.5 -62t-47.5 -26v-42h-48z" />
    <glyph glyph-name="uni05AB" unicode="&#x5ab;" 
d="M133 650l-83 83l83 83h67l-83 -83l83 -83h-67z" />
    <glyph glyph-name="uni05AC" unicode="&#x5ac;" 
d="M50 650v49h100v95h50v-144h-150z" />
    <glyph glyph-name="uni05AD" unicode="&#x5ad;" 
d="M200 -235q-71 0 -110.5 37t-39.5 103h50q0 -43 27 -67t73 -24v-49z" />
    <glyph glyph-name="uni05AE" unicode="&#x5ae;" 
d="M100 650q-50 17 -50 73q0 30 19 49t49 19q22 0 40 -12.5t43 -46.5q19 -26 31.5 -37t27.5 -11q13 0 21.5 9t8.5 26q0 29 -27 39l13 34q50 -20 50 -73q0 -31 -19 -49.5t-47 -18.5q-23 0 -42 12.5t-43 45.5q-21 29 -32 39t-27 10q-13 0 -21.5 -9t-8.5 -26q0 -28 27 -40z" />
    <glyph glyph-name="uni05AF" unicode="&#x5af;" 
d="M142 650q-39 0 -65.5 27t-26.5 65t27 65t65 27t65 -27t27 -65t-26.5 -65t-65.5 -27zM142 693q20 0 34.5 14.5t14.5 34.5t-14.5 34.5t-34.5 14.5t-34.5 -14.5t-14.5 -34.5t14.5 -34.5t34.5 -14.5z" />
    <glyph glyph-name="uni05B0" unicode="&#x5b0;" 
d="M87 -146q-16 0 -26 9t-10 29t10 29t26 9t26 -9t10 -29t-10 -29t-26 -9zM86 -252q-16 0 -26 9t-10 30q0 19 10 28t26 9t26 -9t10 -28q0 -20 -10 -29.5t-26 -9.5z" />
    <glyph glyph-name="uni05B1" unicode="&#x5b1;" 
d="M85 -146q-16 0 -25.5 9t-9.5 29t9.5 29t25.5 9t26.5 -9t10.5 -29t-10.5 -29t-26.5 -9zM206 -146q-15 0 -25 9t-10 29t10 29t25 9q16 0 26.5 -9t10.5 -29t-10.5 -29t-26.5 -9zM307 -146q-16 0 -25.5 9t-9.5 29t9.5 29t25.5 9t26 -9t10 -29t-10 -29t-26 -9zM308 -252
q-16 0 -26 9t-10 30q0 19 10 28t26 9t26 -9t10 -28q0 -20 -10 -29.5t-26 -9.5zM146 -252q-16 0 -26 9t-10 30q0 19 10 28t26 9t26 -9t10 -28q0 -20 -10 -29.5t-26 -9.5z" />
    <glyph glyph-name="uni05B2" unicode="&#x5b2;" 
d="M299 -146q-16 0 -26 9t-10 29t10 29t26 9t26 -9t10 -29t-10 -29t-26 -9zM50 -132v48h182v-48h-182zM298 -252q-16 0 -26 9t-10 30q0 19 10 28t26 9t26 -9t10 -28q0 -20 -10 -29.5t-26 -9.5z" />
    <glyph glyph-name="uni05B3" unicode="&#x5b3;" 
d="M299 -146q-16 0 -26 9t-10 29t10 29t26 9t26 -9t10 -29t-10 -29t-26 -9zM117 -239v107h-67v48h182v-48h-66v-107h-49zM298 -252q-16 0 -26 9t-10 30q0 19 10 28t26 9t26 -9t10 -28q0 -20 -10 -29.5t-26 -9.5z" />
    <glyph glyph-name="uni05B4" unicode="&#x5b4;" 
d="M85 -146q-16 0 -25.5 9t-9.5 29t9.5 29t25.5 9t26.5 -9t10.5 -29t-10.5 -29t-26.5 -9z" />
    <glyph glyph-name="uni05B5" unicode="&#x5b5;" 
d="M209 -146q-16 0 -25.5 9t-9.5 29t9.5 29t25.5 9t26.5 -9t10.5 -29t-10.5 -29t-26.5 -9zM89 -146q-36 0 -36 38t36 38q15 0 25.5 -9t10.5 -29t-10.5 -29t-25.5 -9z" />
    <glyph glyph-name="uni05B6" unicode="&#x5b6;" 
d="M206 -146q-15 0 -25 9t-10 29t10 29t25 9q16 0 26.5 -9t10.5 -29t-10.5 -29t-26.5 -9zM85 -146q-16 0 -25.5 9t-9.5 29t9.5 29t25.5 9t26.5 -9t10.5 -29t-10.5 -29t-26.5 -9zM146 -252q-16 0 -26 9t-10 30q0 19 10 28t26 9t26 -9t10 -28q0 -20 -10 -29.5t-26 -9.5z" />
    <glyph glyph-name="uni05B7" unicode="&#x5b7;" 
d="M50 -132v48h182v-48h-182z" />
    <glyph glyph-name="uni05B8" unicode="&#x5b8;" 
d="M117 -222v90h-67v48h182v-48h-66v-90h-49z" />
    <glyph glyph-name="uni05B9" unicode="&#x5b9;" 
d="M85 661q-16 0 -25.5 9t-9.5 29q0 19 9.5 28.5t25.5 9.5t26.5 -9.5t10.5 -28.5t-10.5 -28.5t-26.5 -9.5z" />
    <glyph glyph-name="uni05BA" unicode="&#x5ba;" 
d="M85 661q-16 0 -25.5 9t-9.5 29q0 19 9.5 28.5t25.5 9.5t26.5 -9.5t10.5 -28.5t-10.5 -28.5t-26.5 -9.5z" />
    <glyph glyph-name="uni05BB" unicode="&#x5bb;" 
d="M85 -146q-16 0 -25.5 9t-9.5 29t9.5 29t25.5 9t26.5 -9t10.5 -29t-10.5 -29t-26.5 -9zM170 -199q-16 0 -26 9t-10 29q0 19 10 28.5t26 9.5q15 0 25.5 -9.5t10.5 -28.5t-10.5 -28.5t-25.5 -9.5zM254 -252q-16 0 -26 9t-10 29t10 29t26 9t26 -9t10 -29t-10 -29t-26 -9z" />
    <glyph glyph-name="uni05BC" unicode="&#x5bc;" 
d="M50 301q0 38 36 38q16 0 26 -9.5t10 -28.5t-10 -29t-26 -10q-36 0 -36 39z" />
    <glyph glyph-name="uni05BD" unicode="&#x5bd;" 
d="M50 -252v182h48v-182h-48z" />
    <glyph glyph-name="uni05BE" unicode="&#x5be;" horiz-adv-x="312" 
d="M27 504v91h248v-91h-248z" />
    <glyph glyph-name="uni05BF" unicode="&#x5bf;" 
d="M50 675v48h199v-48h-199z" />
    <glyph glyph-name="uni05C0" unicode="&#x5c0;" horiz-adv-x="551" 
d="M234 759h83v-996h-83v996z" />
    <glyph glyph-name="uni05C1" unicode="&#x5c1;" 
d="M85 661q-16 0 -25.5 9t-9.5 29q0 19 9.5 28.5t25.5 9.5t26.5 -9.5t10.5 -28.5t-10.5 -28.5t-26.5 -9.5z" />
    <glyph glyph-name="uni05C2" unicode="&#x5c2;" 
d="M85 661q-16 0 -25.5 9t-9.5 29q0 19 9.5 28.5t25.5 9.5t26.5 -9.5t10.5 -28.5t-10.5 -28.5t-26.5 -9.5z" />
    <glyph glyph-name="uni05C3" unicode="&#x5c3;" horiz-adv-x="273" 
d="M68 479q0 41 20 57t48 16t48.5 -16t20.5 -57q0 -38 -20.5 -55t-48.5 -17t-48 17t-20 55zM68 59q0 39 20 55t48 16t48.5 -16t20.5 -55t-20.5 -56t-48.5 -17t-48 17t-20 56z" />
    <glyph glyph-name="uni05C4" unicode="&#x5c4;" 
d="M85 661q-16 0 -25.5 9t-9.5 29q0 19 9.5 28.5t25.5 9.5t26.5 -9.5t10.5 -28.5t-10.5 -28.5t-26.5 -9.5z" />
    <glyph glyph-name="uni05C5" unicode="&#x5c5;" 
d="M85 -146q-16 0 -25.5 9t-9.5 29t9.5 29t25.5 9t26.5 -9t10.5 -29t-10.5 -29t-26.5 -9z" />
    <glyph glyph-name="uni05C6" unicode="&#x5c6;" horiz-adv-x="411" 
d="M83 0v452q0 75 36 109t94 34h131v-96h-99q-28 0 -41.5 -14t-13.5 -46v-343h187v-96h-294z" />
    <glyph glyph-name="uni05C7" unicode="&#x5c7;" 
d="M97 -196v64h-47v48h142v-48h-46v-64h-49z" />
    <glyph glyph-name="uni05D0" unicode="&#x5d0;" horiz-adv-x="628" 
d="M58 0v161q0 91 30.5 154t88.5 93l-130 187h126l219 -324q62 41 62 169v155h108v-149q0 -91 -31 -154.5t-89 -92.5l139 -199h-125l-229 335q-61 -43 -61 -168v-167h-108z" />
    <glyph glyph-name="uni05D1" unicode="&#x5d1;" horiz-adv-x="557" 
d="M29 0v96h319v286q0 65 -28 91t-81 26h-210v96h216q107 0 158.5 -47.5t51.5 -148.5v-303h78v-96h-504z" />
    <glyph glyph-name="uni05D2" unicode="&#x5d2;" horiz-adv-x="363" 
d="M14 -10v107q39 12 71.5 33t56.5 48q64 72 64 161v100q0 32 -13.5 46t-41.5 14h-99v96h130q60 0 95 -34.5t35 -108.5v-266l22 -186h-91l-28 154h-4q-41 -66 -95.5 -106.5t-101.5 -57.5z" />
    <glyph glyph-name="uni05D3" unicode="&#x5d3;" horiz-adv-x="539" 
d="M317 0v499h-307v96h506v-96h-91v-499h-108z" />
    <glyph glyph-name="uni05D4" unicode="&#x5d4;" horiz-adv-x="667" 
d="M481 0v382q0 65 -28.5 91t-80.5 26h-288v96h294q106 0 158 -47.5t52 -148.5v-399h-107zM84 0v353h107v-353h-107z" />
    <glyph glyph-name="uni05D5" unicode="&#x5d5;" horiz-adv-x="275" 
d="M84 0v595h107v-595h-107z" />
    <glyph glyph-name="uni05D6" unicode="&#x5d6;" horiz-adv-x="315" 
d="M98 0v337q0 67 25 104t51 55v3h-150v96h267v-83q-11 -8 -32 -25t-37.5 -48t-16.5 -83v-356h-107z" />
    <glyph glyph-name="uni05D7" unicode="&#x5d7;" horiz-adv-x="687" 
d="M398 595q106 0 158 -47.5t52 -148.5v-399h-107v382q0 65 -28.5 91t-80.5 26h-201v-499h-107v595h314z" />
    <glyph glyph-name="uni05D8" unicode="&#x5d8;" horiz-adv-x="689" 
d="M354 -13q-133 0 -206.5 74.5t-73.5 241.5v292h107v-292q0 -107 42.5 -166t132.5 -59q92 0 132 59t40 166q0 55 -6 101.5t-26 75t-62 28.5q-28 0 -59 -8.5t-57 -21.5v98q20 9 54.5 19t77.5 10q64 0 102 -24.5t57 -66.5t25 -96t6 -113q0 -161 -76.5 -239.5t-209.5 -78.5z
" />
    <glyph glyph-name="uni05D9" unicode="&#x5d9;" horiz-adv-x="250" 
d="M74 213v382h107v-283l-54 -99h-53z" />
    <glyph glyph-name="uni05DA" unicode="&#x5da;" horiz-adv-x="560" 
d="M380 -240v525q0 86 -28.5 132.5t-78.5 64t-116 17.5h-143v96h155q96 0 168.5 -30.5t113 -98.5t40.5 -181v-525h-111z" />
    <glyph glyph-name="uni05DB" unicode="&#x5db;" horiz-adv-x="555" 
d="M29 0v96h193q87 0 130.5 53t43.5 147q0 100 -49 151.5t-143 51.5h-175v96h185q94 0 159 -37t99 -103.5t34 -155.5t-32.5 -156t-95 -105t-153.5 -38h-196z" />
    <glyph glyph-name="uni05DC" unicode="&#x5dc;" horiz-adv-x="526" 
d="M123 595h370v-75l-189 -520h-114l188 499h-363v261h108v-165z" />
    <glyph glyph-name="uni05DD" unicode="&#x5dd;" horiz-adv-x="667" 
d="M69 0v595h309q106 0 158 -47.5t52 -148.5v-399h-519zM176 96h305v286q0 65 -28.5 91t-80.5 26h-196v-403z" />
    <glyph glyph-name="uni05DE" unicode="&#x5de;" horiz-adv-x="661" 
d="M367 606q102 0 158.5 -58.5t56.5 -153.5v-394h-278v96h170v284q0 61 -30 96t-92 35q-74 0 -112 -50.5t-48 -141.5l-36 -319h-107l45 403l-41 192h107l18 -88h3q17 23 40 46t58 38t88 15z" />
    <glyph glyph-name="uni05DF" unicode="&#x5df;" horiz-adv-x="309" 
d="M123 -240v679q0 32 -13.5 46t-41.5 14h-49v96h80q59 0 95 -34t36 -109v-692h-107z" />
    <glyph glyph-name="uni05E0" unicode="&#x5e0;" horiz-adv-x="409" 
d="M29 0v96h194v343q0 32 -13.5 46t-41.5 14h-106v96h137q59 0 95 -34t36 -109v-452h-301z" />
    <glyph glyph-name="uni05E1" unicode="&#x5e1;" horiz-adv-x="696" 
d="M363 -13q-85 0 -149 36t-100 106t-36 172q0 53 8 104.5t19 93.5h-71v96h324q94 0 158 -37t97.5 -104.5t33.5 -159.5q0 -96 -35 -164.5t-98.5 -105.5t-150.5 -37zM358 78q92 0 135.5 57.5t43.5 159.5q0 77 -23 121.5t-66.5 63.5t-105.5 19h-128q-7 -25 -16.5 -74
t-9.5 -116q0 -114 40 -172.5t130 -58.5z" />
    <glyph glyph-name="uni05E2" unicode="&#x5e2;" horiz-adv-x="622" 
d="M22 0v96h161l-118 499h107l115 -492q80 17 123 78.5t53 180.5l23 233h107l-22 -234q-4 -45 -14.5 -94.5t-33 -97t-62 -86t-100.5 -61t-149 -22.5h-190z" />
    <glyph glyph-name="uni05E3" unicode="&#x5e3;" horiz-adv-x="598" 
d="M189 214q-91 0 -135.5 53t-44.5 144v184h228q94 0 159 -37.5t99 -105t34 -157.5v-535h-107v532q0 207 -195 207h-111v-80q0 -58 23 -83t63 -25q8 0 17 0.5t16 1.5v-96q-23 -3 -46 -3z" />
    <glyph glyph-name="uni05E4" unicode="&#x5e4;" horiz-adv-x="618" 
d="M49 0v96h243q85 0 126 53t41 146q0 204 -192 204h-111v-66q0 -59 23 -83.5t64 -24.5q7 0 16 0.5t16 1.5v-96q-23 -3 -46 -3q-91 0 -135.5 53t-44.5 144v170h228q94 0 159 -37t99 -103.5t34 -156.5q0 -88 -32.5 -155t-94.5 -105t-150 -38h-243z" />
    <glyph glyph-name="uni05E5" unicode="&#x5e5;" horiz-adv-x="498" 
d="M138 -240v475l-134 360h114l116 -335l48 15q38 11 57 40t24 84l19 196h107l-16 -179q-5 -58 -17.5 -102.5t-47 -77t-107.5 -54.5l-55 -16v-406h-108z" />
    <glyph glyph-name="uni05E6" unicode="&#x5e6;" horiz-adv-x="577" 
d="M27 0v96h348l-347 499h126l198 -300q69 39 69 174v126h108v-120q0 -98 -35.5 -161.5t-92.5 -91.5l100 -147v-75h-474z" />
    <glyph glyph-name="uni05E7" unicode="&#x5e7;" horiz-adv-x="645" 
d="M309 0l188 499h-418v96h532v-75l-189 -520h-113zM79 -241v606h107v-606h-107z" />
    <glyph glyph-name="uni05E8" unicode="&#x5e8;" horiz-adv-x="557" 
d="M371 0v382q0 65 -28.5 91t-80.5 26h-248v96h254q106 0 158 -47.5t52 -148.5v-399h-107z" />
    <glyph glyph-name="uni05E9" unicode="&#x5e9;" horiz-adv-x="719" 
d="M92 0l-53 595h107l27 -295l58 18q39 13 57.5 42.5t23.5 85.5l15 149h107l-12 -132q-5 -57 -17 -101.5t-46.5 -77.5t-108.5 -55l-69 -21l10 -112h118q67 0 120.5 28t88 87t42.5 151l23 233h107l-22 -234q-5 -60 -25.5 -123.5t-61.5 -117t-108 -87t-164 -33.5h-217z" />
    <glyph glyph-name="uni05EA" unicode="&#x5ea;" horiz-adv-x="682" 
d="M34 0v96h52q49 0 49 76v327h-97v96h355q107 0 158.5 -47.5t51.5 -148.5v-399h-107v382q0 65 -28 91t-81 26h-145v-318q0 -91 -36 -136t-117 -45h-55z" />
    <glyph glyph-name="uni05F0" unicode="&#x5f0;" horiz-adv-x="566" 
d="M371 0v595h107v-595h-107zM88 0v595h107v-595h-107z" />
    <glyph glyph-name="uni05F1" unicode="&#x5f1;" horiz-adv-x="525" 
d="M334 0v595h107v-595h-107zM74 213v382h107v-283l-54 -99h-53z" />
    <glyph glyph-name="uni05F2" unicode="&#x5f2;" horiz-adv-x="500" 
d="M324 213v382h107v-283l-54 -99h-53zM74 213v382h107v-283l-54 -99h-53z" />
    <glyph glyph-name="uni05F3" unicode="&#x5f3;" horiz-adv-x="192" 
d="M12 350q14 57 28 124.5t21 120.5h107l7 -11q-13 -53 -37.5 -116.5t-48.5 -117.5h-77z" />
    <glyph glyph-name="uni05F4" unicode="&#x5f4;" horiz-adv-x="390" 
d="M208 350q10 38 19.5 81.5t18 86t13.5 77.5h106l7 -11q-14 -53 -37.5 -116.5t-48.5 -117.5h-78zM12 350q14 57 28 124.5t21 120.5h107l7 -11q-13 -53 -37.5 -116.5t-48.5 -117.5h-77z" />
    <glyph glyph-name="uni200C" unicode="&#x200c;" 
d="M18 679v-724h-36v724h36z" />
    <glyph glyph-name="uni200D" unicode="&#x200d;" 
d="M18 -45h-36v578l-65 -66l-24 24l84 82l-84 82l24 24l83 -83l83 83l24 -24l-84 -82l84 -82l-24 -24l-65 66v-578z" />
    <glyph glyph-name="uni200E" unicode="&#x200e;" 
d="M210 574l-106 -104l-24 24l67 63h-130v-602h-35v637h165l-67 63l24 24z" />
    <glyph glyph-name="uni200F" unicode="&#x200f;" 
d="M17 -45h-35v602h-129l66 -63l-23 -24l-106 104l106 105l23 -24l-66 -63h164v-637z" />
    <glyph glyph-name="uni2010" unicode="&#x2010;" horiz-adv-x="322" 
d="M37 223v90h248v-90h-248z" />
    <glyph glyph-name="uni20AA" unicode="&#x20aa;" horiz-adv-x="816" 
d="M270 0v412h99v-316h53q64 0 104.5 8t63 30.5t31.5 65.5t9 113v282h108v-282q0 -117 -29 -185.5t-98 -98t-189 -29.5h-152zM84 0v595h254q106 0 158 -47.5t52 -148.5v-209h-99v191q0 67 -30 92.5t-78 25.5h-150v-499h-107z" />
    <glyph glyph-name="uni25CC" unicode="&#x25cc;" horiz-adv-x="594" 
d="M323 514q0 -27 -26 -27t-26 27q0 26 26 26t26 -26zM408 496q0 -26 -25 -26q-28 0 -28 26q0 27 28 27q25 0 25 -27zM239 496q0 -26 -27 -26q-26 0 -26 26q0 27 26 27q27 0 27 -27zM480 448q0 -26 -25 -26q-27 0 -27 26q0 27 27 27q25 0 25 -27zM167 448q0 -26 -27 -26
q-26 0 -26 25q0 28 26 28q27 0 27 -27zM529 376q0 -27 -27 -27q-26 0 -26 27q0 26 27 26q26 0 26 -26zM118 376q0 -27 -25 -27q-28 0 -28 27q0 26 27 26q26 0 26 -26zM546 291q0 -26 -25 -26q-27 0 -27 26t27 26q25 0 25 -26zM101 291q0 -26 -26 -26q-27 0 -27 26t27 26
q26 0 26 -26zM529 206q0 -26 -27 -26q-26 0 -26 26q0 27 26 27q27 0 27 -27zM118 206q0 -26 -26 -26q-27 0 -27 26q0 27 27 27q26 0 26 -27zM480 133q0 -26 -25 -26q-27 0 -27 26q0 27 27 27q25 0 25 -27zM167 133q0 -26 -27 -26q-26 0 -26 26q0 27 26 27q27 0 27 -27z
M408 85q0 -25 -25 -25q-28 0 -28 25q0 27 28 27q25 0 25 -27zM239 87q0 -27 -27 -27q-26 0 -26 25q0 27 26 27q27 0 27 -25zM323 69q0 -27 -26 -27t-26 27q0 26 26 26t26 -26z" />
    <glyph glyph-name="uniFB1D" unicode="&#xfb1d;" horiz-adv-x="250" 
d="M74 213v382h107v-283l-54 -99h-53zM116 65q-16 0 -25.5 9t-9.5 29t9.5 29t25.5 9t26.5 -9t10.5 -29t-10.5 -29t-26.5 -9z" />
    <glyph glyph-name="uniFB1E" unicode="&#xfb1e;" 
d="M261 767q0 -49 -28 -79t-78 -30q-49 0 -77 30t-28 79h50q0 -24 14.5 -40t40.5 -16q55 0 55 56h51z" />
    <glyph glyph-name="uniFB1F" unicode="&#xfb1f;" horiz-adv-x="500" 
d="M324 213v382h107v-283l-54 -99h-53zM74 213v382h107v-283l-54 -99h-53zM156 95v48h182v-48h-182z" />
    <glyph glyph-name="uniFB20" unicode="&#xfb20;" horiz-adv-x="583" 
d="M14 -56v110l157 53l-115 488h108l106 -455q49 18 77.5 34t43.5 39t22 58.5t12 90.5l22 233h108l-22 -234q-6 -63 -16.5 -110t-30.5 -82.5t-55.5 -61.5t-92.5 -46z" />
    <glyph glyph-name="uniFB21" unicode="&#xfb21;" horiz-adv-x="755" 
d="M52 0v175q0 99 36 164.5t103 91.5l-152 164h138l313 -351q45 16 66.5 61.5t21.5 120.5v169h108v-163q0 -97 -35 -162.5t-101 -91.5l167 -178h-137l-328 365q-92 -31 -92 -184v-181h-108z" />
    <glyph glyph-name="uniFB22" unicode="&#xfb22;" horiz-adv-x="671" 
d="M444 0v499h-437v96h636v-96h-91v-499h-108z" />
    <glyph glyph-name="uniFB23" unicode="&#xfb23;" horiz-adv-x="797" 
d="M611 0v382q0 65 -28.5 91t-80.5 26h-418v96h424q106 0 158 -47.5t52 -148.5v-399h-107zM84 353h107v-353h-107v353z" />
    <glyph glyph-name="uniFB24" unicode="&#xfb24;" horiz-adv-x="685" 
d="M29 0v96h330q85 0 126 53t41 147q0 203 -192 203h-305v96h315q94 0 159 -37t99 -103.5t34 -155.5t-32.5 -156t-94 -105t-150.5 -38h-330z" />
    <glyph glyph-name="uniFB25" unicode="&#xfb25;" horiz-adv-x="638" 
d="M302 0l188 499h-484v261h108v-165h490v-75l-189 -520h-113z" />
    <glyph glyph-name="uniFB26" unicode="&#xfb26;" horiz-adv-x="797" 
d="M69 0v595h439q106 0 158 -47.5t52 -148.5v-399h-649zM176 96h435v285q0 66 -28.5 92t-80.5 26h-326v-403z" />
    <glyph glyph-name="uniFB27" unicode="&#xfb27;" horiz-adv-x="687" 
d="M501 0v382q0 65 -28.5 91t-80.5 26h-378v96h384q106 0 158 -47.5t52 -148.5v-399h-107z" />
    <glyph glyph-name="uniFB28" unicode="&#xfb28;" horiz-adv-x="812" 
d="M34 0v96h52q49 0 49 76v327h-97v96h485q107 0 158.5 -47.5t51.5 -148.5v-399h-107v382q0 65 -28 91t-81 26h-275v-318q0 -91 -36 -136t-117 -45h-55z" />
    <glyph glyph-name="uniFB29" unicode="&#xfb29;" horiz-adv-x="572" 
d="M326 402h196v-81h-474v81h196v202h82v-202z" />
    <glyph glyph-name="uniFB2A" unicode="&#xfb2a;" horiz-adv-x="719" 
d="M92 0l-53 595h107l27 -295l58 18q39 13 57.5 42.5t23.5 85.5l15 149h107l-12 -132q-5 -57 -17 -101.5t-46.5 -77.5t-108.5 -55l-69 -21l10 -112h118q67 0 120.5 28t88 87t42.5 151l23 233h107l-22 -234q-5 -60 -25.5 -123.5t-61.5 -117t-108 -87t-164 -33.5h-217z
M635 661q-16 0 -25.5 9t-9.5 29q0 19 9.5 28.5t25.5 9.5t26.5 -9.5t10.5 -28.5t-10.5 -28.5t-26.5 -9.5z" />
    <glyph glyph-name="uniFB2B" unicode="&#xfb2b;" horiz-adv-x="719" 
d="M92 0l-53 595h107l27 -295l58 18q39 13 57.5 42.5t23.5 85.5l15 149h107l-12 -132q-5 -57 -17 -101.5t-46.5 -77.5t-108.5 -55l-69 -21l10 -112h118q67 0 120.5 28t88 87t42.5 151l23 233h107l-22 -234q-5 -60 -25.5 -123.5t-61.5 -117t-108 -87t-164 -33.5h-217zM91 661
q-16 0 -25.5 9t-9.5 29q0 19 9.5 28.5t25.5 9.5t26.5 -9.5t10.5 -28.5t-10.5 -28.5t-26.5 -9.5z" />
    <glyph glyph-name="uniFB2C" unicode="&#xfb2c;" horiz-adv-x="719" 
d="M92 0l-53 595h107l27 -295l58 18q39 13 57.5 42.5t23.5 85.5l15 149h107l-12 -132q-5 -57 -17 -101.5t-46.5 -77.5t-108.5 -55l-69 -21l10 -112h118q67 0 120.5 28t88 87t42.5 151l23 233h107l-22 -234q-5 -60 -25.5 -123.5t-61.5 -117t-108 -87t-164 -33.5h-217z
M382 222q0 38 36 38q16 0 26 -9.5t10 -28.5t-10 -29t-26 -10q-36 0 -36 39zM635 661q-16 0 -25.5 9t-9.5 29q0 19 9.5 28.5t25.5 9.5t26.5 -9.5t10.5 -28.5t-10.5 -28.5t-26.5 -9.5z" />
    <glyph glyph-name="uniFB2D" unicode="&#xfb2d;" horiz-adv-x="719" 
d="M92 0l-53 595h107l27 -295l58 18q39 13 57.5 42.5t23.5 85.5l15 149h107l-12 -132q-5 -57 -17 -101.5t-46.5 -77.5t-108.5 -55l-69 -21l10 -112h118q67 0 120.5 28t88 87t42.5 151l23 233h107l-22 -234q-5 -60 -25.5 -123.5t-61.5 -117t-108 -87t-164 -33.5h-217z
M382 222q0 38 36 38q16 0 26 -9.5t10 -28.5t-10 -29t-26 -10q-36 0 -36 39zM91 661q-16 0 -25.5 9t-9.5 29q0 19 9.5 28.5t25.5 9.5t26.5 -9.5t10.5 -28.5t-10.5 -28.5t-26.5 -9.5z" />
    <glyph glyph-name="uniFB2E" unicode="&#xfb2e;" horiz-adv-x="628" 
d="M58 0v161q0 91 30.5 154t88.5 93l-130 187h126l219 -324q62 41 62 169v155h108v-149q0 -91 -31 -154.5t-89 -92.5l139 -199h-125l-229 335q-61 -43 -61 -168v-167h-108zM220 -132v48h182v-48h-182z" />
    <glyph glyph-name="uniFB2F" unicode="&#xfb2f;" horiz-adv-x="628" 
d="M58 0v161q0 91 30.5 154t88.5 93l-130 187h126l219 -324q62 41 62 169v155h108v-149q0 -91 -31 -154.5t-89 -92.5l139 -199h-125l-229 335q-61 -43 -61 -168v-167h-108zM287 -222v90h-67v48h182v-48h-66v-90h-49z" />
    <glyph glyph-name="uniFB30" unicode="&#xfb30;" horiz-adv-x="628" 
d="M58 0v161q0 91 30.5 154t88.5 93l-130 187h126l219 -324q62 41 62 169v155h108v-149q0 -91 -31 -154.5t-89 -92.5l139 -199h-125l-229 335q-61 -43 -61 -168v-167h-108zM225 150q0 38 36 38q16 0 26 -9.5t10 -28.5t-10 -29t-26 -10q-36 0 -36 39z" />
    <glyph glyph-name="uniFB31" unicode="&#xfb31;" horiz-adv-x="557" 
d="M29 0v96h319v286q0 65 -28 91t-81 26h-210v96h216q107 0 158.5 -47.5t51.5 -148.5v-303h78v-96h-504zM152 301q0 38 36 38q16 0 26 -9.5t10 -28.5t-10 -29t-26 -10q-36 0 -36 39z" />
    <glyph glyph-name="uniFB32" unicode="&#xfb32;" horiz-adv-x="363" 
d="M14 -10v107q39 12 71.5 33t56.5 48q64 72 64 161v100q0 32 -13.5 46t-41.5 14h-99v96h130q60 0 95 -34.5t35 -108.5v-266l22 -186h-91l-28 154h-4q-41 -66 -95.5 -106.5t-101.5 -57.5zM77 339q0 38 36 38q16 0 26 -9.5t10 -28.5t-10 -29t-26 -10q-36 0 -36 39z" />
    <glyph glyph-name="uniFB33" unicode="&#xfb33;" horiz-adv-x="539" 
d="M317 0v499h-307v96h506v-96h-91v-499h-108zM128 301q0 38 36 38q16 0 26 -9.5t10 -28.5t-10 -29t-26 -10q-36 0 -36 39z" />
    <glyph glyph-name="uniFB34" unicode="&#xfb34;" horiz-adv-x="667" 
d="M481 0v382q0 65 -28.5 91t-80.5 26h-288v96h294q106 0 158 -47.5t52 -148.5v-399h-107zM84 0v353h107v-353h-107zM300 301q0 38 36 38q16 0 26 -9.5t10 -28.5t-10 -29t-26 -10q-36 0 -36 39z" />
    <glyph glyph-name="uniFB35" unicode="&#xfb35;" horiz-adv-x="275" 
d="M84 0v595h107v-595h-107zM-24 301q0 38 36 38q16 0 26 -9.5t10 -28.5t-10 -29t-26 -10q-36 0 -36 39z" />
    <glyph glyph-name="uniFB36" unicode="&#xfb36;" horiz-adv-x="315" 
d="M98 0v337q0 67 25 104t51 55v3h-150v96h267v-83q-11 -8 -32 -25t-37.5 -48t-16.5 -83v-356h-107zM-40 301q0 38 36 38q16 0 26 -9.5t10 -28.5t-10 -29t-26 -10q-36 0 -36 39z" />
    <glyph glyph-name="uniFB38" unicode="&#xfb38;" horiz-adv-x="689" 
d="M354 -13q-133 0 -206.5 74.5t-73.5 241.5v292h107v-292q0 -107 42.5 -166t132.5 -59q92 0 132 59t40 166q0 55 -6 101.5t-26 75t-62 28.5q-28 0 -59 -8.5t-57 -21.5v98q20 9 54.5 19t77.5 10q64 0 102 -24.5t57 -66.5t25 -96t6 -113q0 -161 -76.5 -239.5t-209.5 -78.5z
M318 301q0 38 36 38q16 0 26 -9.5t10 -28.5t-10 -29t-26 -10q-36 0 -36 39z" />
    <glyph glyph-name="uniFB39" unicode="&#xfb39;" horiz-adv-x="250" 
d="M74 213v382h107v-283l-54 -99h-53zM-30 412q0 38 36 38q16 0 26 -9.5t10 -28.5t-10 -29t-26 -10q-36 0 -36 39z" />
    <glyph glyph-name="uniFB3A" unicode="&#xfb3a;" horiz-adv-x="560" 
d="M380 -240v525q0 86 -28.5 132.5t-78.5 64t-116 17.5h-143v96h155q96 0 168.5 -30.5t113 -98.5t40.5 -181v-525h-111zM160 301q0 38 36 38q16 0 26 -9.5t10 -28.5t-10 -29t-26 -10q-36 0 -36 39z" />
    <glyph glyph-name="uniFB3B" unicode="&#xfb3b;" horiz-adv-x="555" 
d="M29 0v96h193q87 0 130.5 53t43.5 147q0 100 -49 151.5t-143 51.5h-175v96h185q94 0 159 -37t99 -103.5t34 -155.5t-32.5 -156t-95 -105t-153.5 -38h-196zM176 301q0 38 36 38q16 0 26 -9.5t10 -28.5t-10 -29t-26 -10q-36 0 -36 39z" />
    <glyph glyph-name="uniFB3C" unicode="&#xfb3c;" horiz-adv-x="526" 
d="M123 595h370v-75l-189 -520h-114l188 499h-363v261h108v-165zM126 301q0 38 36 38q16 0 26 -9.5t10 -28.5t-10 -29t-26 -10q-36 0 -36 39z" />
    <glyph glyph-name="uniFB3E" unicode="&#xfb3e;" horiz-adv-x="661" 
d="M367 606q102 0 158.5 -58.5t56.5 -153.5v-394h-278v96h170v284q0 61 -30 96t-92 35q-74 0 -112 -50.5t-48 -141.5l-36 -319h-107l45 403l-41 192h107l18 -88h3q17 23 40 46t58 38t88 15zM297 301q0 38 36 38q16 0 26 -9.5t10 -28.5t-10 -29t-26 -10q-36 0 -36 39z" />
    <glyph glyph-name="uniFB40" unicode="&#xfb40;" horiz-adv-x="409" 
d="M29 0v96h194v343q0 32 -13.5 46t-41.5 14h-106v96h137q59 0 95 -34t36 -109v-452h-301zM86 301q0 38 36 38q16 0 26 -9.5t10 -28.5t-10 -29t-26 -10q-36 0 -36 39z" />
    <glyph glyph-name="uniFB41" unicode="&#xfb41;" horiz-adv-x="696" 
d="M363 -13q-85 0 -149 36t-100 106t-36 172q0 53 8 104.5t19 93.5h-71v96h324q94 0 158 -37t97.5 -104.5t33.5 -159.5q0 -96 -35 -164.5t-98.5 -105.5t-150.5 -37zM358 78q92 0 135.5 57.5t43.5 159.5q0 77 -23 121.5t-66.5 63.5t-105.5 19h-128q-7 -25 -16.5 -74
t-9.5 -116q0 -114 40 -172.5t130 -58.5zM326 301q0 38 36 38q16 0 26 -9.5t10 -28.5t-10 -29t-26 -10q-36 0 -36 39z" />
    <glyph glyph-name="uniFB43" unicode="&#xfb43;" horiz-adv-x="598" 
d="M189 214q-91 0 -135.5 53t-44.5 144v184h228q94 0 159 -37.5t99 -105t34 -157.5v-535h-107v532q0 207 -195 207h-111v-80q0 -58 23 -83t63 -25q8 0 17 0.5t16 1.5v-96q-23 -3 -46 -3zM292 264q0 38 36 38q16 0 26 -9.5t10 -28.5t-10 -29t-26 -10q-36 0 -36 39z" />
    <glyph glyph-name="uniFB44" unicode="&#xfb44;" horiz-adv-x="618" 
d="M49 0v96h243q85 0 126 53t41 146q0 204 -192 204h-111v-66q0 -59 23 -83.5t64 -24.5q7 0 16 0.5t16 1.5v-96q-23 -3 -46 -3q-91 0 -135.5 53t-44.5 144v170h228q94 0 159 -37t99 -103.5t34 -156.5q0 -88 -32.5 -155t-94.5 -105t-150 -38h-243zM330 280q0 38 36 38
q16 0 26 -9.5t10 -28.5t-10 -29t-26 -10q-36 0 -36 39z" />
    <glyph glyph-name="uniFB46" unicode="&#xfb46;" horiz-adv-x="577" 
d="M27 0v96h348l-347 499h126l198 -300q69 39 69 174v126h108v-120q0 -98 -35.5 -161.5t-92.5 -91.5l100 -147v-75h-474zM74 252q0 38 36 38q16 0 26 -9.5t10 -28.5t-10 -29t-26 -10q-36 0 -36 39z" />
    <glyph glyph-name="uniFB47" unicode="&#xfb47;" horiz-adv-x="645" 
d="M309 0l188 499h-418v96h532v-75l-189 -520h-113zM79 -241v606h107v-606h-107zM262 301q0 38 36 38q16 0 26 -9.5t10 -28.5t-10 -29t-26 -10q-36 0 -36 39z" />
    <glyph glyph-name="uniFB48" unicode="&#xfb48;" horiz-adv-x="557" 
d="M371 0v382q0 65 -28.5 91t-80.5 26h-248v96h254q106 0 158 -47.5t52 -148.5v-399h-107zM156 301q0 38 36 38q16 0 26 -9.5t10 -28.5t-10 -29t-26 -10q-36 0 -36 39z" />
    <glyph glyph-name="uniFB49" unicode="&#xfb49;" horiz-adv-x="719" 
d="M92 0l-53 595h107l27 -295l58 18q39 13 57.5 42.5t23.5 85.5l15 149h107l-12 -132q-5 -57 -17 -101.5t-46.5 -77.5t-108.5 -55l-69 -21l10 -112h118q67 0 120.5 28t88 87t42.5 151l23 233h107l-22 -234q-5 -60 -25.5 -123.5t-61.5 -117t-108 -87t-164 -33.5h-217z
M382 222q0 38 36 38q16 0 26 -9.5t10 -28.5t-10 -29t-26 -10q-36 0 -36 39z" />
    <glyph glyph-name="uniFB4A" unicode="&#xfb4a;" horiz-adv-x="682" 
d="M34 0v96h52q49 0 49 76v327h-97v96h355q107 0 158.5 -47.5t51.5 -148.5v-399h-107v382q0 65 -28 91t-81 26h-145v-318q0 -91 -36 -136t-117 -45h-55zM333 301q0 38 36 38q16 0 26 -9.5t10 -28.5t-10 -29t-26 -10q-36 0 -36 39z" />
    <glyph glyph-name="uniFB4B" unicode="&#xfb4b;" horiz-adv-x="275" 
d="M84 0v595h107v-595h-107zM136 661q-16 0 -25.5 9t-9.5 29q0 19 9.5 28.5t25.5 9.5t26.5 -9.5t10.5 -28.5t-10.5 -28.5t-26.5 -9.5z" />
    <glyph glyph-name="uniFB4C" unicode="&#xfb4c;" horiz-adv-x="557" 
d="M29 0v96h319v286q0 65 -28 91t-81 26h-210v96h216q107 0 158.5 -47.5t51.5 -148.5v-303h78v-96h-504zM117 675v48h199v-48h-199z" />
    <glyph glyph-name="uniFB4D" unicode="&#xfb4d;" horiz-adv-x="555" 
d="M29 0v96h193q87 0 130.5 53t43.5 147q0 100 -49 151.5t-143 51.5h-175v96h185q94 0 159 -37t99 -103.5t34 -155.5t-32.5 -156t-95 -105t-153.5 -38h-196zM108 675v48h199v-48h-199z" />
    <glyph glyph-name="uniFB4E" unicode="&#xfb4e;" horiz-adv-x="618" 
d="M49 0v96h243q85 0 126 53t41 146q0 204 -192 204h-111v-66q0 -59 23 -83.5t64 -24.5q7 0 16 0.5t16 1.5v-96q-23 -3 -46 -3q-91 0 -135.5 53t-44.5 144v170h228q94 0 159 -37t99 -103.5t34 -156.5q0 -88 -32.5 -155t-94.5 -105t-150 -38h-243zM176 675v48h199v-48h-199z
" />
    <glyph glyph-name="uniFB4F" unicode="&#xfb4f;" horiz-adv-x="622" 
d="M458 0l-343 499h-106v261h107v-165h59l222 -322q60 41 60 166v156h107v-152q0 -89 -30 -151t-88 -92l138 -200h-126z" />
    <glyph glyph-name="judeospanishvarika-hb" horiz-adv-x="600" 
d="M94 0v714h411v-714h-411zM145 51h309v612h-309v-612z" />
    <glyph glyph-name="hatafsegol_zerowidthjoiner_siluqleft-hb" horiz-adv-x="471" 
d="M272 -252v182h48v-182h-48zM85 -146q-16 0 -25.5 9t-9.5 29t9.5 29t25.5 9t26.5 -9t10.5 -29t-10.5 -29t-26.5 -9zM206 -146q-15 0 -25 9t-10 29t10 29t25 9q16 0 26.5 -9t10.5 -29t-10.5 -29t-26.5 -9zM384 -146q-16 0 -25.5 9t-9.5 29t9.5 29t25.5 9t26 -9t10 -29
t-10 -29t-26 -9zM146 -252q-16 0 -26 9t-10 30q0 19 10 28t26 9t26 -9t10 -28q0 -20 -10 -29.5t-26 -9.5zM385 -252q-16 0 -26 9t-10 30q0 19 10 28t26 9t26 -9t10 -28q0 -20 -10 -29.5t-26 -9.5z" />
    <glyph glyph-name="hatafpatah_zerowidthjoiner_siluqleft-hb" horiz-adv-x="461" 
d="M262 -252v182h48v-182h-48zM374 -146q-16 0 -25.5 9t-9.5 29t9.5 29t25.5 9t26 -9t10 -29t-10 -29t-26 -9zM50 -132v48h182v-48h-182zM375 -252q-16 0 -26 9t-10 30q0 19 10 28t26 9q15 0 25.5 -9t10.5 -28q0 -20 -10.5 -29.5t-25.5 -9.5z" />
    <glyph glyph-name="hatafqamats_zerowidthjoiner_siluqleft-hb" horiz-adv-x="461" 
d="M262 -252v182h48v-182h-48zM374 -146q-16 0 -25.5 9t-9.5 29t9.5 29t25.5 9t26 -9t10 -29t-10 -29t-26 -9zM117 -239v107h-67v48h182v-48h-66v-107h-49zM375 -252q-16 0 -26 9t-10 30q0 19 10 28t26 9q15 0 25.5 -9t10.5 -28q0 -20 -10.5 -29.5t-25.5 -9.5z" />
  </font>
</defs>
</svg>
