<?xml version="1.0" standalone="no"?>
<!DOCTYPE svg PUBLIC "-//W3C//DTD SVG 1.1//EN" "http://www.w3.org/Graphics/SVG/1.1/DTD/svg11.dtd">
<svg xmlns="http://www.w3.org/2000/svg">
<defs >
<font id="NotoSansKannada" horiz-adv-x="555" ><font-face
    font-family="Noto Sans Kannada"
    units-per-em="1000"
    panose-1="0 0 0 0 0 0 0 0 0 0"
    ascent="809"
    descent="-540"
    alphabetic="0" />
<glyph unicode=" " horiz-adv-x="288" />
<glyph unicode="!" horiz-adv-x="269" d="M163 196H106L81 696H188L163 196ZM72 56Q72 93 90 108T134 123Q159 123 177 108T196 56Q196 20 178 4T134 -12Q108 -12 90 4T72 56Z" />
<glyph unicode="&quot;" horiz-adv-x="408" d="M85 536L65 793H160L140 536H85ZM268 536L248 793H343L323 536H268Z" />
<glyph unicode="#" horiz-adv-x="646" d="M113 0L153 202H25V269H166L196 421H62V487H208L248 690H320L278 487H423L464 690H533L491 487H620V421H479L448 269H586V202H435L395 0H324L366 202H223L183 0H113ZM235 269H378L410 421H267L235 269Z" />
<glyph unicode="%" horiz-adv-x="831" d="M179 0L575 690H652L256 0H179ZM195 276Q124 276 87 333T49 490Q49 591 84 646T195 702Q269 702 307 647T345 490Q345 390 309 333T195 276ZM195 339Q234 339 253 376T272 490Q272 565 253 602T195 640Q157 640 140 603T122
490Q122 415 139 377T195 339ZM632 -12Q561 -12 524 45T486 202Q486 303 521 358T632 414Q705 414 743 359T782 202Q782 102 746 45T632 -12ZM632 51Q671 51 690 88T709 202Q709 276 690 313T632 351Q594 351 577 314T559 202Q559 126 576 89T632 51Z" />
<glyph unicode="&apos;" horiz-adv-x="225" d="M85 536L65 793H160L140 536H85Z" />
<glyph unicode="(" horiz-adv-x="383" d="M49 218Q49 325 69 426T130 620T232 793H317Q256 702 217 609T158 418T138 217Q138 59 181 -84T318 -368H232Q139 -248 94 -97T49 218Z" />
<glyph unicode=")" horiz-adv-x="383" d="M334 207Q334 100 314 -1T253 -195T150 -368H66Q127 -277 166 -184T225 7T245 208Q245 366 202 509T65 793H150Q243 673 288 522T334 207Z" />
<glyph unicode="*" horiz-adv-x="551" d="M323 793L303 602L495 656L509 563L325 549L444 391L358 344L273 519L196 344L107 391L224 549L42 563L56 656L246 602L225 793H323Z" />
<glyph unicode="+" horiz-adv-x="572" d="M250 101V307H51V378H250V585H322V378H521V307H322V101H250Z" />
<glyph unicode="," horiz-adv-x="268" d="M195 119L202 107Q193 72 179 32T149 -49T116 -126H51Q61 -88 70 -45T88 41T101 119H195Z" />
<glyph unicode="-" horiz-adv-x="322" d="M40 244V322H282V244H40Z" />
<glyph unicode="." horiz-adv-x="268" d="M72 57Q72 93 90 108T133 124Q159 124 177 109T196 57Q196 20 178 4T133 -12Q108 -12 90 4T72 57Z" />
<glyph unicode="/" horiz-adv-x="519" d="M445 793L160 -368H74L359 793H445Z" />
<glyph unicode="0" horiz-adv-x="572" d="M523 345Q523 261 510 195T469 83T395 12T285 -12Q205 -12 153 30T75 153T49 345Q49 458 72 537T148 659T285 702Q365 702 418 660T497 538T523 345ZM137 345Q137 251 151 189T198 95T285 63Q339 63 371 94T419 188T434
345Q434 440 419 502T372 596T285 627Q231 627 199 596T152 503T137 345Z" />
<glyph unicode="1" horiz-adv-x="572" d="M355 0H269V482Q269 511 269 531T271 569T273 605Q257 589 244 578T211 550L135 488L89 547L282 697H355V0Z" />
<glyph unicode="2" horiz-adv-x="572" d="M520 0H48V73L213 234Q278 297 319 342T381 428T401 511Q401 549 386 575T343 614T275 627Q223 627 184 609T103 559L56 618Q84 642 117 661T190 691T276 702Q344 702 392 680T465 617T491 519Q491 464 471 418T415 327T327
233L172 84V80H520V0Z" />
<glyph unicode="3" horiz-adv-x="572" d="M493 530Q493 484 475 450T424 394T345 364V361Q431 351 473 308T515 196Q515 135 486 88T397 15T241 -12Q185 -12 137 -4T45 27V109Q90 87 142 75T242 62Q338 62 380 98T423 198Q423 241 400 267T331 306T223 319H154V394H224Q283
394 322 410T382 455T403 523Q403 573 368 600T273 628Q215 628 174 611T93 568L49 628Q87 658 143 680T272 702Q384 702 438 653T493 530Z" />
<glyph unicode="4" horiz-adv-x="572" d="M552 157H448V0H363V157H21V231L357 695H448V236H552V157ZM363 236V443Q363 496 365 533T368 603H364Q356 584 342 562T317 524L107 236H363Z" />
<glyph unicode="5" horiz-adv-x="572" d="M248 -12Q193 -12 145 -2T63 27V110Q99 88 150 76T249 63Q302 63 341 79T403 128T425 212Q425 280 382 316T246 353Q218 353 182 348T124 338L80 366L106 690H465V610H182L165 416Q182 419 211 423T275 427Q348 427 402
403T485 332T515 221Q515 149 483 97T392 16T248 -12Z" />
<glyph unicode="6" horiz-adv-x="572" d="M55 295Q55 355 63 413T93 524T151 616T244 679T382 702Q403 702 428 700T470 693V619Q452 624 430 627T384 630Q315 630 269 608T197 548T158 459T143 353H149Q164 377 187 396T242 426T318 437Q380 437 426 412T499
340T525 224Q525 151 497 99T419 18T298 -11Q247 -11 203 7T126 63T74 159T55 295ZM297 63Q360 63 399 102T438 224Q438 291 404 329T300 368Q253 368 218 349T164 301T144 241Q144 209 153 178T182 120T230 79T297 63Z" />
<glyph unicode="7" horiz-adv-x="572" d="M142 0L429 610H44V690H523V623L238 0H142Z" />
<glyph unicode="8" horiz-adv-x="572" d="M285 702Q348 702 396 683T471 627T499 536Q499 495 481 464T431 409T363 366Q407 345 443 320T500 260T522 178Q522 120 493 77T412 11T288 -12Q211 -12 158 10T77 74T49 175Q49 223 69 258T124 318T197 361Q162 381
134 405T89 461T72 537Q72 590 100 627T176 683T285 702ZM135 175Q135 125 172 92T286 58Q359 58 397 91T436 178Q436 211 418 236T366 282T286 319L270 325Q226 307 196 286T151 237T135 175ZM284 631Q229 631 194 606T158 532Q158 497 175 473T223 432T289 400Q324
414 351 431T395 473T412 532Q412 580 377 605T284 631Z" />
<glyph unicode="9" horiz-adv-x="572" d="M520 396Q520 336 512 277T482 166T424 74T330 11T192 -12Q172 -12 146 -10T102 -2V73Q120 67 144 64T190 60Q260 60 305 82T378 142T417 230T431 336H425Q410 314 387 295T332 265T255 253Q194 253 148 278T76 350T50
465Q50 538 78 591T158 673T278 702Q329 702 373 684T450 627T501 532T520 396ZM278 628Q216 628 177 589T137 466Q137 400 170 362T274 323Q322 323 357 341T411 389T431 450Q431 482 422 513T393 570T345 612T278 628Z" />
<glyph unicode=":" horiz-adv-x="268" d="M72 57Q72 93 90 108T133 124Q159 124 177 109T196 57Q196 20 178 4T133 -12Q108 -12 90 4T72 57ZM72 384Q72 422 90 437T133 452Q159 452 177 437T196 384Q196 348 178 332T133 316Q108 316 90 332T72 384Z" />
<glyph unicode=";" horiz-adv-x="280" d="M196 119L203 107Q194 73 180 32T150 -50T117 -126H51Q61 -89 70 -46T88 41T102 119H196ZM90 384Q90 422 108 437T151 452Q177 452 195 437T214 384Q214 348 196 332T151 316Q126 316 108 332T90 384Z" />
<glyph unicode="&lt;" horiz-adv-x="572" d="M521 106L50 313V363L521 598V520L144 342L521 184V106Z" />
<glyph unicode="=" horiz-adv-x="572" d="M56 406V477H514V406H56ZM56 207V278H514V207H56Z" />
<glyph unicode="&gt;" horiz-adv-x="572" d="M50 106V184L427 341L50 520V598L521 363V313L50 106Z" />
<glyph unicode="?" horiz-adv-x="458" d="M216 702Q307 702 360 654T413 519Q413 476 401 444T365 384T304 324Q272 297 255 277T232 239T225 195V186H157V204Q157 237 164 263T189 314T240 367Q271 394 290 415T319 460T328 518Q328 565 300 594T216 624Q176
624 140 612T68 582L38 653Q77 673 123 687T216 702ZM195 -12Q170 -12 152 4T133 56Q133 94 151 109T195 124Q221 124 239 109T257 56Q257 20 239 4T195 -12Z" />
<glyph unicode="[" horiz-adv-x="383" d="M304 -369H80V793H304V722H166V-296H304V-369Z" />
<glyph unicode="\" horiz-adv-x="519" d="M160 793L445 -368H358L74 793H160Z" />
<glyph unicode="]" horiz-adv-x="383" d="M79 -297H217V722H79V793H303V-369H79V-297Z" />
<glyph unicode="^" horiz-adv-x="572" d="M38 250L250 702H300L534 250H456L276 609L116 250H38Z" />
<glyph unicode="_" horiz-adv-x="444" d="M-2 -154V-90H446V-154H-2Z" />
<glyph unicode="{" horiz-adv-x="383" d="M348 -368Q287 -367 243 -350T174 -298T150 -209V82Q150 133 119 154T28 176V249Q87 250 118 271T150 342V636Q150 689 175 724T245 776T348 793V722Q296 721 267 699T237 627V338Q237 287 210 257T128 216V210Q184 200
210 170T237 88V-203Q237 -235 250 -255T288 -285T348 -296V-368Z" />
<glyph unicode="|" horiz-adv-x="551" d="M239 794H312V-368H239V794Z" />
<glyph unicode="}" horiz-adv-x="382" d="M35 793Q96 793 140 776T208 724T232 635V343Q232 292 263 271T354 249V176Q295 175 264 154T232 83V-210Q232 -263 207 -298T138 -350T35 -368V-296Q87 -294 116 -273T146 -202V87Q146 138 173 168T254 209V215Q199 225
173 255T146 337V628Q146 661 133 681T95 712T35 722V793Z" />
<glyph unicode="~" horiz-adv-x="572" d="M269 309Q233 325 210 330T164 336Q136 336 105 319T50 277V355Q74 381 104 394T170 408Q199 408 227 402T302 376Q338 360 361 355T406 349Q435 349 466 366T521 408V331Q497 305 467 291T401 277Q373 277 344 283T269 309Z" />
<glyph unicode="&#xa0;" horiz-adv-x="288" />
<glyph unicode="&#xad;" horiz-adv-x="322" d="M40 244V322H282V244H40Z" />
<glyph unicode="&#xd7;" horiz-adv-x="572" d="M456 564L506 513L336 343L505 173L455 122L284 291L117 122L65 173L234 343L64 512L116 564L285 393L456 564Z" />
<glyph unicode="&#xf7;" horiz-adv-x="572" d="M50 307V378H521V307H50ZM285 111Q262 111 246 125T229 172Q229 206 245 219T285 232Q308 232 324 219T340 172Q340 140 324 126T285 111ZM285 452Q262 452 246 466T229 513Q229 547 245 560T285 573Q308 573 324
560T340 513Q340 481 324 467T285 452Z" />
<glyph unicode="&#x2013;" horiz-adv-x="500" d="M40 244V322H460V244H40Z" />
<glyph unicode="&#x2014;" horiz-adv-x="1000" d="M40 244V322H960V244H40Z" />
<glyph unicode="&#x2018;" horiz-adv-x="259" d="M58 549L52 560Q61 595 74 635T105 717T138 793H208Q198 756 188 712T170 626T157 549H58Z" />
<glyph unicode="&#x2019;" horiz-adv-x="259" d="M200 793L208 783Q199 748 185 707T154 626T122 549H52Q61 587 70 630T88 716T102 793H200Z" />
<glyph unicode="&#x201c;" horiz-adv-x="438" d="M242 549L234 560Q243 595 257 635T289 717T322 793H387Q378 755 368 712T350 626T336 549H242ZM58 549L52 560Q61 595 74 635T104 717T138 793H202Q193 755 183 712T165 626T151 549H58Z" />
<glyph unicode="&#x201d;" horiz-adv-x="438" d="M379 793L387 783Q378 747 364 707T334 626T301 549H234Q244 587 253 630T272 716T286 793H379ZM194 793L202 783Q193 747 179 707T148 626T116 549H52Q61 587 70 630T87 716T101 793H194Z" />
</font>
</defs>
</svg>
