<?xml version="1.0" standalone="no"?>
<!DOCTYPE svg PUBLIC "-//W3C//DTD SVG 1.1//EN" "http://www.w3.org/Graphics/SVG/1.1/DTD/svg11.dtd">
<svg xmlns="http://www.w3.org/2000/svg">
<defs >
<font id="NotoSansOriya" horiz-adv-x="675" ><font-face
    font-family="Noto Sans Oriya"
    units-per-em="1000"
    panose-1="0 0 0 0 0 0 0 0 0 0"
    ascent="1069"
    descent="-293"
    alphabetic="0" />
<glyph unicode=" " glyph-name="space" horiz-adv-x="258" />
<glyph unicode="!" glyph-name="exclam" horiz-adv-x="361" d="M149 714H244L233 202H160L149 714ZM142 44Q142 70 156 84T195 98Q249 98 249 44Q249 -9 195 -9Q170 -9 156 4T142 44Z" />
<glyph unicode="&quot;" glyph-name="quotedbl" horiz-adv-x="466" d="M112 729H193L184 471H121L112 729ZM289 729H370L361 471H298L289 729Z" />
<glyph unicode="#" glyph-name="numbersign" horiz-adv-x="640" d="M38 179V239H168L199 397H73V456H210L243 632H309L276 456H417L450 632H516L482 456H601V397H471L441 239H566V179H430L396 0H330L364 179H223L189 0H124L157 179H38ZM407 398H264L233 238H376L407 398Z" />
<glyph unicode="%" glyph-name="percent" horiz-adv-x="853" d="M204 270Q131 270 91 317T51 452Q51 538 92 585T205 632Q281 632 320 585T359 452Q359 364 319 317T204 270ZM659 622L265 0H194L588 622H659ZM205 328Q248 328 268 360T289 451Q289 510 270 541T206
573Q122 573 122 451Q122 328 205 328ZM648 -9Q574 -9 534 38T494 173Q494 259 535 306T649 353Q725 353 763 305T802 172Q802 85 762 38T648 -9ZM647 49Q690 49 711 81T732 173Q732 231 713 263T649 295Q564 295 564 173Q564 49 647 49Z" />
<glyph unicode="&apos;" glyph-name="quotesingle" horiz-adv-x="288" d="M111 729H193L183 471H120L111 729Z" />
<glyph unicode="(" glyph-name="parenleft" horiz-adv-x="355" d="M218 -165Q150 -68 112 58T74 330Q74 475 112 605T218 832H294Q224 729 188 600T152 330Q152 192 188 65T294 -165H218Z" />
<glyph unicode=")" glyph-name="parenright" horiz-adv-x="355" d="M61 -165Q131 -62 167 67T204 337Q204 475 168 602T61 832H137Q205 735 243 609T281 337Q281 192 244 62T137 -165H61Z" />
<glyph unicode="*" glyph-name="asterisk" horiz-adv-x="579" d="M250 503L71 545L85 613L268 553L259 745H331L322 553L507 613L518 544L340 503L454 351L394 315L294 473L199 316L136 351L250 503Z" />
<glyph unicode="+" glyph-name="plus" horiz-adv-x="563" d="M57 291V354H250V547H315V354H507V291H315V98H250V291H57Z" />
<glyph unicode="," glyph-name="comma" horiz-adv-x="241" d="M41 -133Q60 -61 73 4T94 127H173L177 115Q169 79 158 35T133 -53T104 -133H41Z" />
<glyph unicode="." glyph-name="period" horiz-adv-x="241" d="M67 44Q67 70 81 84T120 98Q174 98 174 44Q174 -9 120 -9Q95 -9 81 4T67 44Z" />
<glyph unicode="/" glyph-name="slash" horiz-adv-x="430" d="M388 833L117 -166H41L312 833H388Z" />
<glyph unicode="0" glyph-name="zero" horiz-adv-x="561" d="M280 -10Q166 -10 110 85T54 357Q54 533 106 628T280 724Q395 724 451 629T507 357Q507 241 485 159T413 33T280 -10ZM280 62Q359 62 390 137T421 357Q421 501 389 576T280 652Q202 652 171 577T140
357Q140 214 172 138T280 62Z" />
<glyph unicode="1" glyph-name="one" horiz-adv-x="561" d="M284 488Q284 521 284 557T286 620Q274 608 263 598T235 576L128 493L82 550L294 714H371V0H284V488Z" />
<glyph unicode="2" glyph-name="two" horiz-adv-x="561" d="M249 276Q299 329 330 368T377 444T392 526Q392 585 358 617T264 649Q183 649 102 581L55 639Q101 678 154 701T273 724Q367 724 422 672T478 535Q478 475 458 428T401 336T308 235L155 76V74H504V0H44V61L249
276Z" />
<glyph unicode="3" glyph-name="three" horiz-adv-x="561" d="M234 -10Q121 -10 39 28V104Q121 61 223 61Q315 61 358 97T402 201Q402 274 348 304T200 335H147V404H200Q296 404 341 440T386 536Q386 596 348 624T254 652Q202 652 161 635T82 594L45 655Q89 683
140 703T264 724Q366 724 418 675T470 553Q470 475 425 432T317 373V372Q400 362 446 317T492 198Q492 106 429 48T234 -10Z" />
<glyph unicode="4" glyph-name="four" horiz-adv-x="561" d="M22 173V237L351 718H433V241H540V173H433V0H348V173H22ZM349 418Q349 488 350 534T353 610L350 611Q340 591 330 575T306 537L103 240H349V418Z" />
<glyph unicode="5" glyph-name="five" horiz-adv-x="561" d="M251 -10Q197 -10 148 1T63 33V109Q101 87 148 74T247 61Q324 61 368 101T412 221Q412 297 367 334T245 371Q209 371 179 366T117 352L78 373L104 714H447V640H178L160 426Q184 432 213 436T281 441Q345
441 394 416T471 343T499 227Q499 113 438 52T251 -10Z" />
<glyph unicode="6" glyph-name="six" horiz-adv-x="561" d="M294 -10Q225 -10 173 23T91 126T61 301Q61 379 74 454T123 591T221 688T382 724Q401 724 426 722T468 716V644Q450 649 427 651T379 654Q290 654 239 614T166 504T140 346H144Q167 387 209 416T317
445Q409 445 460 386T512 229Q512 117 454 54T294 -10ZM293 62Q354 62 391 103T428 228Q428 293 395 334T296 375Q248 375 215 355T166 307T149 254Q149 204 164 160T212 89T293 62Z" />
<glyph unicode="7" glyph-name="seven" horiz-adv-x="561" d="M50 640V714H511V658L234 0H144L418 640H50Z" />
<glyph unicode="8" glyph-name="eight" horiz-adv-x="561" d="M278 -10Q166 -10 110 41T54 176Q54 251 99 297T215 376Q156 409 117 450T78 557Q78 611 105 648T179 704T283 724Q372 724 430 682T488 556Q488 509 468 477T415 420T340 377Q383 355 421 327T483
262T508 174Q508 90 448 40T278 -10ZM278 414Q313 431 342 448T388 489T405 548Q405 603 370 630T282 658Q234 658 197 630T160 550Q160 504 190 475T278 414ZM278 56Q351 56 389 88T427 173Q427 223 388 264T276 338Q208 308 172 270T135 179Q135 123 172 90T278
56Z" />
<glyph unicode="9" glyph-name="nine" horiz-adv-x="561" d="M179 -10Q161 -10 136 -9T95 -3V70Q113 65 134 63T177 60Q247 60 293 84T367 150T406 247T421 367H417Q394 325 352 297T242 268Q150 268 99 327T47 484Q47 595 105 659T265 723Q334 723 387 690T470
586T500 405Q500 318 485 243T434 111T336 22T179 -10ZM264 338Q312 338 345 358T395 406T413 458Q413 509 397 553T348 624T267 651Q205 651 168 610T131 485Q131 420 165 379T264 338Z" />
<glyph unicode=":" glyph-name="colon" horiz-adv-x="275" d="M138 435Q113 435 99 448T84 489Q84 515 98 528T138 542Q191 542 191 489Q191 435 138 435ZM138 -9Q113 -9 99 4T84 44Q84 70 98 84T138 98Q191 98 191 44Q191 -9 138 -9Z" />
<glyph unicode=";" glyph-name="semicolon" horiz-adv-x="275" d="M137 435Q84 435 84 489Q84 542 137 542Q191 542 191 489Q191 435 137 435ZM184 115Q176 79 165 35T140 -53T111 -133H48Q67 -61 80 4T101 127H179L184 115Z" />
<glyph unicode="&lt;" glyph-name="less" horiz-adv-x="563" d="M56 346L507 571V500L147 324L507 156V84L56 299V346Z" />
<glyph unicode="=" glyph-name="equal" horiz-adv-x="563" d="M507 453V389H57V453H507ZM507 253V190H57V253H507Z" />
<glyph unicode="&gt;" glyph-name="greater" horiz-adv-x="563" d="M416 325L56 500V571L507 347V299L56 84V156L416 325Z" />
<glyph unicode="?" glyph-name="question" horiz-adv-x="511" d="M176 225Q176 268 183 297T208 348T260 394Q311 431 336 462T362 544Q362 600 329 626T242 653Q202 653 168 643T96 614L65 679Q109 700 152 712T246 724Q338 724 391 680T444 551Q444 504 430
471T387 410T317 353Q279 326 263 299T246 218V202H176V225ZM161 44Q161 98 214 98Q268 98 268 44Q268 -9 214 -9Q161 -9 161 44Z" />
<glyph unicode="[" glyph-name="bracketleft" horiz-adv-x="352" d="M296 832V771H182V-105H296V-166H109V832H296Z" />
<glyph unicode="\" glyph-name="backslash" horiz-adv-x="428" d="M117 833L387 -166H311L41 833H117Z" />
<glyph unicode="]" glyph-name="bracketright" horiz-adv-x="352" d="M170 -105V771H56V832H242V-166H56V-105H170Z" />
<glyph unicode="^" glyph-name="asciicircum" horiz-adv-x="563" d="M307 719L527 270H454L282 633L107 270H35L257 719H307Z" />
<glyph unicode="_" glyph-name="underscore" horiz-adv-x="411" d="M413 -90V-131H-2V-90H413Z" />
<glyph unicode="{" glyph-name="braceleft" horiz-adv-x="408" d="M43 364Q98 364 127 388T157 470V686Q157 758 200 795T352 832V767Q295 767 263 747T230 674V456Q230 402 208 371T138 332V328Q186 319 208 292T230 207V-10Q230 -65 260 -83T352 -101V-166Q277
-166 235 -152T175 -105T157 -21V192Q157 249 128 272T43 296V364Z" />
<glyph unicode="|" glyph-name="bar" horiz-adv-x="540" d="M302 832V-166H237V832H302Z" />
<glyph unicode="}" glyph-name="braceright" horiz-adv-x="408" d="M365 302Q309 302 280 278T251 196V-20Q251 -92 208 -129T56 -166V-101Q113 -101 145 -81T178 -8V210Q178 264 200 295T270 334V338Q222 347 200 374T178 459V676Q178 731 148 749T56 767V832Q130
832 172 818T233 771T251 687V474Q251 417 280 394T365 370V302Z" />
<glyph unicode="~" glyph-name="asciitilde" horiz-adv-x="563" d="M56 333Q78 356 108 369T174 383Q210 383 235 375T295 350Q325 336 347 329T397 321Q425 321 453 334T509 377V309Q488 286 459 272T392 258Q359 258 334 265T274 290Q243 304 221 312T169 320Q111
320 56 264V333Z" />
<glyph unicode="&#xa0;" glyph-name="uni00A0" horiz-adv-x="258" />
<glyph unicode="&#xad;" glyph-name="uni00AD" horiz-adv-x="342" d="M290 333V261H51V333H290Z" />
<glyph unicode="&#xd7;" glyph-name="multiply" horiz-adv-x="563" d="M124 121L79 164L237 322L79 480L124 524L281 366L439 524L484 481L325 322L483 164L439 120L281 279L124 121Z" />
<glyph unicode="&#xf7;" glyph-name="divide" horiz-adv-x="563" d="M282 447Q237 447 237 497Q237 547 282 547Q327 547 327 497Q327 447 282 447ZM507 354V291H57V354H507ZM282 97Q237 97 237 147Q237 196 282 196Q327 196 327 147Q327 97 282 97Z" />
<glyph unicode="&#x2013;" glyph-name="endash" horiz-adv-x="500" d="M460 329V264H40V329H460Z" />
<glyph unicode="&#x2014;" glyph-name="emdash" horiz-adv-x="1000" d="M960 329V264H40V329H960Z" />
<glyph unicode="&#x2018;" glyph-name="quoteleft" horiz-adv-x="288" d="M81 481Q89 518 100 562T125 650T154 729H217Q198 658 185 593T164 470H86L81 481Z" />
<glyph unicode="&#x2019;" glyph-name="quoteright" horiz-adv-x="288" d="M218 717Q210 681 199 637T174 549T146 470H82Q101 541 114 606T135 729H214L218 717Z" />
<glyph unicode="&#x201c;" glyph-name="quotedblleft" horiz-adv-x="466" d="M81 481Q89 518 100 562T125 650T154 729H217Q198 658 185 593T164 470H86L81 481ZM259 481Q267 518 278 562T303 650T332 729H395Q376 658 363 593T342 470H264L259 481Z" />
<glyph unicode="&#x201d;" glyph-name="quotedblright" horiz-adv-x="466" d="M396 717Q388 681 377 637T353 549T324 470H260Q279 541 292 606T314 729H392L396 717ZM218 717Q210 681 199 637T174 549T146 470H82Q101 541 114 606T135 729H214L218 717Z" />
</font>
</defs>
</svg>
