<?xml version="1.0" encoding="UTF-8" standalone="no"?>
<svg
   xmlns:dc="http://purl.org/dc/elements/1.1/"
   xmlns:cc="http://creativecommons.org/ns#"
   xmlns:rdf="http://www.w3.org/1999/02/22-rdf-syntax-ns#"
   xmlns:svg="http://www.w3.org/2000/svg"
   xmlns="http://www.w3.org/2000/svg"
   viewBox="0 0 191.81067 29.3776"
   height="29.3776"
   width="191.81067"
   xml:space="preserve"
   id="svg2"
   version="1.1"><metadata
     id="metadata8"><rdf:RDF><cc:Work
         rdf:about=""><dc:format>image/svg+xml</dc:format><dc:type
           rdf:resource="http://purl.org/dc/dcmitype/StillImage" /></cc:Work></rdf:RDF></metadata><defs
     id="defs6"><clipPath
       id="clipPath18"
       clipPathUnits="userSpaceOnUse"><path
         id="path16"
         d="M 0,22.033 H 143.858 V 0 H 0 Z" /></clipPath></defs><g
     transform="matrix(1.3333333,0,0,-1.3333333,0,29.3776)"
     id="g10"><g
       id="g12"><g
         clip-path="url(#clipPath18)"
         id="g14"><g
           transform="translate(136.583,12.3555)"
           id="g20"><path
             id="path22"
             style="fill:#332d2b;fill-opacity:1;fill-rule:nonzero;stroke:none"
             d="M 0,0 V -3 H 2.108 V -5.974 C 2.114,-6.24 2.102,-6.525 2.055,-6.755 1.972,-7.312 1.443,-8.256 -0.053,-8.256 c -1.486,0 -2.005,0.944 -2.093,1.501 -0.039,0.23 -0.055,0.515 -0.055,0.781 v 9.4 c 0,0.332 0.022,0.695 0.094,0.971 0.1,0.501 0.544,1.49 2.044,1.49 1.572,0 1.965,-1.043 2.055,-1.49 C 2.051,4.1 2.055,3.602 2.055,3.602 V 2.464 h 5.179 v 0.674 c 0,0 0.024,0.703 -0.039,1.36 -0.389,3.859 -3.568,5.078 -7.213,5.078 -3.651,0 -6.765,-1.233 -7.219,-5.078 -0.04,-0.352 -0.104,-0.984 -0.104,-1.36 V -5.51 c 0,-0.376 0.012,-0.669 0.081,-1.357 0.339,-3.75 3.591,-5.08 7.227,-5.08 3.66,0 6.888,1.33 7.233,5.08 0.061,0.688 0.068,0.981 0.075,1.357 V 0 Z m -35.711,9.021 h -5.202 V -6.191 c 0.008,-0.266 0,-0.564 -0.046,-0.782 -0.107,-0.509 -0.541,-1.494 -1.977,-1.494 -1.416,0 -1.86,0.985 -1.96,1.494 -0.052,0.218 -0.059,0.516 -0.052,0.782 V 9.021 h -5.199 V -5.72 c -0.008,-0.381 0.023,-1.157 0.044,-1.357 0.36,-3.843 3.387,-5.091 7.167,-5.091 3.789,0 6.814,1.248 7.181,5.091 0.027,0.2 0.066,0.976 0.044,1.357 z m -47.791,0 -2.594,-16.074 -2.594,16.074 h -8.39 l -0.444,-20.564 h 5.14 l 0.139,19.039 3.537,-19.039 h 5.215 l 3.538,19.039 0.141,-19.039 h 5.152 l -0.46,20.564 z m -31.063,0 -3.81,-20.564 h 5.556 l 2.871,19.039 2.801,-19.039 h 5.516 l -3.792,20.564 z m 97.031,-16.557 -4.844,16.557 h -7.632 v -20.349 h 5.049 l -0.293,17.088 5.202,-17.088 h 7.319 V 9.021 h -5.081 z M -64.233,3.67 c -0.092,0.408 -0.065,0.84 -0.017,1.064 0.146,0.66 0.588,1.377 1.862,1.377 1.188,0 1.885,-0.742 1.885,-1.853 V 3.001 h 5.07 v 1.433 c 0,4.431 -3.972,5.129 -6.848,5.129 -3.623,0 -6.581,-1.196 -7.122,-4.531 -0.143,-0.905 -0.178,-1.712 0.049,-2.739 0.881,-4.158 8.119,-5.363 9.168,-7.993 0.186,-0.498 0.134,-1.133 0.039,-1.507 -0.158,-0.686 -0.618,-1.374 -1.982,-1.374 -1.28,0 -2.051,0.737 -2.051,1.846 l -10e-4,1.972 h -5.458 V -6.33 c 0,-4.546 3.561,-5.918 7.397,-5.918 3.673,0 6.706,1.255 7.193,4.658 0.233,1.758 0.058,2.902 -0.036,3.335 -0.85,4.263 -8.564,5.547 -9.148,7.925 m -66.884,0.051 c -0.1,0.416 -0.076,0.852 -0.021,1.082 0.141,0.654 0.585,1.385 1.883,1.385 1.202,0 1.91,-0.749 1.91,-1.869 V 3.047 h 5.131 V 4.49 c 0,4.475 -4.035,5.188 -6.942,5.188 -3.653,0 -6.637,-1.213 -7.184,-4.571 -0.149,-0.921 -0.175,-1.732 0.041,-2.77 0.89,-4.206 8.2,-5.423 9.263,-8.081 0.199,-0.496 0.14,-1.133 0.04,-1.519 -0.168,-0.693 -0.632,-1.391 -2.008,-1.391 -1.285,0 -2.053,0.75 -2.053,1.875 l -0.007,1.977 h -5.519 v -1.572 c 0,-4.6 3.611,-5.981 7.477,-5.981 3.714,0 6.766,1.267 7.264,4.707 0.248,1.775 0.063,2.929 -0.022,3.369 -0.867,4.316 -8.667,5.593 -9.253,8" /></g></g></g></g></svg>